<?xml version="1.0" encoding="UTF-8" standalone="no"?>
<!DOCTYPE svg PUBLIC "-//W3C//DTD SVG 1.1//EN"
 "http://www.w3.org/Graphics/SVG/1.1/DTD/svg11.dtd">
<!-- Generated by graphviz version 9.0.0 (20230911.1827)
 -->
<!-- Title: ClusterDiagram Pages: 1 -->
<svg width="468pt" height="337pt"
 viewBox="0.00 0.00 468.00 337.00" xmlns="http://www.w3.org/2000/svg" xmlns:xlink="http://www.w3.org/1999/xlink">
<g id="graph0" class="graph" transform="scale(1 1) rotate(0) translate(4 333)">
<title>ClusterDiagram</title>
<polygon fill="white" stroke="none" points="-4,4 -4,-333 464,-333 464,4 -4,4"/>
<g id="clust1" class="cluster">
<title>cluster_frontend</title>
<polygon fill="#e8f5e9" stroke="black" points="8,-246.75 8,-321 171,-321 171,-246.75 8,-246.75"/>
<text text-anchor="middle" x="89.5" y="-305.6" font-family="Helvetica,sans-Serif" font-size="12.00">Frontend Layer</text>
</g>
<g id="clust2" class="cluster">
<title>cluster_api</title>
<polygon fill="#fff3e0" stroke="black" points="26,-90.25 26,-238.75 120,-238.75 120,-90.25 26,-90.25"/>
<text text-anchor="middle" x="73" y="-223.35" font-family="Helvetica,sans-Serif" font-size="12.00">API Layer</text>
</g>
<g id="clust3" class="cluster">
<title>cluster_backend</title>
<polygon fill="#fce4ec" stroke="black" points="128,-90.25 128,-164.5 452,-164.5 452,-90.25 128,-90.25"/>
<text text-anchor="middle" x="290" y="-149.1" font-family="Helvetica,sans-Serif" font-size="12.00">Backend Layer</text>
</g>
<g id="clust4" class="cluster">
<title>cluster_data</title>
<polygon fill="#e1f5fe" stroke="black" points="100,-8 100,-82.25 446,-82.25 446,-8 100,-8"/>
<text text-anchor="middle" x="273" y="-66.85" font-family="Helvetica,sans-Serif" font-size="12.00">Data Layer</text>
</g>
<!-- web -->
<g id="node1" class="node">
<title>web</title>
<path fill="#e3f2fd" stroke="black" d="M151.38,-290.75C151.38,-290.75 116.62,-290.75 116.62,-290.75 110.62,-290.75 104.62,-284.75 104.62,-278.75 104.62,-278.75 104.62,-266.75 104.62,-266.75 104.62,-260.75 110.62,-254.75 116.62,-254.75 116.62,-254.75 151.38,-254.75 151.38,-254.75 157.38,-254.75 163.38,-260.75 163.38,-266.75 163.38,-266.75 163.38,-278.75 163.38,-278.75 163.38,-284.75 157.38,-290.75 151.38,-290.75"/>
<text text-anchor="middle" x="134" y="-269.62" font-family="Helvetica,sans-Serif" font-size="10.00">Web App</text>
</g>
<!-- gateway -->
<g id="node3" class="node">
<title>gateway</title>
<path fill="#e3f2fd" stroke="black" d="M100.12,-208.5C100.12,-208.5 45.88,-208.5 45.88,-208.5 39.88,-208.5 33.88,-202.5 33.88,-196.5 33.88,-196.5 33.88,-184.5 33.88,-184.5 33.88,-178.5 39.88,-172.5 45.88,-172.5 45.88,-172.5 100.12,-172.5 100.12,-172.5 106.12,-172.5 112.12,-178.5 112.12,-184.5 112.12,-184.5 112.12,-196.5 112.12,-196.5 112.12,-202.5 106.12,-208.5 100.12,-208.5"/>
<text text-anchor="middle" x="73" y="-187.38" font-family="Helvetica,sans-Serif" font-size="10.00">API Gateway</text>
</g>
<!-- web&#45;&gt;gateway -->
<g id="edge1" class="edge">
<title>web&#45;&gt;gateway</title>
<path fill="none" stroke="black" d="M120.76,-254.34C112.69,-243.72 102.21,-229.93 93.13,-217.98"/>
<polygon fill="black" stroke="black" points="95.96,-215.93 87.13,-210.08 90.39,-220.16 95.96,-215.93"/>
</g>
<!-- mobile -->
<g id="node2" class="node">
<title>mobile</title>
<path fill="#e3f2fd" stroke="black" d="M74.38,-290.75C74.38,-290.75 27.62,-290.75 27.62,-290.75 21.63,-290.75 15.62,-284.75 15.62,-278.75 15.62,-278.75 15.62,-266.75 15.62,-266.75 15.62,-260.75 21.62,-254.75 27.62,-254.75 27.62,-254.75 74.38,-254.75 74.38,-254.75 80.38,-254.75 86.38,-260.75 86.38,-266.75 86.38,-266.75 86.38,-278.75 86.38,-278.75 86.38,-284.75 80.38,-290.75 74.38,-290.75"/>
<text text-anchor="middle" x="51" y="-269.62" font-family="Helvetica,sans-Serif" font-size="10.00">Mobile App</text>
</g>
<!-- mobile&#45;&gt;gateway -->
<g id="edge2" class="edge">
<title>mobile&#45;&gt;gateway</title>
<path fill="none" stroke="black" d="M55.77,-254.34C58.54,-244.24 62.09,-231.29 65.25,-219.76"/>
<polygon fill="black" stroke="black" points="68.57,-220.91 67.84,-210.34 61.82,-219.06 68.57,-220.91"/>
</g>
<!-- auth -->
<g id="node4" class="node">
<title>auth</title>
<path fill="#e3f2fd" stroke="black" d="M99.75,-134.25C99.75,-134.25 46.25,-134.25 46.25,-134.25 40.25,-134.25 34.25,-128.25 34.25,-122.25 34.25,-122.25 34.25,-110.25 34.25,-110.25 34.25,-104.25 40.25,-98.25 46.25,-98.25 46.25,-98.25 99.75,-98.25 99.75,-98.25 105.75,-98.25 111.75,-104.25 111.75,-110.25 111.75,-110.25 111.75,-122.25 111.75,-122.25 111.75,-128.25 105.75,-134.25 99.75,-134.25"/>
<text text-anchor="middle" x="73" y="-113.12" font-family="Helvetica,sans-Serif" font-size="10.00">Auth Service</text>
</g>
<!-- gateway&#45;&gt;auth -->
<g id="edge3" class="edge">
<title>gateway&#45;&gt;auth</title>
<path fill="none" stroke="black" d="M73,-172.01C73,-164.2 73,-154.79 73,-145.99"/>
<polygon fill="black" stroke="black" points="76.5,-146.09 73,-136.09 69.5,-146.09 76.5,-146.09"/>
</g>
<!-- user_svc -->
<g id="node5" class="node">
<title>user_svc</title>
<path fill="#e3f2fd" stroke="black" d="M431.75,-134.25C431.75,-134.25 378.25,-134.25 378.25,-134.25 372.25,-134.25 366.25,-128.25 366.25,-122.25 366.25,-122.25 366.25,-110.25 366.25,-110.25 366.25,-104.25 372.25,-98.25 378.25,-98.25 378.25,-98.25 431.75,-98.25 431.75,-98.25 437.75,-98.25 443.75,-104.25 443.75,-110.25 443.75,-110.25 443.75,-122.25 443.75,-122.25 443.75,-128.25 437.75,-134.25 431.75,-134.25"/>
<text text-anchor="middle" x="405" y="-113.12" font-family="Helvetica,sans-Serif" font-size="10.00">User Service</text>
</g>
<!-- gateway&#45;&gt;user_svc -->
<g id="edge4" class="edge">
<title>gateway&#45;&gt;user_svc</title>
<path fill="none" stroke="black" d="M112.45,-189.29C175.1,-188.46 295.44,-184.71 346.41,-168.52"/>
<polygon fill="black" stroke="black" points="347.48,-171.86 355.58,-165.04 344.99,-165.31 347.48,-171.86"/>
</g>
<!-- postgres -->
<g id="node8" class="node">
<title>postgres</title>
<path fill="#e3f2fd" stroke="black" d="M437.75,-48.73C437.75,-50.53 421.73,-52 402,-52 382.27,-52 366.25,-50.53 366.25,-48.73 366.25,-48.73 366.25,-19.27 366.25,-19.27 366.25,-17.47 382.27,-16 402,-16 421.73,-16 437.75,-17.47 437.75,-19.27 437.75,-19.27 437.75,-48.73 437.75,-48.73"/>
<path fill="none" stroke="black" d="M437.75,-48.73C437.75,-46.92 421.73,-45.45 402,-45.45 382.27,-45.45 366.25,-46.92 366.25,-48.73"/>
<text text-anchor="middle" x="402" y="-30.88" font-family="Helvetica,sans-Serif" font-size="10.00">PostgreSQL</text>
</g>
<!-- user_svc&#45;&gt;postgres -->
<g id="edge5" class="edge">
<title>user_svc&#45;&gt;postgres</title>
<path fill="none" stroke="black" d="M404.35,-97.84C403.98,-87.85 403.5,-75.06 403.07,-63.62"/>
<polygon fill="black" stroke="black" points="406.58,-63.75 402.71,-53.89 399.58,-64.02 406.58,-63.75"/>
</g>
<!-- order_svc -->
<g id="node6" class="node">
<title>order_svc</title>
<path fill="#e3f2fd" stroke="black" d="M336,-134.25C336,-134.25 278,-134.25 278,-134.25 272,-134.25 266,-128.25 266,-122.25 266,-122.25 266,-110.25 266,-110.25 266,-104.25 272,-98.25 278,-98.25 278,-98.25 336,-98.25 336,-98.25 342,-98.25 348,-104.25 348,-110.25 348,-110.25 348,-122.25 348,-122.25 348,-128.25 342,-134.25 336,-134.25"/>
<text text-anchor="middle" x="307" y="-113.12" font-family="Helvetica,sans-Serif" font-size="10.00">Order Service</text>
</g>
<!-- order_svc&#45;&gt;postgres -->
<g id="edge6" class="edge">
<title>order_svc&#45;&gt;postgres</title>
<path fill="none" stroke="black" d="M335.83,-97.82C342.98,-93.07 350.46,-87.72 357,-82.25 364.87,-75.67 372.8,-67.83 379.77,-60.45"/>
<polygon fill="black" stroke="black" points="382.23,-62.94 386.42,-53.21 377.08,-58.21 382.23,-62.94"/>
</g>
<!-- redis -->
<g id="node9" class="node">
<title>redis</title>
<path fill="#e3f2fd" stroke="black" d="M348,-48.73C348,-50.53 335.9,-52 321,-52 306.1,-52 294,-50.53 294,-48.73 294,-48.73 294,-19.27 294,-19.27 294,-17.47 306.1,-16 321,-16 335.9,-16 348,-17.47 348,-19.27 348,-19.27 348,-48.73 348,-48.73"/>
<path fill="none" stroke="black" d="M348,-48.73C348,-46.92 335.9,-45.45 321,-45.45 306.1,-45.45 294,-46.92 294,-48.73"/>
<text text-anchor="middle" x="321" y="-30.88" font-family="Helvetica,sans-Serif" font-size="10.00">Redis</text>
</g>
<!-- order_svc&#45;&gt;redis -->
<g id="edge7" class="edge">
<title>order_svc&#45;&gt;redis</title>
<path fill="none" stroke="black" d="M310.04,-97.84C311.78,-87.85 314.01,-75.06 316.01,-63.62"/>
<polygon fill="black" stroke="black" points="319.44,-64.32 317.71,-53.87 312.54,-63.12 319.44,-64.32"/>
</g>
<!-- queue -->
<g id="node10" class="node">
<title>queue</title>
<path fill="#e3f2fd" stroke="black" d="M264.33,-52C264.33,-52 154.18,-52 154.18,-52 148.18,-52 138.03,-47.67 133.88,-43.34 133.88,-43.34 115.98,-24.66 115.98,-24.66 111.82,-20.33 113.67,-16 119.67,-16 119.67,-16 229.82,-16 229.82,-16 235.82,-16 245.97,-20.33 250.12,-24.66 250.12,-24.66 268.02,-43.34 268.02,-43.34 272.18,-47.67 270.33,-52 264.33,-52"/>
<text text-anchor="middle" x="192" y="-30.88" font-family="Helvetica,sans-Serif" font-size="10.00">Message Queue</text>
</g>
<!-- order_svc&#45;&gt;queue -->
<g id="edge8" class="edge">
<title>order_svc&#45;&gt;queue</title>
<path fill="none" stroke="black" d="M282.05,-97.84C265.62,-86.37 243.91,-71.22 225.92,-58.67"/>
<polygon fill="black" stroke="black" points="228.35,-56.1 218.15,-53.25 224.34,-61.84 228.35,-56.1"/>
</g>
<!-- notify_svc -->
<g id="node7" class="node">
<title>notify_svc</title>
<path fill="#e3f2fd" stroke="black" d="M235.62,-134.25C235.62,-134.25 148.38,-134.25 148.38,-134.25 142.38,-134.25 136.38,-128.25 136.38,-122.25 136.38,-122.25 136.38,-110.25 136.38,-110.25 136.38,-104.25 142.38,-98.25 148.38,-98.25 148.38,-98.25 235.62,-98.25 235.62,-98.25 241.62,-98.25 247.62,-104.25 247.62,-110.25 247.62,-110.25 247.62,-122.25 247.62,-122.25 247.62,-128.25 241.62,-134.25 235.62,-134.25"/>
<text text-anchor="middle" x="192" y="-113.12" font-family="Helvetica,sans-Serif" font-size="10.00">Notification Service</text>
</g>
<!-- notify_svc&#45;&gt;queue -->
<g id="edge9" class="edge">
<title>notify_svc&#45;&gt;queue</title>
<path fill="none" stroke="black" d="M192,-86.59C192,-75.15 192,-62.36 192,-52.38"/>
<polygon fill="black" stroke="black" points="188.5,-86.32 192,-96.32 195.5,-86.32 188.5,-86.32"/>
</g>
</g>
</svg>
