<?xml version="1.0" encoding="UTF-8" standalone="no"?>
<!DOCTYPE svg PUBLIC "-//W3C//DTD SVG 1.1//EN"
 "http://www.w3.org/Graphics/SVG/1.1/DTD/svg11.dtd">
<!-- Generated by graphviz version 9.0.0 (20230911.1827)
 -->
<!-- Title: DependencyGraph Pages: 1 -->
<svg width="319pt" height="273pt"
 viewBox="0.00 0.00 319.25 273.25" xmlns="http://www.w3.org/2000/svg" xmlns:xlink="http://www.w3.org/1999/xlink">
<g id="graph0" class="graph" transform="scale(1 1) rotate(0) translate(4 269.25)">
<title>DependencyGraph</title>
<polygon fill="white" stroke="none" points="-4,4 -4,-269.25 315.25,-269.25 315.25,4 -4,4"/>
<!-- app -->
<g id="node1" class="node">
<title>app</title>
<path fill="#bbdefb" stroke="black" d="M215.88,-265.25C215.88,-265.25 169.12,-265.25 169.12,-265.25 163.12,-265.25 157.12,-259.25 157.12,-253.25 157.12,-253.25 157.12,-241.25 157.12,-241.25 157.12,-235.25 163.12,-229.25 169.12,-229.25 169.12,-229.25 215.88,-229.25 215.88,-229.25 221.88,-229.25 227.88,-235.25 227.88,-241.25 227.88,-241.25 227.88,-253.25 227.88,-253.25 227.88,-259.25 221.88,-265.25 215.88,-265.25"/>
<text text-anchor="middle" x="192.5" y="-244.12" font-family="Helvetica,sans-Serif" font-size="10.00">Application</text>
</g>
<!-- api -->
<g id="node2" class="node">
<title>api</title>
<path fill="#e3f2fd" stroke="black" d="M170.88,-182C170.88,-182 124.12,-182 124.12,-182 118.12,-182 112.12,-176 112.12,-170 112.12,-170 112.12,-158 112.12,-158 112.12,-152 118.12,-146 124.12,-146 124.12,-146 170.88,-146 170.88,-146 176.88,-146 182.88,-152 182.88,-158 182.88,-158 182.88,-170 182.88,-170 182.88,-176 176.88,-182 170.88,-182"/>
<text text-anchor="middle" x="147.5" y="-160.88" font-family="Helvetica,sans-Serif" font-size="10.00">API Module</text>
</g>
<!-- app&#45;&gt;api -->
<g id="edge1" class="edge">
<title>app&#45;&gt;api</title>
<path fill="none" stroke="#666666" d="M182.96,-229.02C177.09,-218.43 169.44,-204.62 162.75,-192.53"/>
<polygon fill="#666666" stroke="#666666" points="165.82,-190.86 157.92,-183.81 159.7,-194.25 165.82,-190.86"/>
<text text-anchor="middle" x="183.62" y="-202.7" font-family="Helvetica,sans-Serif" font-size="9.00">uses</text>
</g>
<!-- auth -->
<g id="node3" class="node">
<title>auth</title>
<path fill="#e3f2fd" stroke="black" d="M266.25,-182C266.25,-182 212.75,-182 212.75,-182 206.75,-182 200.75,-176 200.75,-170 200.75,-170 200.75,-158 200.75,-158 200.75,-152 206.75,-146 212.75,-146 212.75,-146 266.25,-146 266.25,-146 272.25,-146 278.25,-152 278.25,-158 278.25,-158 278.25,-170 278.25,-170 278.25,-176 272.25,-182 266.25,-182"/>
<text text-anchor="middle" x="239.5" y="-160.88" font-family="Helvetica,sans-Serif" font-size="10.00">Auth Module</text>
</g>
<!-- app&#45;&gt;auth -->
<g id="edge2" class="edge">
<title>app&#45;&gt;auth</title>
<path fill="none" stroke="#666666" d="M202.47,-229.02C208.66,-218.32 216.75,-204.34 223.78,-192.17"/>
<polygon fill="#666666" stroke="#666666" points="226.65,-194.21 228.63,-183.8 220.59,-190.7 226.65,-194.21"/>
</g>
<!-- db -->
<g id="node4" class="node">
<title>db</title>
<path fill="#e3f2fd" stroke="black" d="M299.25,-109C299.25,-109 221.75,-109 221.75,-109 215.75,-109 209.75,-103 209.75,-97 209.75,-97 209.75,-85 209.75,-85 209.75,-79 215.75,-73 221.75,-73 221.75,-73 299.25,-73 299.25,-73 305.25,-73 311.25,-79 311.25,-85 311.25,-85 311.25,-97 311.25,-97 311.25,-103 305.25,-109 299.25,-109"/>
<text text-anchor="middle" x="260.5" y="-87.88" font-family="Helvetica,sans-Serif" font-size="10.00">Database Module</text>
</g>
<!-- api&#45;&gt;db -->
<g id="edge3" class="edge">
<title>api&#45;&gt;db</title>
<path fill="none" stroke="#666666" d="M175.14,-145.63C189.64,-136.52 207.61,-125.23 223.32,-115.36"/>
<polygon fill="#666666" stroke="#666666" points="224.86,-118.52 231.47,-110.24 221.14,-112.6 224.86,-118.52"/>
</g>
<!-- cache -->
<g id="node5" class="node">
<title>cache</title>
<path fill="#e3f2fd" stroke="black" d="M73,-109C73,-109 12,-109 12,-109 6,-109 0,-103 0,-97 0,-97 0,-85 0,-85 0,-79 6,-73 12,-73 12,-73 73,-73 73,-73 79,-73 85,-79 85,-85 85,-85 85,-97 85,-97 85,-103 79,-109 73,-109"/>
<text text-anchor="middle" x="42.5" y="-87.88" font-family="Helvetica,sans-Serif" font-size="10.00">Cache Module</text>
</g>
<!-- api&#45;&gt;cache -->
<g id="edge4" class="edge">
<title>api&#45;&gt;cache</title>
<path fill="none" stroke="#666666" d="M121.81,-145.63C108.47,-136.61 91.96,-125.44 77.46,-115.64"/>
<polygon fill="#666666" stroke="#666666" points="79.78,-112.99 69.54,-110.28 75.86,-118.78 79.78,-112.99"/>
</g>
<!-- logger -->
<g id="node6" class="node">
<title>logger</title>
<path fill="#c8e6c9" stroke="black" d="M179.5,-109C179.5,-109 115.5,-109 115.5,-109 109.5,-109 103.5,-103 103.5,-97 103.5,-97 103.5,-85 103.5,-85 103.5,-79 109.5,-73 115.5,-73 115.5,-73 179.5,-73 179.5,-73 185.5,-73 191.5,-79 191.5,-85 191.5,-85 191.5,-97 191.5,-97 191.5,-103 185.5,-109 179.5,-109"/>
<text text-anchor="middle" x="147.5" y="-87.88" font-family="Helvetica,sans-Serif" font-size="10.00">Logger Module</text>
</g>
<!-- api&#45;&gt;logger -->
<g id="edge5" class="edge">
<title>api&#45;&gt;logger</title>
<path fill="none" stroke="#666666" d="M147.5,-145.81C147.5,-138.23 147.5,-129.1 147.5,-120.54"/>
<polygon fill="#666666" stroke="#666666" points="151,-120.54 147.5,-110.54 144,-120.54 151,-120.54"/>
</g>
<!-- auth&#45;&gt;db -->
<g id="edge6" class="edge">
<title>auth&#45;&gt;db</title>
<path fill="none" stroke="#666666" d="M244.58,-145.81C246.88,-138.05 249.65,-128.68 252.23,-119.95"/>
<polygon fill="#666666" stroke="#666666" points="255.55,-121.06 255.03,-110.48 248.84,-119.08 255.55,-121.06"/>
</g>
<!-- auth&#45;&gt;logger -->
<g id="edge7" class="edge">
<title>auth&#45;&gt;logger</title>
<path fill="none" stroke="#666666" d="M217.23,-145.81C205.68,-136.9 191.37,-125.86 178.73,-116.1"/>
<polygon fill="#666666" stroke="#666666" points="181.14,-113.54 171.08,-110.2 176.86,-119.08 181.14,-113.54"/>
</g>
<!-- config -->
<g id="node7" class="node">
<title>config</title>
<path fill="#c8e6c9" stroke="black" d="M178.38,-36C178.38,-36 116.62,-36 116.62,-36 110.62,-36 104.62,-30 104.62,-24 104.62,-24 104.62,-12 104.62,-12 104.62,-6 110.62,0 116.62,0 116.62,0 178.38,0 178.38,0 184.38,0 190.38,-6 190.38,-12 190.38,-12 190.38,-24 190.38,-24 190.38,-30 184.38,-36 178.38,-36"/>
<text text-anchor="middle" x="147.5" y="-14.88" font-family="Helvetica,sans-Serif" font-size="10.00">Config Module</text>
</g>
<!-- db&#45;&gt;config -->
<g id="edge8" class="edge">
<title>db&#45;&gt;config</title>
<path fill="none" stroke="#666666" d="M232.86,-72.63C218.36,-63.52 200.39,-52.23 184.68,-42.36"/>
<polygon fill="#666666" stroke="#666666" points="186.86,-39.6 176.53,-37.24 183.14,-45.52 186.86,-39.6"/>
</g>
<!-- cache&#45;&gt;config -->
<g id="edge9" class="edge">
<title>cache&#45;&gt;config</title>
<path fill="none" stroke="#666666" d="M68.19,-72.63C81.53,-63.61 98.04,-52.44 112.54,-42.64"/>
<polygon fill="#666666" stroke="#666666" points="114.14,-45.78 120.46,-37.28 110.22,-39.99 114.14,-45.78"/>
</g>
<!-- logger&#45;&gt;config -->
<g id="edge10" class="edge">
<title>logger&#45;&gt;config</title>
<path fill="none" stroke="#666666" d="M147.5,-72.81C147.5,-65.23 147.5,-56.1 147.5,-47.54"/>
<polygon fill="#666666" stroke="#666666" points="151,-47.54 147.5,-37.54 144,-47.54 151,-47.54"/>
</g>
</g>
</svg>
