<?xml version="1.0" encoding="UTF-8" standalone="no"?>
<!DOCTYPE svg PUBLIC "-//W3C//DTD SVG 1.1//EN"
 "http://www.w3.org/Graphics/SVG/1.1/DTD/svg11.dtd">
<!-- Generated by graphviz version 9.0.0 (20230911.1827)
 -->
<!-- Title: NetworkDiagram Pages: 1 -->
<svg width="235pt" height="190pt"
 viewBox="0.00 0.00 234.90 189.62" xmlns="http://www.w3.org/2000/svg" xmlns:xlink="http://www.w3.org/1999/xlink">
<g id="graph0" class="graph" transform="scale(1 1) rotate(0) translate(4 185.62)">
<title>NetworkDiagram</title>
<polygon fill="white" stroke="none" points="-4,4 -4,-185.62 230.9,-185.62 230.9,4 -4,4"/>
<!-- router -->
<g id="node1" class="node">
<title>router</title>
<polygon fill="#ffccbc" stroke="black" points="124.38,-103.28 82.63,-85.28 124.38,-67.28 166.13,-85.28 124.38,-103.28"/>
<text text-anchor="middle" x="124.38" y="-82.16" font-family="Helvetica,sans-Serif" font-size="10.00">Router</text>
</g>
<!-- server1 -->
<g id="node2" class="node">
<title>server1</title>
<polygon fill="#c8e6c9" stroke="black" points="202.07,-36.69 145.57,-36.69 145.57,-0.69 202.07,-0.69 202.07,-36.69"/>
<text text-anchor="middle" x="173.82" y="-15.57" font-family="Helvetica,sans-Serif" font-size="10.00">Server 1</text>
</g>
<!-- router&#45;&#45;server1 -->
<g id="edge1" class="edge">
<title>router&#45;&#45;server1</title>
<path fill="none" stroke="#666666" d="M134.62,-71.48C142.09,-61.43 152.28,-47.71 160.39,-36.77"/>
<text text-anchor="middle" x="132.64" y="-57.16" font-family="Helvetica,sans-Serif" font-size="9.00">1Gbps</text>
</g>
<!-- server2 -->
<g id="node3" class="node">
<title>server2</title>
<polygon fill="#c8e6c9" stroke="black" points="135.2,-36 78.7,-36 78.7,0 135.2,0 135.2,-36"/>
<text text-anchor="middle" x="106.95" y="-14.88" font-family="Helvetica,sans-Serif" font-size="10.00">Server 2</text>
</g>
<!-- router&#45;&#45;server2 -->
<g id="edge2" class="edge">
<title>router&#45;&#45;server2</title>
<path fill="none" stroke="#666666" d="M120.07,-68.65C117.53,-58.84 114.31,-46.42 111.7,-36.33"/>
<text text-anchor="middle" x="101.29" y="-55.3" font-family="Helvetica,sans-Serif" font-size="9.00">1Gbps</text>
</g>
<!-- server3 -->
<g id="node4" class="node">
<title>server3</title>
<polygon fill="#c8e6c9" stroke="black" points="64.98,-125.67 8.48,-125.67 8.48,-89.67 64.98,-89.67 64.98,-125.67"/>
<text text-anchor="middle" x="36.73" y="-104.55" font-family="Helvetica,sans-Serif" font-size="10.00">Server 3</text>
</g>
<!-- router&#45;&#45;server3 -->
<g id="edge3" class="edge">
<title>router&#45;&#45;server3</title>
<path fill="none" stroke="#666666" d="M97.6,-92.12C87.43,-94.72 75.81,-97.69 65.47,-100.33"/>
<text text-anchor="middle" x="66.98" y="-87.66" font-family="Helvetica,sans-Serif" font-size="9.00">1Gbps</text>
</g>
<!-- server1&#45;&#45;server2 -->
<g id="edge4" class="edge">
<title>server1&#45;&#45;server2</title>
<path fill="none" stroke="#666666" stroke-dasharray="5,2" d="M145.07,-18.4C141.96,-18.36 138.78,-18.33 135.67,-18.3"/>
<text text-anchor="middle" x="145.62" y="-9.8" font-family="Helvetica,sans-Serif" font-size="9.00">sync</text>
</g>
<!-- server2&#45;&#45;server3 -->
<g id="edge5" class="edge">
<title>server2&#45;&#45;server3</title>
<path fill="none" stroke="#666666" stroke-dasharray="5,2" d="M92.74,-36.15C80.64,-51.6 63.32,-73.71 51.16,-89.24"/>
<text text-anchor="middle" x="61.47" y="-65.37" font-family="Helvetica,sans-Serif" font-size="9.00">sync</text>
</g>
<!-- client1 -->
<g id="node5" class="node">
<title>client1</title>
<ellipse fill="#fff9c4" stroke="black" cx="193.71" cy="-116.76" rx="33.19" ry="18"/>
<text text-anchor="middle" x="193.71" y="-113.64" font-family="Helvetica,sans-Serif" font-size="10.00">Client A</text>
</g>
<!-- client1&#45;&#45;router -->
<g id="edge6" class="edge">
<title>client1&#45;&#45;router</title>
<path fill="none" stroke="#666666" d="M167.89,-105.04C160.35,-101.61 152.2,-97.92 145.02,-94.66"/>
</g>
<!-- client2 -->
<g id="node6" class="node">
<title>client2</title>
<ellipse fill="#fff9c4" stroke="black" cx="107.42" cy="-163.62" rx="33.19" ry="18"/>
<text text-anchor="middle" x="107.42" y="-160.49" font-family="Helvetica,sans-Serif" font-size="10.00">Client B</text>
</g>
<!-- client2&#45;&#45;router -->
<g id="edge7" class="edge">
<title>client2&#45;&#45;router</title>
<path fill="none" stroke="#666666" d="M111.35,-145.45C114.19,-132.34 117.99,-114.78 120.76,-102.01"/>
</g>
<!-- client3 -->
<g id="node7" class="node">
<title>client3</title>
<ellipse fill="#fff9c4" stroke="black" cx="33.19" cy="-24.04" rx="33.19" ry="18"/>
<text text-anchor="middle" x="33.19" y="-20.92" font-family="Helvetica,sans-Serif" font-size="10.00">Client C</text>
</g>
<!-- client3&#45;&#45;router -->
<g id="edge8" class="edge">
<title>client3&#45;&#45;router</title>
<path fill="none" stroke="#666666" d="M54.34,-38.25C70.55,-49.13 92.6,-63.94 107.6,-74.01"/>
</g>
</g>
</svg>
