<svg id="container" width="100%" xmlns="http://www.w3.org/2000/svg" style="max-width: 885px;" viewBox="-8 -18 885 486" role="graphics-document document" aria-roledescription="gitGraph"><style>#container{font-family:"trebuchet ms",verdana,arial,sans-serif;font-size:16px;fill:#333;}@keyframes edge-animation-frame{from{stroke-dashoffset:0;}}@keyframes dash{to{stroke-dashoffset:0;}}#container .edge-animation-slow{stroke-dasharray:9,5!important;stroke-dashoffset:900;animation:dash 50s linear infinite;stroke-linecap:round;}#container .edge-animation-fast{stroke-dasharray:9,5!important;stroke-dashoffset:900;animation:dash 20s linear infinite;stroke-linecap:round;}#container .error-icon{fill:hsl(220.5882352941, 100%, 98.3333333333%);}#container .error-text{fill:rgb(8.5000000002, 5.7500000001, 0);stroke:rgb(8.5000000002, 5.7500000001, 0);}#container .edge-thickness-normal{stroke-width:1px;}#container .edge-thickness-thick{stroke-width:3.5px;}#container .edge-pattern-solid{stroke-dasharray:0;}#container .edge-thickness-invisible{stroke-width:0;fill:none;}#container .edge-pattern-dashed{stroke-dasharray:3;}#container .edge-pattern-dotted{stroke-dasharray:2;}#container .marker{fill:#0b0b0b;stroke:#0b0b0b;}#container .marker.cross{stroke:#0b0b0b;}#container svg{font-family:"trebuchet ms",verdana,arial,sans-serif;font-size:16px;}#container p{margin:0;}#container .commit-id,#container .commit-msg,#container .branch-label{fill:lightgrey;color:lightgrey;font-family:'trebuchet ms',verdana,arial,sans-serif;font-family:var(--mermaid-font-family);}#container .branch-label0{fill:#333;}#container .commit0{stroke:hsl(40.5882352941, 100%, 68.3333333333%);fill:hsl(40.5882352941, 100%, 68.3333333333%);}#container .commit-highlight0{stroke:rgb(0, 52.2500000001, 161.5000000002);fill:rgb(0, 52.2500000001, 161.5000000002);}#container .label0{fill:hsl(40.5882352941, 100%, 68.3333333333%);}#container .arrow0{stroke:hsl(40.5882352941, 100%, 68.3333333333%);}#container .branch-label1{fill:#333;}#container .commit1{stroke:hsl(-79.4117647059, 100%, 68.3333333333%);fill:hsl(-79.4117647059, 100%, 68.3333333333%);}#container .commit-highlight1{stroke:rgb(52.2500000001, 161.5000000002, 0);fill:rgb(52.2500000001, 161.5000000002, 0);}#container .label1{fill:hsl(-79.4117647059, 100%, 68.3333333333%);}#container .arrow1{stroke:hsl(-79.4117647059, 100%, 68.3333333333%);}#container .branch-label2{fill:#333;}#container .commit2{stroke:hsl(220.5882352941, 100%, 73.3333333333%);fill:hsl(220.5882352941, 100%, 73.3333333333%);}#container .commit-highlight2{stroke:rgb(136.0000000002, 92.0000000001, 0);fill:rgb(136.0000000002, 92.0000000001, 0);}#container .label2{fill:hsl(220.5882352941, 100%, 73.3333333333%);}#container .arrow2{stroke:hsl(220.5882352941, 100%, 73.3333333333%);}#container .branch-label3{fill:#333;}#container .commit3{stroke:hsl(10.5882352941, 100%, 68.3333333333%);fill:hsl(10.5882352941, 100%, 68.3333333333%);}#container .commit-highlight3{stroke:rgb(0, 133.0000000002, 161.5000000002);fill:rgb(0, 133.0000000002, 161.5000000002);}#container .label3{fill:hsl(10.5882352941, 100%, 68.3333333333%);}#container .arrow3{stroke:hsl(10.5882352941, 100%, 68.3333333333%);}#container .branch-label4{fill:#333;}#container .commit4{stroke:hsl(-19.4117647059, 100%, 68.3333333333%);fill:hsl(-19.4117647059, 100%, 68.3333333333%);}#container .commit-highlight4{stroke:rgb(0, 161.5000000002, 109.2500000001);fill:rgb(0, 161.5000000002, 109.2500000001);}#container .label4{fill:hsl(-19.4117647059, 100%, 68.3333333333%);}#container .arrow4{stroke:hsl(-19.4117647059, 100%, 68.3333333333%);}#container .branch-label5{fill:#333;}#container .commit5{stroke:hsl(-49.4117647059, 100%, 68.3333333333%);fill:hsl(-49.4117647059, 100%, 68.3333333333%);}#container .commit-highlight5{stroke:rgb(0, 161.5000000002, 28.5);fill:rgb(0, 161.5000000002, 28.5);}#container .label5{fill:hsl(-49.4117647059, 100%, 68.3333333333%);}#container .arrow5{stroke:hsl(-49.4117647059, 100%, 68.3333333333%);}#container .branch-label6{fill:#333;}#container .commit6{stroke:hsl(100.5882352941, 100%, 68.3333333333%);fill:hsl(100.5882352941, 100%, 68.3333333333%);}#container .commit-highlight6{stroke:rgb(109.2500000001, 0, 161.5000000002);fill:rgb(109.2500000001, 0, 161.5000000002);}#container .label6{fill:hsl(100.5882352941, 100%, 68.3333333333%);}#container .arrow6{stroke:hsl(100.5882352941, 100%, 68.3333333333%);}#container .branch-label7{fill:#333;}#container .commit7{stroke:hsl(160.5882352941, 100%, 68.3333333333%);fill:hsl(160.5882352941, 100%, 68.3333333333%);}#container .commit-highlight7{stroke:rgb(161.5000000002, 0, 52.2500000001);fill:rgb(161.5000000002, 0, 52.2500000001);}#container .label7{fill:hsl(160.5882352941, 100%, 68.3333333333%);}#container .arrow7{stroke:hsl(160.5882352941, 100%, 68.3333333333%);}#container .branch{stroke-width:1;stroke:#0b0b0b;stroke-dasharray:2;}#container .commit-label{font-size:10px;fill:rgb(11.0000000001, 34.0000000002, 0);}#container .commit-label-bkg{font-size:10px;fill:hsl(-79.4117647059, 100%, 93.3333333333%);opacity:0.5;}#container .tag-label{font-size:10px;fill:#333;}#container .tag-label-bkg{fill:#fff4dd;stroke:hsl(40.5882352941, 60%, 83.3333333333%);}#container .tag-hole{fill:#333;}#container .commit-merge{stroke:#fff4dd;fill:#fff4dd;}#container .commit-reverse{stroke:#fff4dd;fill:#fff4dd;stroke-width:3;}#container .commit-highlight-inner{stroke:#fff4dd;fill:#fff4dd;}#container .arrow{stroke-width:8;stroke-linecap:round;fill:none;}#container .gitTitleText{text-anchor:middle;font-size:18px;fill:#333;}#container :root{--mermaid-font-family:"trebuchet ms",verdana,arial,sans-serif;}</style><g></g><g class="commit-bullets"></g><g class="commit-labels"></g><g class="commit-arrows"><path d="M 10 0 L 10 70 A 20 20, 0, 0, 0, 30 90 L 60 90" class="arrow arrow1"></path><path d="M 60 90 L 60 160 A 20 20, 0, 0, 0, 80 180 L 110 180" class="arrow arrow2"></path><path d="M 110 180 L 110 250 A 20 20, 0, 0, 0, 130 270 L 160 270" class="arrow arrow3"></path><path d="M 60 90 L 210 90" class="arrow arrow1"></path><path d="M 110 180 L 260 180" class="arrow arrow2"></path><path d="M 160 270 L 310 270" class="arrow arrow3"></path><path d="M 10 0 L 360 0" class="arrow arrow0"></path><path d="M 210 90 L 340 90 A 20 20, 0, 0, 0, 360 70 L 360 0" class="arrow arrow1"></path><path d="M 310 270 L 410 270" class="arrow arrow3"></path><path d="M 260 180 L 260 340 A 20 20, 0, 0, 0, 280 360 L 460 360" class="arrow arrow4"></path><path d="M 260 180 L 510 180" class="arrow arrow2"></path><path d="M 210 90 L 210 125 A 10 10, 0, 0, 0, 220 135 L 500 135 A 10 10, 0, 0, 1, 510 145 L 510 180" class="arrow arrow1"></path><path d="M 460 360 L 560 360" class="arrow arrow4"></path><path d="M 410 270 L 610 270" class="arrow arrow3"></path><path d="M 510 180 L 660 180" class="arrow arrow2"></path><path d="M 560 360 L 640 360 A 20 20, 0, 0, 0, 660 340 L 660 180" class="arrow arrow4"></path><path d="M 660 180 L 660 430 A 20 20, 0, 0, 0, 680 450 L 710 450" class="arrow arrow5"></path><path d="M 360 0 L 760 0" class="arrow arrow0"></path><path d="M 710 450 L 810 450" class="arrow arrow5"></path><path d="M 760 0 L 790 0 A 20 20, 0, 0, 1, 810 20 L 810 450" class="arrow arrow0"></path><path d="M 660 180 L 860 180" class="arrow arrow2"></path><path d="M 810 450 L 840 450 A 20 20, 0, 0, 0, 860 430 L 860 180" class="arrow arrow5"></path></g><g class="commit-bullets"><circle cx="10" cy="0" r="10" class="commit 0-35bd87b commit0"></circle><circle cx="60" cy="90" r="10" class="commit 1-4a90928 commit1"></circle><circle cx="110" cy="180" r="10" class="commit ash commit2"></circle><rect x="150" y="260" width="20" height="20" class="commit 3-25ae711 commit-highlight3 commit-highlight-outer"></rect><rect x="154" y="264" width="12" height="12" class="commit 3-25ae711 commit3 commit-highlight-inner"></rect><circle cx="210" cy="90" r="10" class="commit 4-e033e7b commit1"></circle><circle cx="260" cy="180" r="10" class="commit 5-79b3fc3 commit2"></circle><path d="M 255,175L265,185M255,185L265,175" class="commit commit-reverse 5-79b3fc3 commit2"></path><circle cx="310" cy="270" r="10" class="commit 6-135d458 commit3"></circle><circle cx="360" cy="0" r="9" class="commit 7-07e71bf commit0"></circle><circle cx="360" cy="0" r="6" class="commit commit-merge 7-07e71bf commit0"></circle><circle cx="410" cy="270" r="10" class="commit 8-5bb31f3 commit3"></circle><circle cx="460" cy="360" r="10" class="commit 9-f577443 commit4"></circle><circle cx="510" cy="180" r="9" class="commit 10-7bd8b33 commit2"></circle><circle cx="510" cy="180" r="6" class="commit commit-merge 10-7bd8b33 commit2"></circle><circle cx="560" cy="360" r="10" class="commit 11-e864f6d commit4"></circle><circle cx="610" cy="270" r="10" class="commit 12-22aed79 commit3"></circle><circle cx="660" cy="180" r="9" class="commit 13-1f754e7 commit2"></circle><circle cx="660" cy="180" r="6" class="commit commit-merge 13-1f754e7 commit2"></circle><circle cx="710" cy="450" r="10" class="commit 14-20cff01 commit5"></circle><circle cx="760" cy="0" r="10" class="commit 15-ef931c9 commit0"></circle><circle cx="810" cy="450" r="9" class="commit 16-567bbc2 commit5"></circle><circle cx="810" cy="450" r="6" class="commit commit-merge 16-567bbc2 commit5"></circle><circle cx="860" cy="180" r="9" class="commit 17-0ee6a0b commit2"></circle><circle cx="860" cy="180" r="6" class="commit commit-merge 17-0ee6a0b commit2"></circle></g><g class="commit-labels"></g></svg>