<?xml version="1.0" encoding="UTF-8" standalone="no"?>
<!DOCTYPE svg PUBLIC "-//W3C//DTD SVG 1.1//EN"
 "http://www.w3.org/Graphics/SVG/1.1/DTD/svg11.dtd">
<!-- Generated by graphviz version 9.0.0 (20230911.1827)
 -->
<!-- Title: unix Pages: 1 -->
<svg width="432pt" height="374pt"
 viewBox="0.00 0.00 432.00 374.44" xmlns="http://www.w3.org/2000/svg" xmlns:xlink="http://www.w3.org/1999/xlink">
<g id="graph0" class="graph" transform="scale(0.308471 0.308471) rotate(0) translate(4 1209.87)">
<title>unix</title>
<polygon fill="white" stroke="none" points="-4,4 -4,-1209.87 1396.45,-1209.87 1396.45,4 -4,4"/>
<text text-anchor="middle" x="696.23" y="-55.3" font-family="Helvetica,sans-Serif" font-style="oblique" font-size="36.00">Object Oriented Graphs</text>
<text text-anchor="middle" x="696.23" y="-12.55" font-family="Helvetica,sans-Serif" font-style="oblique" font-size="36.00">Stephen North, 3/19/93</text>
<!-- 5th Edition -->
<g id="node1" class="node">
<title>5th Edition</title>
<polygon fill="#ee8262" stroke="#ee8262" points="923.51,-1183.67 935.49,-1199.08 897.67,-1205.87 811.54,-1198.6 742.24,-1184.15 747.06,-1172.75 807.53,-1167.46 864.85,-1166.51 897.84,-1171.12 923.51,-1183.67"/>
<text text-anchor="middle" x="847.52" y="-1178.57" font-family="Helvetica-Outline" font-size="14.00">5th Edition</text>
</g>
<!-- 6th Edition -->
<g id="node2" class="node">
<title>6th Edition</title>
<polygon fill="deepskyblue" stroke="deepskyblue" points="839.65,-1116.63 733.23,-1124.62 594.05,-1105.83 625.16,-1086.7 755.53,-1092.43 839.65,-1116.63"/>
<text text-anchor="middle" x="709.52" y="-1100.57" font-family="Helvetica-Outline" font-size="14.00">6th Edition</text>
</g>
<!-- 5th Edition&#45;&gt;6th Edition -->
<g id="edge1" class="edge">
<title>5th Edition&#45;&gt;6th Edition</title>
<path fill="none" stroke="black" d="M819.6,-1166.86C800.29,-1156.23 774.23,-1141.88 752.32,-1129.81"/>
<polygon fill="black" stroke="black" points="754.04,-1126.76 743.59,-1125 750.66,-1132.89 754.04,-1126.76"/>
</g>
<!-- PWB 1.0 -->
<g id="node3" class="node">
<title>PWB 1.0</title>
<polygon fill="#eeb422" stroke="#eeb422" points="1109.6,-1123.29 1065.4,-1123.13 1027.63,-1112.36 1018.42,-1097.28 1043.33,-1087 1087.76,-1087.54 1125.53,-1098.31 1134.51,-1113.01 1109.6,-1123.29"/>
<text text-anchor="middle" x="1076.52" y="-1100.57" font-family="Helvetica-Outline" font-size="14.00">PWB 1.0</text>
</g>
<!-- 5th Edition&#45;&gt;PWB 1.0 -->
<g id="edge2" class="edge">
<title>5th Edition&#45;&gt;PWB 1.0</title>
<path fill="none" stroke="black" d="M886.89,-1169.18C927.39,-1155.74 990.34,-1134.84 1032.48,-1120.86"/>
<polygon fill="black" stroke="black" points="1033.42,-1124.24 1041.81,-1117.76 1031.21,-1117.59 1033.42,-1124.24"/>
</g>
<!-- LSX -->
<g id="node4" class="node">
<title>LSX</title>
<polygon fill="#eec591" stroke="#eec591" points="998.48,-1019.52 983.97,-1029.25 956.93,-1034.52 935.85,-1034.2 921.64,-1026.38 911.98,-1012.65 917.24,-1000.79 945.96,-998.87 982.67,-1007.34 998.48,-1019.52"/>
<text text-anchor="middle" x="950.52" y="-1013.49" font-family="Helvetica-Outline" font-size="14.00">LSX</text>
</g>
<!-- 6th Edition&#45;&gt;LSX -->
<g id="edge3" class="edge">
<title>6th Edition&#45;&gt;LSX</title>
<path fill="none" stroke="black" d="M758.11,-1092.81C795.76,-1083.26 848.86,-1068.25 893.52,-1049.86 902.46,-1046.18 911.83,-1041.51 920.33,-1036.92"/>
<polygon fill="black" stroke="black" points="921.82,-1040.1 928.86,-1032.19 918.42,-1033.98 921.82,-1040.1"/>
</g>
<!-- 1 BSD -->
<g id="node5" class="node">
<title>1 BSD</title>
<polygon fill="#ffd700" stroke="#ffd700" points="230.88,-1023.11 217.58,-1037.47 170.92,-1035.94 133,-1021.03 139.34,-1005.32 175.1,-998.68 210.86,-1005.63 230.88,-1023.11"/>
<text text-anchor="middle" x="182.52" y="-1013.49" font-family="Helvetica-Outline" font-size="14.00">1 BSD</text>
</g>
<!-- 6th Edition&#45;&gt;1 BSD -->
<g id="edge4" class="edge">
<title>6th Edition&#45;&gt;1 BSD</title>
<path fill="none" stroke="black" d="M613.81,-1093.11C534.65,-1083.38 419.41,-1067.98 319.52,-1049.86 291.97,-1044.86 261.55,-1038.17 236.39,-1032.31"/>
<polygon fill="black" stroke="black" points="237.24,-1028.91 226.7,-1030.03 235.63,-1035.72 237.24,-1028.91"/>
</g>
<!-- Mini Unix -->
<g id="node6" class="node">
<title>Mini Unix</title>
<polygon fill="greenyellow" stroke="greenyellow" points="668.35,-1036.17 538.67,-1034.77 571.86,-1000.2 695.23,-1001.53 668.35,-1036.17"/>
<text text-anchor="middle" x="618.52" y="-1013.49" font-family="Helvetica-Outline" font-size="14.00">Mini Unix</text>
</g>
<!-- 6th Edition&#45;&gt;Mini Unix -->
<g id="edge5" class="edge">
<title>6th Edition&#45;&gt;Mini Unix</title>
<path fill="none" stroke="black" d="M693.67,-1089.42C680.27,-1076.89 660.78,-1058.67 645.01,-1043.93"/>
<polygon fill="black" stroke="black" points="647.49,-1041.46 637.8,-1037.19 642.71,-1046.57 647.49,-1041.46"/>
</g>
<!-- Wollongong -->
<g id="node7" class="node">
<title>Wollongong</title>
<polygon fill="darkseagreen" stroke="darkseagreen" points="817.62,-1037.37 721.8,-1025.84 734.77,-1003.71 843.79,-1003.67 884.63,-1020.26 817.62,-1037.37"/>
<text text-anchor="middle" x="800.52" y="-1013.49" font-family="Helvetica-Outline" font-size="14.00">Wollongong</text>
</g>
<!-- 6th Edition&#45;&gt;Wollongong -->
<g id="edge6" class="edge">
<title>6th Edition&#45;&gt;Wollongong</title>
<path fill="none" stroke="black" d="M724.15,-1090.57C738.35,-1077.29 760.16,-1056.91 776.84,-1041.31"/>
<polygon fill="black" stroke="black" points="779.01,-1044.08 783.92,-1034.69 774.23,-1038.96 779.01,-1044.08"/>
</g>
<!-- Interdata -->
<g id="node8" class="node">
<title>Interdata</title>
<polygon fill="#1e90ff" stroke="#1e90ff" points="432.11,-1043.51 328.2,-1008.13 444.29,-1002.14 493.51,-1018.9 432.11,-1043.51"/>
<text text-anchor="middle" x="424.52" y="-1013.49" font-family="Helvetica-Outline" font-size="14.00">Interdata</text>
</g>
<!-- 6th Edition&#45;&gt;Interdata -->
<g id="edge7" class="edge">
<title>6th Edition&#45;&gt;Interdata</title>
<path fill="none" stroke="black" d="M653.22,-1087.43C601.34,-1071.95 525.04,-1049.17 475.07,-1034.26"/>
<polygon fill="black" stroke="black" points="476.24,-1030.95 465.66,-1031.45 474.24,-1037.66 476.24,-1030.95"/>
</g>
<!-- PWB 1.2 -->
<g id="node28" class="node">
<title>PWB 1.2</title>
<polygon fill="cyan" stroke="cyan" points="1099.43,-1047.49 1048.78,-1043.63 1016.51,-1013.17 1029.43,-986.48 1080.33,-991.07 1127.24,-1012.77 1133.95,-1032.57 1099.43,-1047.49"/>
<text text-anchor="middle" x="1076.52" y="-1013.49" font-family="Helvetica-Outline" font-size="14.00">PWB 1.2</text>
</g>
<!-- PWB 1.0&#45;&gt;PWB 1.2 -->
<g id="edge31" class="edge">
<title>PWB 1.0&#45;&gt;PWB 1.2</title>
<path fill="none" stroke="black" d="M1076.52,-1087.02C1076.52,-1078.49 1076.52,-1067.81 1076.52,-1057.47"/>
<polygon fill="black" stroke="black" points="1080.02,-1057.59 1076.52,-1047.59 1073.02,-1057.59 1080.02,-1057.59"/>
</g>
<!-- USG 1.0 -->
<g id="node29" class="node">
<title>USG 1.0</title>
<polygon fill="blue" stroke="blue" points="1293.15,-1043.27 1154.89,-1012.33 1262.75,-1002.21 1319.31,-1014.87 1293.15,-1043.27"/>
<text text-anchor="middle" x="1257.52" y="-1013.49" font-family="Helvetica-Outline" font-size="14.00">USG 1.0</text>
</g>
<!-- PWB 1.0&#45;&gt;USG 1.0 -->
<g id="edge32" class="edge">
<title>PWB 1.0&#45;&gt;USG 1.0</title>
<path fill="none" stroke="black" d="M1103.23,-1091.69C1135.14,-1076.69 1188.56,-1051.58 1223.42,-1035.2"/>
<polygon fill="black" stroke="black" points="1224.67,-1038.48 1232.23,-1031.06 1221.69,-1032.14 1224.67,-1038.48"/>
</g>
<!-- 2 BSD -->
<g id="node19" class="node">
<title>2 BSD</title>
<polygon fill="blanchedalmond" stroke="blanchedalmond" points="149.34,-757.57 110.16,-756.9 89.37,-744.04 102.58,-728.55 139.81,-721.98 173.08,-729.45 177.34,-745.38 149.34,-757.57"/>
<text text-anchor="middle" x="134.52" y="-735.88" font-family="Helvetica-Outline" font-size="14.00">2 BSD</text>
</g>
<!-- 1 BSD&#45;&gt;2 BSD -->
<g id="edge19" class="edge">
<title>1 BSD&#45;&gt;2 BSD</title>
<path fill="none" stroke="black" d="M179.38,-999.08C171.16,-951.89 149.02,-824.78 139.26,-768.73"/>
<polygon fill="black" stroke="black" points="142.74,-768.34 137.58,-759.09 135.85,-769.54 142.74,-768.34"/>
</g>
<!-- Unix/TS 3.0 -->
<g id="node9" class="node">
<title>Unix/TS 3.0</title>
<polygon fill="#eed2ee" stroke="#eed2ee" points="1011.79,-668.83 977.93,-679.89 885.53,-671.98 788.71,-649.75 774.11,-633.07 850.28,-631.73 942.68,-639.63 997.18,-652.15 1011.79,-668.83"/>
<text text-anchor="middle" x="903.52" y="-648.7" font-family="Helvetica-Outline" font-size="14.00">Unix/TS 3.0</text>
</g>
<!-- Interdata&#45;&gt;Unix/TS 3.0 -->
<g id="edge8" class="edge">
<title>Interdata&#45;&gt;Unix/TS 3.0</title>
<path fill="none" stroke="black" d="M459.64,-1006.96C524.18,-986.87 663.64,-937.23 757.52,-858.59 818.2,-807.77 866.26,-726.28 889.07,-683.21"/>
<polygon fill="black" stroke="black" points="892.11,-684.96 893.62,-674.48 885.9,-681.73 892.11,-684.96"/>
</g>
<!-- PWB 2.0 -->
<g id="node10" class="node">
<title>PWB 2.0</title>
<polygon fill="#a2cd5a" stroke="#a2cd5a" points="989.03,-939.13 913.44,-942.73 809.99,-921.92 824.02,-905.93 920.55,-906.55 982.11,-918.94 989.03,-939.13"/>
<text text-anchor="middle" x="906.52" y="-917.86" font-family="Helvetica-Outline" font-size="14.00">PWB 2.0</text>
</g>
<!-- Interdata&#45;&gt;PWB 2.0 -->
<g id="edge9" class="edge">
<title>Interdata&#45;&gt;PWB 2.0</title>
<path fill="none" stroke="black" d="M457.3,-1006.21C477.85,-999.69 505,-991.69 529.52,-986.48 646.22,-961.67 678.29,-972.58 795.52,-950.48 815.63,-946.69 837.56,-941.58 856.58,-936.82"/>
<polygon fill="black" stroke="black" points="857.4,-940.23 866.23,-934.38 855.68,-933.44 857.4,-940.23"/>
</g>
<!-- 7th Edition -->
<g id="node11" class="node">
<title>7th Edition</title>
<polygon fill="chocolate" stroke="chocolate" points="483.21,-930.3 458.69,-941.63 421.12,-945.67 381.77,-939.14 356.85,-925.21 359.68,-911.32 390.36,-903.43 434.09,-902.84 471.08,-908.05 488.39,-917.73 483.21,-930.3"/>
<text text-anchor="middle" x="424.52" y="-917.86" font-family="Helvetica-Outline" font-size="14.00">7th Edition</text>
</g>
<!-- Interdata&#45;&gt;7th Edition -->
<g id="edge10" class="edge">
<title>Interdata&#45;&gt;7th Edition</title>
<path fill="none" stroke="black" d="M424.52,-1002.95C424.52,-990.8 424.52,-972.84 424.52,-957.07"/>
<polygon fill="black" stroke="black" points="428.02,-957.08 424.52,-947.08 421.02,-957.08 428.02,-957.08"/>
</g>
<!-- TS 4.0 -->
<g id="node38" class="node">
<title>TS 4.0</title>
<polygon fill="crimson" stroke="crimson" points="1110.5,-584.59 1086.28,-589.36 1041.53,-584.21 999.82,-574.25 974.6,-562.08 967.51,-548.48 978.77,-537.46 1010.56,-536.35 1057.22,-548.7 1098.46,-568.6 1110.5,-584.59"/>
<text text-anchor="middle" x="1032.52" y="-558.73" font-family="Helvetica-Outline" font-size="14.00">TS 4.0</text>
</g>
<!-- Unix/TS 3.0&#45;&gt;TS 4.0 -->
<g id="edge44" class="edge">
<title>Unix/TS 3.0&#45;&gt;TS 4.0</title>
<path fill="none" stroke="black" d="M925.12,-637.66C946.68,-622.95 979.94,-600.27 1003.74,-584.04"/>
<polygon fill="black" stroke="black" points="1005.44,-587.12 1011.73,-578.59 1001.49,-581.33 1005.44,-587.12"/>
</g>
<!-- 8th Edition -->
<g id="node12" class="node">
<title>8th Edition</title>
<polygon fill="#00c5cd" stroke="#00c5cd" points="754.02,-486.34 691.89,-471.7 734.69,-442.18 913.49,-484.32 754.02,-486.34"/>
<text text-anchor="middle" x="773.52" y="-466.46" font-family="Helvetica-Outline" font-size="14.00">8th Edition</text>
</g>
<!-- 7th Edition&#45;&gt;8th Edition -->
<g id="edge11" class="edge">
<title>7th Edition&#45;&gt;8th Edition</title>
<path fill="none" stroke="black" d="M481.04,-913.19C563.23,-900.53 707.8,-876.1 724.52,-858.59 760.92,-820.48 743.52,-794.25 743.52,-741.55 743.52,-741.55 743.52,-741.55 743.52,-652.38 743.52,-596.48 757.74,-532.13 766.6,-497.45"/>
<polygon fill="black" stroke="black" points="769.94,-498.51 769.09,-487.95 763.17,-496.73 769.94,-498.51"/>
</g>
<!-- 32V -->
<g id="node13" class="node">
<title>32V</title>
<polygon fill="#4f94cd" stroke="#4f94cd" points="709.91,-834.82 713.19,-851.52 656.98,-848.46 601.94,-831.28 607.82,-816.24 643.73,-809.86 676.09,-815.75 709.91,-834.82"/>
<text text-anchor="middle" x="658.52" y="-825.03" font-family="Helvetica-Outline" font-size="14.00">32V</text>
</g>
<!-- 7th Edition&#45;&gt;32V -->
<g id="edge12" class="edge">
<title>7th Edition&#45;&gt;32V</title>
<path fill="none" stroke="black" d="M465.1,-906.86C499.24,-894.4 549.27,-875.82 592.52,-858.59 602.54,-854.6 613.34,-850.12 623.24,-845.93"/>
<polygon fill="black" stroke="black" points="624.33,-849.27 632.16,-842.13 621.59,-842.83 624.33,-849.27"/>
</g>
<!-- V7M -->
<g id="node14" class="node">
<title>V7M</title>
<polygon fill="navy" stroke="navy" points="265.34,-659.76 258.33,-669.95 231.91,-673.81 206.11,-673.11 186.99,-666.87 169.57,-653.47 156.72,-636.81 163.28,-626.47 196.67,-629.65 240.34,-643.9 265.34,-659.76"/>
<text text-anchor="middle" x="207.52" y="-648.7" font-family="Helvetica-Outline" font-size="14.00">V7M</text>
</g>
<!-- 7th Edition&#45;&gt;V7M -->
<g id="edge13" class="edge">
<title>7th Edition&#45;&gt;V7M</title>
<path fill="none" stroke="black" d="M357.96,-918.58C313.64,-912.84 257.97,-897.64 226.52,-858.59 186.11,-808.4 193.34,-727.11 201.05,-683.78"/>
<polygon fill="black" stroke="black" points="204.46,-684.59 202.91,-674.11 197.59,-683.26 204.46,-684.59"/>
</g>
<!-- Ultrix&#45;11 -->
<g id="node15" class="node">
<title>Ultrix&#45;11</title>
<polygon fill="#698b69" stroke="#698b69" points="153.04,-370.51 155.05,-381.37 127.44,-390.56 93.25,-395.28 60.76,-393.46 26.97,-384.93 0,-372.67 2.65,-362.08 46.37,-357.89 109.71,-361.44 153.04,-370.51"/>
<text text-anchor="middle" x="77.52" y="-372.34" font-family="Helvetica-Outline" font-size="14.00">Ultrix&#45;11</text>
</g>
<!-- 7th Edition&#45;&gt;Ultrix&#45;11 -->
<g id="edge14" class="edge">
<title>7th Edition&#45;&gt;Ultrix&#45;11</title>
<path fill="none" stroke="black" d="M357.94,-917.87C253.15,-908.11 61.52,-872.39 61.52,-741.55 61.52,-741.55 61.52,-741.55 61.52,-562.41 61.52,-506.69 68.87,-441.86 73.6,-405.82"/>
<polygon fill="black" stroke="black" points="77.02,-406.63 74.89,-396.26 70.09,-405.7 77.02,-406.63"/>
</g>
<!-- Xenix -->
<g id="node16" class="node">
<title>Xenix</title>
<polygon fill="coral" stroke="coral" points="344.76,-848.29 307.9,-850.05 264.72,-841.72 240.53,-828.19 242.92,-813.71 270.51,-806.76 313.69,-815.09 347.16,-833.81 344.76,-848.29"/>
<text text-anchor="middle" x="291.52" y="-825.03" font-family="Helvetica-Outline" font-size="14.00">Xenix</text>
</g>
<!-- 7th Edition&#45;&gt;Xenix -->
<g id="edge15" class="edge">
<title>7th Edition&#45;&gt;Xenix</title>
<path fill="none" stroke="black" d="M397.29,-902.93C377.56,-889.46 350.65,-871.08 328.91,-856.24"/>
<polygon fill="black" stroke="black" points="331.12,-853.51 320.89,-850.76 327.17,-859.29 331.12,-853.51"/>
</g>
<!-- UniPlus+ -->
<g id="node17" class="node">
<title>UniPlus+</title>
<polygon fill="#a2cd5a" stroke="#a2cd5a" points="557.28,-843.98 519.12,-854.61 422.75,-840.71 365.37,-818.52 414.81,-810.53 498.26,-814.41 544.08,-825.16 557.28,-843.98"/>
<text text-anchor="middle" x="474.52" y="-825.03" font-family="Helvetica-Outline" font-size="14.00">UniPlus+</text>
</g>
<!-- 7th Edition&#45;&gt;UniPlus+ -->
<g id="edge16" class="edge">
<title>7th Edition&#45;&gt;UniPlus+</title>
<path fill="none" stroke="black" d="M434.88,-902.71C442.11,-889.58 451.86,-871.88 459.88,-857.31"/>
<polygon fill="black" stroke="black" points="462.87,-859.14 464.62,-848.69 456.74,-855.76 462.87,-859.14"/>
</g>
<!-- 9th Edition -->
<g id="node18" class="node">
<title>9th Edition</title>
<polygon fill="#cd5b45" stroke="#cd5b45" points="856.38,-390.95 809.41,-400.81 749.77,-391.43 726.09,-371.2 759.93,-356.67 820.42,-356.88 860.68,-371.19 856.38,-390.95"/>
<text text-anchor="middle" x="797.52" y="-372.34" font-family="Helvetica-Outline" font-size="14.00">9th Edition</text>
</g>
<!-- 8th Edition&#45;&gt;9th Edition -->
<g id="edge18" class="edge">
<title>8th Edition&#45;&gt;9th Edition</title>
<path fill="none" stroke="black" d="M778.15,-452.37C781.33,-440.16 785.64,-423.62 789.39,-409.24"/>
<polygon fill="black" stroke="black" points="792.73,-410.32 791.86,-399.76 785.95,-408.55 792.73,-410.32"/>
</g>
<!-- 3 BSD -->
<g id="node22" class="node">
<title>3 BSD</title>
<polygon fill="lemonchiffon" stroke="lemonchiffon" points="667.81,-736.43 667.18,-747.87 646.83,-756.52 610.89,-758.55 574.48,-753.39 555.99,-743.65 563.86,-733.23 591.47,-725.61 624.64,-723.19 652.09,-727.08 667.81,-736.43"/>
<text text-anchor="middle" x="615.52" y="-735.88" font-family="Helvetica-Outline" font-size="14.00">3 BSD</text>
</g>
<!-- 32V&#45;&gt;3 BSD -->
<g id="edge23" class="edge">
<title>32V&#45;&gt;3 BSD</title>
<path fill="none" stroke="black" d="M649.61,-810.65C643.6,-798.45 635.55,-782.14 628.78,-768.42"/>
<polygon fill="black" stroke="black" points="631.93,-766.89 624.37,-759.47 625.65,-769.99 631.93,-766.89"/>
</g>
<!-- V7M&#45;&gt;Ultrix&#45;11 -->
<g id="edge17" class="edge">
<title>V7M&#45;&gt;Ultrix&#45;11</title>
<path fill="none" stroke="black" d="M196.66,-629.46C172.86,-579.22 116.16,-459.56 90.52,-405.44"/>
<polygon fill="black" stroke="black" points="93.77,-404.14 86.33,-396.6 87.45,-407.13 93.77,-404.14"/>
</g>
<!-- 2.8 BSD -->
<g id="node20" class="node">
<title>2.8 BSD</title>
<polygon fill="#b0e2ff" stroke="#b0e2ff" points="263.15,-488.25 200.16,-472.81 255.69,-451.03 343.1,-472.45 263.15,-488.25"/>
<text text-anchor="middle" x="265.52" y="-466.46" font-family="Helvetica-Outline" font-size="14.00">2.8 BSD</text>
</g>
<!-- 2 BSD&#45;&gt;2.8 BSD -->
<g id="edge20" class="edge">
<title>2 BSD&#45;&gt;2.8 BSD</title>
<path fill="none" stroke="black" d="M132.32,-723.17C129.95,-700.58 128.04,-658.95 140.52,-626.47 161.91,-570.81 211.44,-519.92 241.34,-492.76"/>
<polygon fill="black" stroke="black" points="243.3,-495.7 248.44,-486.43 238.64,-490.47 243.3,-495.7"/>
</g>
<!-- 2.8 BSD&#45;&gt;Ultrix&#45;11 -->
<g id="edge21" class="edge">
<title>2.8 BSD&#45;&gt;Ultrix&#45;11</title>
<path fill="none" stroke="black" d="M238.99,-457.13C207.81,-441.86 155.7,-416.32 119.14,-398.41"/>
<polygon fill="black" stroke="black" points="121.14,-395.49 110.62,-394.24 118.06,-401.78 121.14,-395.49"/>
</g>
<!-- 2.9 BSD -->
<g id="node21" class="node">
<title>2.9 BSD</title>
<polygon fill="#76eec6" stroke="#76eec6" points="233.15,-391.66 193.32,-363.89 277.44,-348.11 358.19,-404.41 233.15,-391.66"/>
<text text-anchor="middle" x="265.52" y="-372.34" font-family="Helvetica-Outline" font-size="14.00">2.9 BSD</text>
</g>
<!-- 2.8 BSD&#45;&gt;2.9 BSD -->
<g id="edge22" class="edge">
<title>2.8 BSD&#45;&gt;2.9 BSD</title>
<path fill="none" stroke="black" d="M265.52,-453.24C265.52,-440.29 265.52,-422.11 265.52,-406.87"/>
<polygon fill="black" stroke="black" points="269.02,-406.95 265.52,-396.95 262.02,-406.95 269.02,-406.95"/>
</g>
<!-- 4 BSD -->
<g id="node23" class="node">
<title>4 BSD</title>
<polygon fill="#ff7f00" stroke="#ff7f00" points="616.86,-665.9 555.42,-669.72 523.14,-650.96 544.26,-632.3 642.94,-648.02 616.86,-665.9"/>
<text text-anchor="middle" x="576.52" y="-648.7" font-family="Helvetica-Outline" font-size="14.00">4 BSD</text>
</g>
<!-- 3 BSD&#45;&gt;4 BSD -->
<g id="edge24" class="edge">
<title>3 BSD&#45;&gt;4 BSD</title>
<path fill="none" stroke="black" d="M608.37,-723.93C602.59,-711.3 594.35,-693.3 587.69,-678.77"/>
<polygon fill="black" stroke="black" points="590.96,-677.5 583.62,-669.86 584.6,-680.41 590.96,-677.5"/>
</g>
<!-- 4.1 BSD -->
<g id="node24" class="node">
<title>4.1 BSD</title>
<polygon fill="#ffffe0" stroke="#ffffe0" points="569.22,-583.86 483.99,-566.96 513.18,-540.45 623.7,-562.36 569.22,-583.86"/>
<text text-anchor="middle" x="547.52" y="-558.73" font-family="Helvetica-Outline" font-size="14.00">4.1 BSD</text>
</g>
<!-- 4 BSD&#45;&gt;4.1 BSD -->
<g id="edge25" class="edge">
<title>4 BSD&#45;&gt;4.1 BSD</title>
<path fill="none" stroke="black" d="M571.21,-636.24C567.13,-623.88 561.41,-606.52 556.61,-591.96"/>
<polygon fill="black" stroke="black" points="559.94,-590.88 553.48,-582.48 553.29,-593.07 559.94,-590.88"/>
</g>
<!-- 4.1 BSD&#45;&gt;8th Edition -->
<g id="edge28" class="edge">
<title>4.1 BSD&#45;&gt;8th Edition</title>
<path fill="none" stroke="black" d="M573.45,-552.05C612.41,-536.49 686.42,-506.93 732.69,-488.45"/>
<polygon fill="black" stroke="black" points="733.85,-491.75 741.84,-484.79 731.26,-485.25 733.85,-491.75"/>
</g>
<!-- 4.1 BSD&#45;&gt;2.8 BSD -->
<g id="edge27" class="edge">
<title>4.1 BSD&#45;&gt;2.8 BSD</title>
<path fill="none" stroke="black" d="M503.77,-548.4C450.19,-531.25 360.07,-502.4 307.37,-485.53"/>
<polygon fill="black" stroke="black" points="308.75,-482.3 298.16,-482.58 306.62,-488.97 308.75,-482.3"/>
</g>
<!-- 4.2 BSD -->
<g id="node25" class="node">
<title>4.2 BSD</title>
<polygon fill="#68228b" stroke="#68228b" points="615.47,-494.11 585.86,-498.52 530.52,-492.47 480.28,-482.21 450.63,-470.15 440.93,-456.03 451.19,-443.75 487.18,-441.92 544.81,-455.19 598.38,-476.99 615.47,-494.11"/>
<text text-anchor="middle" x="518.52" y="-466.46" font-family="Helvetica-Outline" font-size="14.00">4.2 BSD</text>
</g>
<!-- 4.1 BSD&#45;&gt;4.2 BSD -->
<g id="edge26" class="edge">
<title>4.1 BSD&#45;&gt;4.2 BSD</title>
<path fill="none" stroke="black" d="M542.21,-545.85C538.3,-533.68 532.88,-516.81 528.21,-502.27"/>
<polygon fill="black" stroke="black" points="531.67,-501.62 525.28,-493.17 525.01,-503.76 531.67,-501.62"/>
</g>
<!-- 4.3 BSD -->
<g id="node26" class="node">
<title>4.3 BSD</title>
<polygon fill="#eee9bf" stroke="#eee9bf" points="700.46,-389.73 675.34,-401.91 642.65,-404.58 615.03,-396.92 602.97,-381.77 610.89,-364.68 635.71,-352.13 668.09,-349.08 695.83,-356.89 708.26,-372.51 700.46,-389.73"/>
<text text-anchor="middle" x="655.52" y="-372.34" font-family="Helvetica-Outline" font-size="14.00">4.3 BSD</text>
</g>
<!-- 4.2 BSD&#45;&gt;4.3 BSD -->
<g id="edge29" class="edge">
<title>4.2 BSD&#45;&gt;4.3 BSD</title>
<path fill="none" stroke="black" d="M542.08,-454.3C561.78,-441.05 590.36,-421.83 613.91,-406"/>
<polygon fill="black" stroke="black" points="615.71,-409 622.06,-400.52 611.81,-403.2 615.71,-409"/>
</g>
<!-- Ultrix&#45;32 -->
<g id="node27" class="node">
<title>Ultrix&#45;32</title>
<polygon fill="#cd9b1d" stroke="#cd9b1d" points="515.47,-393.82 422.46,-385.38 399.79,-356.06 584.38,-372.81 515.47,-393.82"/>
<text text-anchor="middle" x="480.52" y="-372.34" font-family="Helvetica-Outline" font-size="14.00">Ultrix&#45;32</text>
</g>
<!-- 4.2 BSD&#45;&gt;Ultrix&#45;32 -->
<g id="edge30" class="edge">
<title>4.2 BSD&#45;&gt;Ultrix&#45;32</title>
<path fill="none" stroke="black" d="M508.74,-446.41C503.14,-432.84 496.13,-415.84 490.5,-402.19"/>
<polygon fill="black" stroke="black" points="493.78,-400.97 486.73,-393.06 487.31,-403.64 493.78,-400.97"/>
</g>
<!-- PWB 1.2&#45;&gt;PWB 2.0 -->
<g id="edge33" class="edge">
<title>PWB 1.2&#45;&gt;PWB 2.0</title>
<path fill="none" stroke="black" d="M1027.35,-990.09C1002.92,-976.63 973.66,-960.51 950.05,-947.51"/>
<polygon fill="black" stroke="black" points="951.75,-944.45 941.3,-942.69 948.37,-950.58 951.75,-944.45"/>
</g>
<!-- CB Unix 1 -->
<g id="node30" class="node">
<title>CB Unix 1</title>
<polygon fill="firebrick" stroke="firebrick" points="1367.25,-930.53 1351.75,-942.89 1309.18,-946.36 1264.15,-940.53 1230.53,-926.28 1216.83,-908.43 1234.17,-896.54 1283.29,-898.44 1339.57,-912.81 1367.25,-930.53"/>
<text text-anchor="middle" x="1288.52" y="-917.86" font-family="Helvetica-Outline" font-size="14.00">CB Unix 1</text>
</g>
<!-- USG 1.0&#45;&gt;CB Unix 1 -->
<g id="edge34" class="edge">
<title>USG 1.0&#45;&gt;CB Unix 1</title>
<path fill="none" stroke="black" d="M1262.51,-1002.12C1266.82,-989.1 1273.18,-969.87 1278.54,-953.7"/>
<polygon fill="black" stroke="black" points="1281.75,-955.13 1281.57,-944.53 1275.11,-952.93 1281.75,-955.13"/>
</g>
<!-- USG 2.0 -->
<g id="node31" class="node">
<title>USG 2.0</title>
<polygon fill="#458b00" stroke="#458b00" points="1084.44,-949.57 1021.02,-894.59 1143.55,-908.45 1177.09,-937.52 1084.44,-949.57"/>
<text text-anchor="middle" x="1106.52" y="-917.86" font-family="Helvetica-Outline" font-size="14.00">USG 2.0</text>
</g>
<!-- USG 1.0&#45;&gt;USG 2.0 -->
<g id="edge35" class="edge">
<title>USG 1.0&#45;&gt;USG 2.0</title>
<path fill="none" stroke="black" d="M1236.85,-1004.35C1213.91,-990.13 1176.34,-966.83 1147.42,-948.89"/>
<polygon fill="black" stroke="black" points="1149.6,-946.13 1139.26,-943.83 1145.92,-952.08 1149.6,-946.13"/>
</g>
<!-- CB Unix 2 -->
<g id="node32" class="node">
<title>CB Unix 2</title>
<polygon fill="greenyellow" stroke="greenyellow" points="1349.42,-828.15 1359.07,-842.36 1341.76,-851.73 1288.11,-849.82 1224.72,-838.44 1195.6,-825.51 1217.98,-817.05 1267.31,-813.42 1308.73,-813.14 1332.53,-817.41 1349.42,-828.15"/>
<text text-anchor="middle" x="1288.52" y="-825.03" font-family="Helvetica-Outline" font-size="14.00">CB Unix 2</text>
</g>
<!-- CB Unix 1&#45;&gt;CB Unix 2 -->
<g id="edge36" class="edge">
<title>CB Unix 1&#45;&gt;CB Unix 2</title>
<path fill="none" stroke="black" d="M1288.52,-899.55C1288.52,-888.17 1288.52,-874.09 1288.52,-861.63"/>
<polygon fill="black" stroke="black" points="1292.02,-861.84 1288.52,-851.84 1285.02,-861.84 1292.02,-861.84"/>
</g>
<!-- USG 3.0 -->
<g id="node36" class="node">
<title>USG 3.0</title>
<polygon fill="#eed5b7" stroke="#eed5b7" points="1065.96,-847.98 999.79,-832.1 1016.89,-800.82 1171.46,-837.92 1065.96,-847.98"/>
<text text-anchor="middle" x="1063.52" y="-825.03" font-family="Helvetica-Outline" font-size="14.00">USG 3.0</text>
</g>
<!-- USG 2.0&#45;&gt;USG 3.0 -->
<g id="edge40" class="edge">
<title>USG 2.0&#45;&gt;USG 3.0</title>
<path fill="none" stroke="black" d="M1097.82,-903.15C1091.66,-890.14 1083.3,-872.47 1076.37,-857.83"/>
<polygon fill="black" stroke="black" points="1079.72,-856.74 1072.28,-849.2 1073.39,-859.73 1079.72,-856.74"/>
</g>
<!-- CB Unix 3 -->
<g id="node33" class="node">
<title>CB Unix 3</title>
<polygon fill="#8b7d6b" stroke="#8b7d6b" points="1353.98,-738.87 1376.23,-754.51 1364.98,-764.82 1305.29,-762.79 1227.3,-750.38 1184.59,-736.11 1200.82,-726.59 1250.54,-722.41 1295.54,-722.1 1325.97,-726.94 1353.98,-738.87"/>
<text text-anchor="middle" x="1288.52" y="-735.88" font-family="Helvetica-Outline" font-size="14.00">CB Unix 3</text>
</g>
<!-- CB Unix 2&#45;&gt;CB Unix 3 -->
<g id="edge37" class="edge">
<title>CB Unix 2&#45;&gt;CB Unix 3</title>
<path fill="none" stroke="black" d="M1288.52,-813.12C1288.52,-801.57 1288.52,-785.47 1288.52,-771.46"/>
<polygon fill="black" stroke="black" points="1292.02,-771.85 1288.52,-761.85 1285.02,-771.85 1292.02,-771.85"/>
</g>
<!-- Unix/TS++ -->
<g id="node34" class="node">
<title>Unix/TS++</title>
<polygon fill="#eed5d2" stroke="#eed5d2" points="1384.24,-659.92 1342.21,-673.26 1218.49,-664.81 1192.81,-646.84 1262.84,-635.41 1330.55,-640.03 1384.24,-659.92"/>
<text text-anchor="middle" x="1288.52" y="-648.7" font-family="Helvetica-Outline" font-size="14.00">Unix/TS++</text>
</g>
<!-- CB Unix 3&#45;&gt;Unix/TS++ -->
<g id="edge38" class="edge">
<title>CB Unix 3&#45;&gt;Unix/TS++</title>
<path fill="none" stroke="black" d="M1288.52,-721.9C1288.52,-710.19 1288.52,-694.59 1288.52,-681.33"/>
<polygon fill="black" stroke="black" points="1292.02,-681.51 1288.52,-671.51 1285.02,-681.51 1292.02,-681.51"/>
</g>
<!-- PDP&#45;11 Sys V -->
<g id="node35" class="node">
<title>PDP&#45;11 Sys V</title>
<polygon fill="#98f5ff" stroke="#98f5ff" points="1377.82,-568.12 1348.91,-578.62 1294.3,-582.47 1244.37,-578.77 1215.1,-567.87 1212.81,-553.53 1243.38,-543.34 1301.56,-543.73 1358.46,-554.22 1377.82,-568.12"/>
<text text-anchor="middle" x="1288.52" y="-558.73" font-family="Helvetica-Outline" font-size="14.00">PDP&#45;11 Sys V</text>
</g>
<!-- Unix/TS++&#45;&gt;PDP&#45;11 Sys V -->
<g id="edge39" class="edge">
<title>Unix/TS++&#45;&gt;PDP&#45;11 Sys V</title>
<path fill="none" stroke="black" d="M1288.52,-637.06C1288.52,-625.13 1288.52,-608.24 1288.52,-593.74"/>
<polygon fill="black" stroke="black" points="1292.02,-593.8 1288.52,-583.8 1285.02,-593.8 1292.02,-593.8"/>
</g>
<!-- Unix/TS 1.0 -->
<g id="node37" class="node">
<title>Unix/TS 1.0</title>
<polygon fill="orangered" stroke="orangered" points="1014.28,-760.07 965.04,-728.49 1115.05,-726.35 1147.72,-747.3 1014.28,-760.07"/>
<text text-anchor="middle" x="1060.52" y="-735.88" font-family="Helvetica-Outline" font-size="14.00">Unix/TS 1.0</text>
</g>
<!-- USG 3.0&#45;&gt;Unix/TS 1.0 -->
<g id="edge41" class="edge">
<title>USG 3.0&#45;&gt;Unix/TS 1.0</title>
<path fill="none" stroke="black" d="M1062.93,-811.48C1062.49,-798.77 1061.89,-781.27 1061.4,-766.95"/>
<polygon fill="black" stroke="black" points="1064.91,-767.24 1061.07,-757.36 1057.92,-767.48 1064.91,-767.24"/>
</g>
<!-- Unix/TS 1.0&#45;&gt;Unix/TS 3.0 -->
<g id="edge42" class="edge">
<title>Unix/TS 1.0&#45;&gt;Unix/TS 3.0</title>
<path fill="none" stroke="black" d="M1037.36,-726.98C1016.09,-715.44 983.79,-697.92 956.25,-682.98"/>
<polygon fill="black" stroke="black" points="958.14,-680.02 947.68,-678.33 954.8,-686.18 958.14,-680.02"/>
</g>
<!-- Unix/TS 1.0&#45;&gt;TS 4.0 -->
<g id="edge43" class="edge">
<title>Unix/TS 1.0&#45;&gt;TS 4.0</title>
<path fill="none" stroke="black" d="M1058.47,-726.67C1054.05,-699.03 1043.55,-633.36 1037.35,-594.57"/>
<polygon fill="black" stroke="black" points="1040.81,-594.05 1035.77,-584.73 1033.9,-595.16 1040.81,-594.05"/>
</g>
<!-- System V.0 -->
<g id="node39" class="node">
<title>System V.0</title>
<polygon fill="#ff7f00" stroke="#ff7f00" points="1126.54,-473.13 1100.51,-484.21 1042.46,-489.14 979.17,-485.56 940.85,-475.23 946.01,-463.07 991.86,-454.71 1056.22,-453.96 1109.1,-461.2 1126.54,-473.13"/>
<text text-anchor="middle" x="1032.52" y="-466.46" font-family="Helvetica-Outline" font-size="14.00">System V.0</text>
</g>
<!-- TS 4.0&#45;&gt;System V.0 -->
<g id="edge45" class="edge">
<title>TS 4.0&#45;&gt;System V.0</title>
<path fill="none" stroke="black" d="M1032.52,-541.92C1032.52,-529.53 1032.52,-513.56 1032.52,-500.03"/>
<polygon fill="black" stroke="black" points="1036.02,-500.43 1032.52,-490.43 1029.02,-500.43 1036.02,-500.43"/>
</g>
<!-- System V.2 -->
<g id="node40" class="node">
<title>System V.2</title>
<polygon fill="#6e8b3d" stroke="#6e8b3d" points="1140.73,-393.77 1062.1,-400.18 909.76,-376.61 924.32,-360.27 1047.08,-360.68 1111.16,-370.6 1140.73,-393.77"/>
<text text-anchor="middle" x="1032.52" y="-372.34" font-family="Helvetica-Outline" font-size="14.00">System V.2</text>
</g>
<!-- System V.0&#45;&gt;System V.2 -->
<g id="edge46" class="edge">
<title>System V.0&#45;&gt;System V.2</title>
<path fill="none" stroke="black" d="M1032.52,-454.09C1032.52,-441.19 1032.52,-422.73 1032.52,-407.23"/>
<polygon fill="black" stroke="black" points="1036.02,-407.6 1032.52,-397.6 1029.02,-407.6 1036.02,-407.6"/>
</g>
<!-- System V.3 -->
<g id="node41" class="node">
<title>System V.3</title>
<polygon fill="#cae1ff" stroke="#cae1ff" points="1101.16,-308.48 1021.68,-305.68 967.49,-296.97 962.27,-282.11 992.83,-265.5 1060.9,-269.46 1121.34,-293.44 1101.16,-308.48"/>
<text text-anchor="middle" x="1032.52" y="-284.13" font-family="Helvetica-Outline" font-size="14.00">System V.3</text>
</g>
<!-- System V.2&#45;&gt;System V.3 -->
<g id="edge47" class="edge">
<title>System V.2&#45;&gt;System V.3</title>
<path fill="none" stroke="black" d="M1032.52,-360.21C1032.52,-348.28 1032.52,-331.62 1032.52,-317.5"/>
<polygon fill="black" stroke="black" points="1036.02,-317.91 1032.52,-307.91 1029.02,-317.91 1036.02,-317.91"/>
</g>
</g>
</svg>
