<svg xmlns="http://www.w3.org/2000/svg" xmlns:xlink="http://www.w3.org/1999/xlink" contentStyleType="text/css" data-diagram-type="SEQUENCE" height="452px" preserveAspectRatio="none" style="width:444px;height:452px;background:#FFFFFF;" version="1.1" viewBox="0 0 444 452" width="444px" zoomAndPan="magnify"><title>&#12471;&#12540;&#12465;&#12531;&#12473;&#22259;&#12479;&#12452;&#12488;&#12523;</title><defs/><g><text fill="#000000" font-family="sans-serif" font-size="14" font-weight="bold" lengthAdjust="spacing" textLength="139.9994" x="153.9614" y="27.9951">&#12471;&#12540;&#12465;&#12531;&#12473;&#22259;&#12479;&#12452;&#12488;&#12523;</text><g><title>Frontend</title><rect fill="#FFFFFF" height="203.9297" style="stroke:#181818;stroke-width:1;" width="10" x="107.9552" y="149.7266"/></g><g><title>API Gateway</title><rect fill="#FFFFFF" height="145.6641" style="stroke:#181818;stroke-width:1;" width="10" x="209.5216" y="178.8594"/></g><g><title>Backend</title><rect fill="#FFFFFF" height="87.3984" style="stroke:#181818;stroke-width:1;" width="10" x="308.5217" y="207.9922"/></g><g><title>Database</title><rect fill="#FFFFFF" height="29.1328" style="stroke:#181818;stroke-width:1;" width="10" x="402.5218" y="237.125"/></g><g><title>User</title><rect fill="#000000" fill-opacity="0.00000" height="253.0625" width="8" x="19.9551" y="118.5938"/><line style="stroke:#181818;stroke-width:0.5;stroke-dasharray:5,5;" x1="23" x2="23" y1="118.5938" y2="371.6563"/></g><g><title>Frontend</title><rect fill="#000000" fill-opacity="0.00000" height="253.0625" width="8" x="108.9552" y="118.5938"/><line style="stroke:#181818;stroke-width:0.5;stroke-dasharray:5,5;" x1="112.4005" x2="112.4005" y1="118.5938" y2="371.6563"/></g><g><title>API Gateway</title><rect fill="#000000" fill-opacity="0.00000" height="253.0625" width="8" x="210.5216" y="118.5938"/><line style="stroke:#181818;stroke-width:0.5;stroke-dasharray:5,5;" x1="214.2999" x2="214.2999" y1="118.5938" y2="371.6563"/></g><g><title>Backend</title><rect fill="#000000" fill-opacity="0.00000" height="253.0625" width="8" x="309.5217" y="118.5938"/><line style="stroke:#181818;stroke-width:0.5;stroke-dasharray:5,5;" x1="313.341" x2="313.341" y1="118.5938" y2="371.6563"/></g><g><title>Database</title><rect fill="#000000" fill-opacity="0.00000" height="253.0625" width="8" x="403.5218" y="118.5938"/><line style="stroke:#181818;stroke-width:0.5;stroke-dasharray:5,5;" x1="407.1214" x2="407.1214" y1="118.5938" y2="371.6563"/></g><g class="participant participant-head" data-participant="user"><text fill="#000000" font-family="sans-serif" font-size="14" lengthAdjust="spacing" textLength="31.9102" x="5" y="115.292">User</text><ellipse cx="23.9551" cy="50.7969" fill="#E2E2F0" rx="8" ry="8" style="stroke:#181818;stroke-width:0.5;"/><path d="M23.9551,58.7969 L23.9551,85.7969 M10.9551,66.7969 L36.9551,66.7969 M23.9551,85.7969 L10.9551,100.7969 M23.9551,85.7969 L36.9551,100.7969" fill="none" style="stroke:#181818;stroke-width:0.5;"/></g><g class="participant participant-tail" data-participant="user"><text fill="#000000" font-family="sans-serif" font-size="14" lengthAdjust="spacing" textLength="31.9102" x="5" y="383.6514">User</text><ellipse cx="23.9551" cy="395.4531" fill="#E2E2F0" rx="8" ry="8" style="stroke:#181818;stroke-width:0.5;"/><path d="M23.9551,403.4531 L23.9551,430.4531 M10.9551,411.4531 L36.9551,411.4531 M23.9551,430.4531 L10.9551,445.4531 M23.9551,430.4531 L36.9551,445.4531" fill="none" style="stroke:#181818;stroke-width:0.5;"/></g><g class="participant participant-head" data-participant="frontend"><rect fill="#E2E2F0" height="30.2969" rx="2.5" ry="2.5" style="stroke:#181818;stroke-width:0.5;" width="77.1094" x="74.4005" y="87.2969"/><text fill="#000000" font-family="sans-serif" font-size="14" lengthAdjust="spacing" textLength="63.1094" x="81.4005" y="107.292">Frontend</text></g><g class="participant participant-tail" data-participant="frontend"><rect fill="#E2E2F0" height="30.2969" rx="2.5" ry="2.5" style="stroke:#181818;stroke-width:0.5;" width="77.1094" x="74.4005" y="370.6563"/><text fill="#000000" font-family="sans-serif" font-size="14" lengthAdjust="spacing" textLength="63.1094" x="81.4005" y="390.6514">Frontend</text></g><g class="participant participant-head" data-participant="gateway"><rect fill="#E2E2F0" height="30.2969" rx="2.5" ry="2.5" style="stroke:#181818;stroke-width:0.5;" width="102.4434" x="163.2999" y="87.2969"/><text fill="#000000" font-family="sans-serif" font-size="14" lengthAdjust="spacing" textLength="88.4434" x="170.2999" y="107.292">API Gateway</text></g><g class="participant participant-tail" data-participant="gateway"><rect fill="#E2E2F0" height="30.2969" rx="2.5" ry="2.5" style="stroke:#181818;stroke-width:0.5;" width="102.4434" x="163.2999" y="370.6563"/><text fill="#000000" font-family="sans-serif" font-size="14" lengthAdjust="spacing" textLength="88.4434" x="170.2999" y="390.6514">API Gateway</text></g><g class="participant participant-head" data-participant="backend"><rect fill="#E2E2F0" height="30.2969" rx="2.5" ry="2.5" style="stroke:#181818;stroke-width:0.5;" width="74.3613" x="276.341" y="87.2969"/><text fill="#000000" font-family="sans-serif" font-size="14" lengthAdjust="spacing" textLength="60.3613" x="283.341" y="107.292">Backend</text></g><g class="participant participant-tail" data-participant="backend"><rect fill="#E2E2F0" height="30.2969" rx="2.5" ry="2.5" style="stroke:#181818;stroke-width:0.5;" width="74.3613" x="276.341" y="370.6563"/><text fill="#000000" font-family="sans-serif" font-size="14" lengthAdjust="spacing" textLength="60.3613" x="283.341" y="390.6514">Backend</text></g><g class="participant participant-head" data-participant="db"><text fill="#000000" font-family="sans-serif" font-size="14" lengthAdjust="spacing" textLength="66.8008" x="371.1214" y="115.292">Database</text><path d="M389.5218,66.2969 C389.5218,56.2969 407.5218,56.2969 407.5218,56.2969 C407.5218,56.2969 425.5218,56.2969 425.5218,66.2969 L425.5218,92.2969 C425.5218,102.2969 407.5218,102.2969 407.5218,102.2969 C407.5218,102.2969 389.5218,102.2969 389.5218,92.2969 L389.5218,66.2969" fill="#E2E2F0" style="stroke:#181818;stroke-width:0.5;"/><path d="M389.5218,66.2969 C389.5218,76.2969 407.5218,76.2969 407.5218,76.2969 C407.5218,76.2969 425.5218,76.2969 425.5218,66.2969" fill="none" style="stroke:#181818;stroke-width:0.5;"/></g><g class="participant participant-tail" data-participant="db"><text fill="#000000" font-family="sans-serif" font-size="14" lengthAdjust="spacing" textLength="66.8008" x="371.1214" y="383.6514">Database</text><path d="M389.5218,396.9531 C389.5218,386.9531 407.5218,386.9531 407.5218,386.9531 C407.5218,386.9531 425.5218,386.9531 425.5218,396.9531 L425.5218,422.9531 C425.5218,432.9531 407.5218,432.9531 407.5218,432.9531 C407.5218,432.9531 389.5218,432.9531 389.5218,422.9531 L389.5218,396.9531" fill="#E2E2F0" style="stroke:#181818;stroke-width:0.5;"/><path d="M389.5218,396.9531 C389.5218,406.9531 407.5218,406.9531 407.5218,406.9531 C407.5218,406.9531 425.5218,406.9531 425.5218,396.9531" fill="none" style="stroke:#181818;stroke-width:0.5;"/></g><g><title>Frontend</title><rect fill="#FFFFFF" height="203.9297" style="stroke:#181818;stroke-width:1;" width="10" x="107.9552" y="149.7266"/></g><g><title>API Gateway</title><rect fill="#FFFFFF" height="145.6641" style="stroke:#181818;stroke-width:1;" width="10" x="209.5216" y="178.8594"/></g><g><title>Backend</title><rect fill="#FFFFFF" height="87.3984" style="stroke:#181818;stroke-width:1;" width="10" x="308.5217" y="207.9922"/></g><g><title>Database</title><rect fill="#FFFFFF" height="29.1328" style="stroke:#181818;stroke-width:1;" width="10" x="402.5218" y="237.125"/></g><g class="message" data-participant-1="user" data-participant-2="frontend"><polygon fill="#181818" points="95.9552,145.7266,105.9552,149.7266,95.9552,153.7266,99.9552,149.7266" style="stroke:#181818;stroke-width:1;"/><line style="stroke:#181818;stroke-width:1;" x1="23.9551" x2="101.9552" y1="149.7266" y2="149.7266"/><text fill="#000000" font-family="sans-serif" font-size="13" lengthAdjust="spacing" textLength="65.0001" x="30.9551" y="144.6606">&#12522;&#12463;&#12456;&#12473;&#12488;</text></g><g class="message" data-participant-1="frontend" data-participant-2="gateway"><polygon fill="#181818" points="197.5216,174.8594,207.5216,178.8594,197.5216,182.8594,201.5216,178.8594" style="stroke:#181818;stroke-width:1;"/><line style="stroke:#181818;stroke-width:1;" x1="117.9552" x2="203.5216" y1="178.8594" y2="178.8594"/><text fill="#000000" font-family="sans-serif" font-size="13" lengthAdjust="spacing" textLength="72.5665" x="124.9552" y="173.7935">API&#21628;&#12403;&#20986;&#12375;</text></g><g class="message" data-participant-1="gateway" data-participant-2="backend"><polygon fill="#181818" points="296.5217,203.9922,306.5217,207.9922,296.5217,211.9922,300.5217,207.9922" style="stroke:#181818;stroke-width:1;"/><line style="stroke:#181818;stroke-width:1;" x1="219.5216" x2="302.5217" y1="207.9922" y2="207.9922"/><text fill="#000000" font-family="sans-serif" font-size="13" lengthAdjust="spacing" textLength="52.0001" x="226.5216" y="202.9263">&#20966;&#29702;&#20381;&#38972;</text></g><g class="message" data-participant-1="backend" data-participant-2="db"><polygon fill="#181818" points="390.5218,233.125,400.5218,237.125,390.5218,241.125,394.5218,237.125" style="stroke:#181818;stroke-width:1;"/><line style="stroke:#181818;stroke-width:1;" x1="318.5217" x2="396.5218" y1="237.125" y2="237.125"/><text fill="#000000" font-family="sans-serif" font-size="13" lengthAdjust="spacing" textLength="65.0001" x="325.5217" y="232.0591">&#12463;&#12456;&#12522;&#23455;&#34892;</text></g><g class="message" data-participant-1="db" data-participant-2="backend"><polygon fill="#181818" points="329.5217,262.2578,319.5217,266.2578,329.5217,270.2578,325.5217,266.2578" style="stroke:#181818;stroke-width:1;"/><line style="stroke:#181818;stroke-width:1;stroke-dasharray:2,2;" x1="323.5217" x2="406.5218" y1="266.2578" y2="266.2578"/><text fill="#000000" font-family="sans-serif" font-size="13" lengthAdjust="spacing" textLength="26" x="335.5217" y="261.1919">&#32080;&#26524;</text></g><g class="message" data-participant-1="backend" data-participant-2="gateway"><polygon fill="#181818" points="230.5216,291.3906,220.5216,295.3906,230.5216,299.3906,226.5216,295.3906" style="stroke:#181818;stroke-width:1;"/><line style="stroke:#181818;stroke-width:1;stroke-dasharray:2,2;" x1="224.5216" x2="312.5217" y1="295.3906" y2="295.3906"/><text fill="#000000" font-family="sans-serif" font-size="13" lengthAdjust="spacing" textLength="65.0001" x="236.5216" y="290.3247">&#12524;&#12473;&#12509;&#12531;&#12473;</text></g><g class="message" data-participant-1="gateway" data-participant-2="frontend"><polygon fill="#181818" points="128.9552,320.5234,118.9552,324.5234,128.9552,328.5234,124.9552,324.5234" style="stroke:#181818;stroke-width:1;"/><line style="stroke:#181818;stroke-width:1;stroke-dasharray:2,2;" x1="122.9552" x2="213.5216" y1="324.5234" y2="324.5234"/><text fill="#000000" font-family="sans-serif" font-size="13" lengthAdjust="spacing" textLength="65.0001" x="134.9552" y="319.4575">&#12524;&#12473;&#12509;&#12531;&#12473;</text></g><g class="message" data-participant-1="frontend" data-participant-2="user"><polygon fill="#181818" points="34.9551,349.6563,24.9551,353.6563,34.9551,357.6563,30.9551,353.6563" style="stroke:#181818;stroke-width:1;"/><line style="stroke:#181818;stroke-width:1;stroke-dasharray:2,2;" x1="28.9551" x2="111.9552" y1="353.6563" y2="353.6563"/><text fill="#000000" font-family="sans-serif" font-size="13" lengthAdjust="spacing" textLength="52.0001" x="40.9551" y="348.5903">&#32080;&#26524;&#34920;&#31034;</text></g><!--SRC=[TPBVIW915CRlvoc6lV7A5_0YAABehfiUODRTOYbKTgUYovq95Gcq0YNAIf0K2oEMg4piOKxZwbiqu_urwcg_tNE-Cx_pxMGmi3VWOs0lm3rW7-BQ0rvMchU0FwaIhwACR1i0Rm9x1zO3zYm_pfkNu0w1dGAhYReirO1TJA-OxtsAQWlStgpJz-iJXAX53yo_pc5VmBfo4l17X4YU5csyuvWs9Wu-b4zK8ZQrybQ952ZMDknYWPe5GrFbtV1bkMLrUmjl4ceUavD5rrwWbvlMI7u_6gC76Xc44fqu9jRMGxKe6pf22WHdL-8JSnZuG0N0-d8BbOq4juxaIGaKYfGoXX0vBEd4-HXSJrH6uBOINuI9Gg5S8LaEYyg3toX_Jzhp-t5YYS1HA9J5q2LR0CO7OdWtwvmb1hcAeUDiUhB_sfZUtY33J3Sb0zFewYAePTl1lqjxOf8O_bTO_phZjPEqf5Nb7R6f2zGTfJrnn3y0]--></g></svg>