<svg xmlns="http://www.w3.org/2000/svg" xmlns:xlink="http://www.w3.org/1999/xlink" contentStyleType="text/css" data-diagram-type="ACTIVITY" height="742px" preserveAspectRatio="none" style="width:762px;height:742px;background:#FFFFFF;" version="1.1" viewBox="0 0 762 742" width="762px" zoomAndPan="magnify"><title>&#12450;&#12463;&#12486;&#12451;&#12499;&#12486;&#12451;&#22259;&#12479;&#12452;&#12488;&#12523;</title><defs/><g><g class="title" data-source-line="4"><text fill="#000000" font-family="sans-serif" font-size="14" font-weight="bold" lengthAdjust="spacing" textLength="167.9993" x="295.6793" y="32.9951">&#12450;&#12463;&#12486;&#12451;&#12499;&#12486;&#12451;&#22259;&#12479;&#12452;&#12488;&#12523;</text></g><ellipse cx="502.5492" cy="57.2969" fill="#222222" rx="10" ry="10" style="stroke:#222222;stroke-width:1;"/><rect fill="#F1F1F1" height="33.9688" rx="12.5" ry="12.5" style="stroke:#181818;stroke-width:0.5;" width="104.0006" x="450.5489" y="87.2969"/><text fill="#000000" font-family="sans-serif" font-size="12" lengthAdjust="spacing" textLength="84.0006" x="460.5489" y="108.4355">&#12522;&#12463;&#12456;&#12473;&#12488;&#21463;&#20449;</text><polygon fill="#F1F1F1" points="477.6302,141.2656,527.4682,141.2656,539.4682,153.2656,527.4682,165.2656,477.6302,165.2656,465.6302,153.2656,477.6302,141.2656" style="stroke:#181818;stroke-width:0.5;"/><text fill="#000000" font-family="sans-serif" font-size="11" lengthAdjust="spacing" textLength="49.8381" x="477.6302" y="157.0737">&#35469;&#35388;&#28168;&#12415;?</text><text fill="#000000" font-family="sans-serif" font-size="11" lengthAdjust="spacing" textLength="19.0083" x="446.6219" y="150.6714">yes</text><text fill="#000000" font-family="sans-serif" font-size="11" lengthAdjust="spacing" textLength="13.7017" x="539.4682" y="150.6714">no</text><rect fill="#F1F1F1" height="33.9688" rx="12.5" ry="12.5" style="stroke:#181818;stroke-width:0.5;" width="92.0005" x="301.7409" y="175.2656"/><text fill="#000000" font-family="sans-serif" font-size="12" lengthAdjust="spacing" textLength="72.0005" x="311.7409" y="196.4043">&#12488;&#12540;&#12463;&#12531;&#26908;&#35388;</text><polygon fill="#F1F1F1" points="311.8222,229.2344,383.6602,229.2344,395.6602,241.2344,383.6602,253.2344,311.8222,253.2344,299.8222,241.2344,311.8222,229.2344" style="stroke:#181818;stroke-width:0.5;"/><text fill="#000000" font-family="sans-serif" font-size="11" lengthAdjust="spacing" textLength="71.8379" x="311.8222" y="245.0425">&#12488;&#12540;&#12463;&#12531;&#26377;&#21177;?</text><text fill="#000000" font-family="sans-serif" font-size="11" lengthAdjust="spacing" textLength="19.0083" x="280.8139" y="238.6401">yes</text><text fill="#000000" font-family="sans-serif" font-size="11" lengthAdjust="spacing" textLength="13.7017" x="395.6602" y="238.6401">no</text><rect fill="#F1F1F1" height="33.9688" rx="12.5" ry="12.5" style="stroke:#181818;stroke-width:0.5;" width="92.0005" x="179.7681" y="263.2344"/><text fill="#000000" font-family="sans-serif" font-size="12" lengthAdjust="spacing" textLength="72.0005" x="189.7681" y="284.373">&#27177;&#38480;&#12481;&#12455;&#12483;&#12463;</text><polygon fill="#F1F1F1" points="200.8494,317.2031,250.6874,317.2031,262.6874,329.2031,250.6874,341.2031,200.8494,341.2031,188.8494,329.2031,200.8494,317.2031" style="stroke:#181818;stroke-width:0.5;"/><text fill="#000000" font-family="sans-serif" font-size="11" lengthAdjust="spacing" textLength="49.8381" x="200.8494" y="333.0112">&#27177;&#38480;&#12354;&#12426;?</text><text fill="#000000" font-family="sans-serif" font-size="11" lengthAdjust="spacing" textLength="19.0083" x="169.8411" y="326.6089">yes</text><text fill="#000000" font-family="sans-serif" font-size="11" lengthAdjust="spacing" textLength="13.7017" x="262.6874" y="326.6089">no</text><rect fill="#F1F1F1" height="33.9688" rx="12.5" ry="12.5" style="stroke:#181818;stroke-width:0.5;" width="140.0009" x="59.0001" y="351.2031"/><text fill="#000000" font-family="sans-serif" font-size="12" lengthAdjust="spacing" textLength="120.0009" x="69.0001" y="372.3418">&#12499;&#12472;&#12493;&#12473;&#12525;&#12472;&#12483;&#12463;&#23455;&#34892;</text><rect fill="#555555" height="6" rx="2.5" ry="2.5" style="stroke:#555555;stroke-width:1;" width="238.0011" x="11" y="405.1719"/><rect fill="#F1F1F1" height="33.9688" rx="12.5" ry="12.5" style="stroke:#181818;stroke-width:0.5;" width="80.0005" x="23" y="431.1719"/><text fill="#000000" font-family="sans-serif" font-size="12" lengthAdjust="spacing" textLength="60.0005" x="33" y="452.3105">&#12487;&#12540;&#12479;&#21462;&#24471;</text><rect fill="#F1F1F1" height="33.9688" rx="12.5" ry="12.5" style="stroke:#181818;stroke-width:0.5;" width="104.0006" x="131.0005" y="431.1719"/><text fill="#000000" font-family="sans-serif" font-size="12" lengthAdjust="spacing" textLength="84.0006" x="141.0005" y="452.3105">&#12461;&#12515;&#12483;&#12471;&#12517;&#30906;&#35469;</text><rect fill="#555555" height="6" rx="2.5" ry="2.5" style="stroke:#555555;stroke-width:1;" width="238.0011" x="11" y="485.1406"/><rect fill="#F1F1F1" height="33.9688" rx="12.5" ry="12.5" style="stroke:#181818;stroke-width:0.5;" width="104.0006" x="77.0002" y="511.1406"/><text fill="#000000" font-family="sans-serif" font-size="12" lengthAdjust="spacing" textLength="84.0006" x="87.0002" y="532.2793">&#12524;&#12473;&#12509;&#12531;&#12473;&#29983;&#25104;</text><rect fill="#F1F1F1" height="33.9688" rx="12.5" ry="12.5" style="stroke:#181818;stroke-width:0.5;" width="128.0008" x="65.0001" y="565.1094"/><text fill="#000000" font-family="sans-serif" font-size="12" lengthAdjust="spacing" textLength="108.0008" x="75.0001" y="586.248">&#25104;&#21151;&#12524;&#12473;&#12509;&#12531;&#12473;&#36820;&#21364;</text><rect fill="#F1F1F1" height="33.9688" rx="12.5" ry="12.5" style="stroke:#181818;stroke-width:0.5;" width="107.0703" x="269.0011" y="351.2031"/><text fill="#000000" font-family="sans-serif" font-size="12" lengthAdjust="spacing" textLength="87.0703" x="279.0011" y="372.3418">403 Forbidden</text><polygon fill="#F1F1F1" points="225.7684,605.0781,237.7684,617.0781,225.7684,629.0781,213.7684,617.0781,225.7684,605.0781" style="stroke:#181818;stroke-width:0.5;"/><rect fill="#F1F1F1" height="33.9688" rx="12.5" ry="12.5" style="stroke:#181818;stroke-width:0.5;" width="127.2852" x="406.0714" y="263.2344"/><text fill="#000000" font-family="sans-serif" font-size="12" lengthAdjust="spacing" textLength="107.2852" x="416.0714" y="284.373">401 Unauthorized</text><polygon fill="#F1F1F1" points="347.7412,635.0781,359.7412,647.0781,347.7412,659.0781,335.7412,647.0781,347.7412,635.0781" style="stroke:#181818;stroke-width:0.5;"/><rect fill="#F1F1F1" height="33.9688" rx="12.5" ry="12.5" style="stroke:#181818;stroke-width:0.5;" width="188.0013" x="563.3566" y="175.2656"/><text fill="#000000" font-family="sans-serif" font-size="12" lengthAdjust="spacing" textLength="168.0013" x="573.3566" y="196.4043">&#12525;&#12464;&#12452;&#12531;&#12506;&#12540;&#12472;&#12408;&#12522;&#12480;&#12452;&#12524;&#12463;&#12488;</text><polygon fill="#F1F1F1" points="502.5492,665.0781,514.5492,677.0781,502.5492,689.0781,490.5492,677.0781,502.5492,665.0781" style="stroke:#181818;stroke-width:0.5;"/><ellipse cx="502.5492" cy="720.0781" fill="none" rx="11" ry="11" style="stroke:#222222;stroke-width:1;"/><ellipse cx="502.5492" cy="720.0781" fill="#222222" rx="6" ry="6" style="stroke:#222222;stroke-width:1;"/><line style="stroke:#181818;stroke-width:1;" x1="502.5492" x2="502.5492" y1="67.2969" y2="87.2969"/><polygon fill="#181818" points="498.5492,77.2969,502.5492,87.2969,506.5492,77.2969,502.5492,81.2969" style="stroke:#181818;stroke-width:1;"/><line style="stroke:#181818;stroke-width:1;" x1="63.0002" x2="63.0002" y1="411.1719" y2="431.1719"/><polygon fill="#181818" points="59.0002,421.1719,63.0002,431.1719,67.0002,421.1719,63.0002,425.1719" style="stroke:#181818;stroke-width:1;"/><line style="stroke:#181818;stroke-width:1;" x1="183.0008" x2="183.0008" y1="411.1719" y2="431.1719"/><polygon fill="#181818" points="179.0008,421.1719,183.0008,431.1719,187.0008,421.1719,183.0008,425.1719" style="stroke:#181818;stroke-width:1;"/><line style="stroke:#181818;stroke-width:1;" x1="63.0002" x2="63.0002" y1="465.1406" y2="485.1406"/><polygon fill="#181818" points="59.0002,475.1406,63.0002,485.1406,67.0002,475.1406,63.0002,479.1406" style="stroke:#181818;stroke-width:1;"/><line style="stroke:#181818;stroke-width:1;" x1="183.0008" x2="183.0008" y1="465.1406" y2="485.1406"/><polygon fill="#181818" points="179.0008,475.1406,183.0008,485.1406,187.0008,475.1406,183.0008,479.1406" style="stroke:#181818;stroke-width:1;"/><line style="stroke:#181818;stroke-width:1;" x1="129.0005" x2="129.0005" y1="385.1719" y2="405.1719"/><polygon fill="#181818" points="125.0005,395.1719,129.0005,405.1719,133.0005,395.1719,129.0005,399.1719" style="stroke:#181818;stroke-width:1;"/><line style="stroke:#181818;stroke-width:1;" x1="129.0005" x2="129.0005" y1="491.1406" y2="511.1406"/><polygon fill="#181818" points="125.0005,501.1406,129.0005,511.1406,133.0005,501.1406,129.0005,505.1406" style="stroke:#181818;stroke-width:1;"/><line style="stroke:#181818;stroke-width:1;" x1="129.0005" x2="129.0005" y1="545.1094" y2="565.1094"/><polygon fill="#181818" points="125.0005,555.1094,129.0005,565.1094,133.0005,555.1094,129.0005,559.1094" style="stroke:#181818;stroke-width:1;"/><line style="stroke:#181818;stroke-width:1;" x1="188.8494" x2="129.0005" y1="329.2031" y2="329.2031"/><line style="stroke:#181818;stroke-width:1;" x1="129.0005" x2="129.0005" y1="329.2031" y2="351.2031"/><polygon fill="#181818" points="125.0005,341.2031,129.0005,351.2031,133.0005,341.2031,129.0005,345.2031" style="stroke:#181818;stroke-width:1;"/><line style="stroke:#181818;stroke-width:1;" x1="262.6874" x2="322.5363" y1="329.2031" y2="329.2031"/><line style="stroke:#181818;stroke-width:1;" x1="322.5363" x2="322.5363" y1="329.2031" y2="351.2031"/><polygon fill="#181818" points="318.5363,341.2031,322.5363,351.2031,326.5363,341.2031,322.5363,345.2031" style="stroke:#181818;stroke-width:1;"/><line style="stroke:#181818;stroke-width:1;" x1="129.0005" x2="129.0005" y1="599.0781" y2="617.0781"/><line style="stroke:#181818;stroke-width:1;" x1="129.0005" x2="213.7684" y1="617.0781" y2="617.0781"/><polygon fill="#181818" points="203.7684,613.0781,213.7684,617.0781,203.7684,621.0781,207.7684,617.0781" style="stroke:#181818;stroke-width:1;"/><line style="stroke:#181818;stroke-width:1;" x1="322.5363" x2="322.5363" y1="385.1719" y2="617.0781"/><line style="stroke:#181818;stroke-width:1;" x1="322.5363" x2="237.7684" y1="617.0781" y2="617.0781"/><polygon fill="#181818" points="247.7684,613.0781,237.7684,617.0781,247.7684,621.0781,243.7684,617.0781" style="stroke:#181818;stroke-width:1;"/><line style="stroke:#181818;stroke-width:1;" x1="225.7684" x2="225.7684" y1="297.2031" y2="317.2031"/><polygon fill="#181818" points="221.7684,307.2031,225.7684,317.2031,229.7684,307.2031,225.7684,311.2031" style="stroke:#181818;stroke-width:1;"/><line style="stroke:#181818;stroke-width:1;" x1="299.8222" x2="225.7684" y1="241.2344" y2="241.2344"/><line style="stroke:#181818;stroke-width:1;" x1="225.7684" x2="225.7684" y1="241.2344" y2="263.2344"/><polygon fill="#181818" points="221.7684,253.2344,225.7684,263.2344,229.7684,253.2344,225.7684,257.2344" style="stroke:#181818;stroke-width:1;"/><line style="stroke:#181818;stroke-width:1;" x1="395.6602" x2="469.714" y1="241.2344" y2="241.2344"/><line style="stroke:#181818;stroke-width:1;" x1="469.714" x2="469.714" y1="241.2344" y2="263.2344"/><polygon fill="#181818" points="465.714,253.2344,469.714,263.2344,473.714,253.2344,469.714,257.2344" style="stroke:#181818;stroke-width:1;"/><line style="stroke:#181818;stroke-width:1;" x1="225.7684" x2="225.7684" y1="629.0781" y2="647.0781"/><line style="stroke:#181818;stroke-width:1;" x1="225.7684" x2="335.7412" y1="647.0781" y2="647.0781"/><polygon fill="#181818" points="325.7412,643.0781,335.7412,647.0781,325.7412,651.0781,329.7412,647.0781" style="stroke:#181818;stroke-width:1;"/><line style="stroke:#181818;stroke-width:1;" x1="469.714" x2="469.714" y1="297.2031" y2="647.0781"/><line style="stroke:#181818;stroke-width:1;" x1="469.714" x2="359.7412" y1="647.0781" y2="647.0781"/><polygon fill="#181818" points="369.7412,643.0781,359.7412,647.0781,369.7412,651.0781,365.7412,647.0781" style="stroke:#181818;stroke-width:1;"/><line style="stroke:#181818;stroke-width:1;" x1="347.7412" x2="347.7412" y1="209.2344" y2="229.2344"/><polygon fill="#181818" points="343.7412,219.2344,347.7412,229.2344,351.7412,219.2344,347.7412,223.2344" style="stroke:#181818;stroke-width:1;"/><line style="stroke:#181818;stroke-width:1;" x1="465.6302" x2="347.7412" y1="153.2656" y2="153.2656"/><line style="stroke:#181818;stroke-width:1;" x1="347.7412" x2="347.7412" y1="153.2656" y2="175.2656"/><polygon fill="#181818" points="343.7412,165.2656,347.7412,175.2656,351.7412,165.2656,347.7412,169.2656" style="stroke:#181818;stroke-width:1;"/><line style="stroke:#181818;stroke-width:1;" x1="539.4682" x2="657.3572" y1="153.2656" y2="153.2656"/><line style="stroke:#181818;stroke-width:1;" x1="657.3572" x2="657.3572" y1="153.2656" y2="175.2656"/><polygon fill="#181818" points="653.3572,165.2656,657.3572,175.2656,661.3572,165.2656,657.3572,169.2656" style="stroke:#181818;stroke-width:1;"/><line style="stroke:#181818;stroke-width:1;" x1="347.7412" x2="347.7412" y1="659.0781" y2="677.0781"/><line style="stroke:#181818;stroke-width:1;" x1="347.7412" x2="490.5492" y1="677.0781" y2="677.0781"/><polygon fill="#181818" points="480.5492,673.0781,490.5492,677.0781,480.5492,681.0781,484.5492,677.0781" style="stroke:#181818;stroke-width:1;"/><line style="stroke:#181818;stroke-width:1;" x1="657.3572" x2="657.3572" y1="209.2344" y2="677.0781"/><line style="stroke:#181818;stroke-width:1;" x1="657.3572" x2="514.5492" y1="677.0781" y2="677.0781"/><polygon fill="#181818" points="524.5492,673.0781,514.5492,677.0781,524.5492,681.0781,520.5492,677.0781" style="stroke:#181818;stroke-width:1;"/><line style="stroke:#181818;stroke-width:1;" x1="502.5492" x2="502.5492" y1="121.2656" y2="141.2656"/><polygon fill="#181818" points="498.5492,131.2656,502.5492,141.2656,506.5492,131.2656,502.5492,135.2656" style="stroke:#181818;stroke-width:1;"/><line style="stroke:#181818;stroke-width:1;" x1="502.5492" x2="502.5492" y1="689.0781" y2="709.0781"/><polygon fill="#181818" points="498.5492,699.0781,502.5492,709.0781,506.5492,699.0781,502.5492,703.0781" style="stroke:#181818;stroke-width:1;"/><!--SRC=[TPBDJi9058NtynIp0tOQNPM5Ez_01y2qI2DfJQaBNT6P1918888I5KFuKH51J30H3A4FSnrQtyAPAGXYt3GdSxzpvlRU2M4WJI03e1aWBQ3bGB3ReH2KVwj0Uq0dG7CeX84EX1Ry9T2-q6c7PH-yKcPvGYxyHiShJX6oTJkf_Ny3SO6qUJ3GPuHITioo4LA0TWLDEa36lCQArK-t4KL8Z-EmtotudSbib0F7tObWEw4PE7oYfI88OqK61RqDP-qQ1xaBO-7xLQgTiVnutStziyxJrtK9g0Fa4IZbjFG72VEYGu3a_thbxMKW8w05sNPVQf71Nkf-utoUX77Sj0xdKfgoiY-N5Q_Oj1fTWN3i8AORAoZXist9p7UWzrxpWmzZOT0CDKXUTjEJVTo95PAnLwdFSgK5hN3DylKrndShhF0MC5eofU6mOVxytVR65jurhNrTLJLZpXYg7aVhB2StyPuHExOJfgMVQgg00tGLLEI8NkNw-HkxaLCOWJCIswTfUTwJ-yf5KM3d3yGyGjy0]--></g></svg>