<svg xmlns="http://www.w3.org/2000/svg" xmlns:xlink="http://www.w3.org/1999/xlink" contentStyleType="text/css" data-diagram-type="CLASS" height="564px" preserveAspectRatio="none" style="width:579px;height:564px;background:#FFFFFF;" version="1.1" viewBox="0 0 579 564" width="579px" zoomAndPan="magnify"><title>&#12463;&#12521;&#12473;&#22259;&#12479;&#12452;&#12488;&#12523;</title><defs/><g><g class="title" data-source-line="4"><text fill="#000000" font-family="sans-serif" font-size="14" font-weight="bold" lengthAdjust="spacing" textLength="111.9995" x="226.7111" y="22.9951">&#12463;&#12521;&#12473;&#22259;&#12479;&#12452;&#12488;&#12523;</text></g><!--class AbstractEntity--><g class="entity" data-entity="AbstractEntity" data-source-line="6" data-uid="ent0002" id="entity_AbstractEntity"><rect fill="#F1F1F1" height="113.1875" rx="2.5" ry="2.5" style="stroke:#181818;stroke-width:0.5;" width="141.9102" x="9" y="245.6369"/><ellipse cx="28.6213" cy="261.6369" fill="#A9DCDF" rx="11" ry="11" style="stroke:#181818;stroke-width:1;"/><path d="M28.7307,256.9806 L27.5744,262.0588 L29.9025,262.0588 L28.7307,256.9806 Z M27.2463,254.7463 L30.2307,254.7463 L33.59,267.1369 L31.1369,267.1369 L30.3713,264.0744 L27.09,264.0744 L26.34,267.1369 L23.9025,267.1369 L27.2463,254.7463 Z " fill="#000000"/><text fill="#000000" font-family="sans-serif" font-size="14" font-style="italic" lengthAdjust="spacing" textLength="99.6406" x="43.6482" y="266.4836">AbstractEntity</text><line style="stroke:#181818;stroke-width:0.5;" x1="10" x2="149.9102" y1="277.6369" y2="277.6369"/><polygon fill="none" points="20,286.2853,24,290.2853,20,294.2853,16,290.2853" style="stroke:#B38D22;stroke-width:1;"/><text fill="#000000" font-family="sans-serif" font-size="14" lengthAdjust="spacing" textLength="62.1318" x="29" y="294.632">id: string</text><polygon fill="none" points="20,302.5822,24,306.5822,20,310.5822,16,306.5822" style="stroke:#B38D22;stroke-width:1;"/><text fill="#000000" font-family="sans-serif" font-size="14" lengthAdjust="spacing" textLength="111.3301" x="29" y="310.9289">createdAt: Date</text><polygon fill="none" points="20,318.8791,24,322.8791,20,326.8791,16,322.8791" style="stroke:#B38D22;stroke-width:1;"/><text fill="#000000" font-family="sans-serif" font-size="14" lengthAdjust="spacing" textLength="115.9102" x="29" y="327.2257">updatedAt: Date</text><line style="stroke:#181818;stroke-width:0.5;" x1="10" x2="149.9102" y1="334.5275" y2="334.5275"/><ellipse cx="20" cy="348.1759" fill="#84BE84" rx="3" ry="3" style="stroke:#038048;stroke-width:1;"/><text fill="#000000" font-family="sans-serif" font-size="14" lengthAdjust="spacing" textLength="96.2842" x="29" y="351.5226">getId(): string</text></g><!--class Repository--><g class="entity" data-entity="Repository" data-source-line="13" data-uid="ent0003" id="entity_Repository"><rect fill="#F1F1F1" height="113.1875" rx="2.5" ry="2.5" style="stroke:#181818;stroke-width:0.5;" width="181.9551" x="56.98" y="47.2969"/><ellipse cx="100.5787" cy="63.2969" fill="#B4A7E5" rx="11" ry="11" style="stroke:#181818;stroke-width:1;"/><path d="M96.5006,59.0625 L96.5006,56.9063 L103.8912,56.9063 L103.8912,59.0625 L101.4225,59.0625 L101.4225,67.1406 L103.8912,67.1406 L103.8912,69.2969 L96.5006,69.2969 L96.5006,67.1406 L98.9694,67.1406 L98.9694,59.0625 L96.5006,59.0625 Z " fill="#000000"/><text fill="#000000" font-family="sans-serif" font-size="14" font-style="italic" lengthAdjust="spacing" textLength="75.0723" x="120.934" y="68.1436">Repository</text><rect fill="#FFFFFF" height="15.9688" style="stroke:#181818;stroke-width:1;stroke-dasharray:2,2;" width="9.3301" x="232.605" y="44.2969"/><text fill="#000000" font-family="sans-serif" font-size="12" font-style="italic" lengthAdjust="spacing" textLength="7.3301" x="233.605" y="56.4355">T</text><line style="stroke:#181818;stroke-width:0.5;" x1="57.98" x2="237.9351" y1="79.2969" y2="79.2969"/><line style="stroke:#181818;stroke-width:0.5;" x1="57.98" x2="237.9351" y1="87.2969" y2="87.2969"/><ellipse cx="67.98" cy="100.9453" fill="#84BE84" rx="3" ry="3" style="stroke:#038048;stroke-width:1;"/><text fill="#000000" font-family="sans-serif" font-size="14" lengthAdjust="spacing" textLength="148.2578" x="76.98" y="104.292">findById(id: string): T</text><ellipse cx="67.98" cy="117.2422" fill="#84BE84" rx="3" ry="3" style="stroke:#038048;stroke-width:1;"/><text fill="#000000" font-family="sans-serif" font-size="14" lengthAdjust="spacing" textLength="83.501" x="76.98" y="120.5889">findAll(): T[]</text><ellipse cx="67.98" cy="133.5391" fill="#84BE84" rx="3" ry="3" style="stroke:#038048;stroke-width:1;"/><text fill="#000000" font-family="sans-serif" font-size="14" lengthAdjust="spacing" textLength="119.7725" x="76.98" y="136.8857">save(entity: T): T</text><ellipse cx="67.98" cy="149.8359" fill="#84BE84" rx="3" ry="3" style="stroke:#038048;stroke-width:1;"/><text fill="#000000" font-family="sans-serif" font-size="14" lengthAdjust="spacing" textLength="155.9551" x="76.98" y="153.1826">delete(id: string): void</text></g><!--class User--><g class="entity" data-entity="User" data-source-line="20" data-uid="ent0004" id="entity_User"><rect fill="#F1F1F1" height="113.1875" rx="2.5" ry="2.5" style="stroke:#181818;stroke-width:0.5;" width="150.5713" x="33.67" y="443.9669"/><ellipse cx="88.7506" cy="459.9669" fill="#ADD1B2" rx="11" ry="11" style="stroke:#181818;stroke-width:1;"/><path d="M91.7193,465.6075 Q91.1412,465.9044 90.5006,466.045 Q89.8599,466.2013 89.1568,466.2013 Q86.6568,466.2013 85.3287,464.5606 Q84.0162,462.9044 84.0162,459.7794 Q84.0162,456.6544 85.3287,454.9981 Q86.6568,453.3419 89.1568,453.3419 Q89.8599,453.3419 90.5006,453.4981 Q91.1568,453.6544 91.7193,453.9513 L91.7193,456.67 Q91.0943,456.0919 90.5006,455.8263 Q89.9068,455.545 89.2818,455.545 Q87.9381,455.545 87.2506,456.6231 Q86.5631,457.6856 86.5631,459.7794 Q86.5631,461.8731 87.2506,462.9513 Q87.9381,464.0138 89.2818,464.0138 Q89.9068,464.0138 90.5006,463.7481 Q91.0943,463.4669 91.7193,462.8888 L91.7193,465.6075 Z " fill="#000000"/><text fill="#000000" font-family="sans-serif" font-size="14" lengthAdjust="spacing" textLength="31.9102" x="109.2506" y="464.8136">User</text><line style="stroke:#181818;stroke-width:0.5;" x1="34.67" x2="183.2413" y1="475.9669" y2="475.9669"/><rect fill="none" height="6" style="stroke:#C82930;stroke-width:1;" width="6" x="41.67" y="486.6153"/><text fill="#000000" font-family="sans-serif" font-size="14" lengthAdjust="spacing" textLength="89.0586" x="53.67" y="492.962">name: string</text><rect fill="none" height="6" style="stroke:#C82930;stroke-width:1;" width="6" x="41.67" y="502.9122"/><text fill="#000000" font-family="sans-serif" font-size="14" lengthAdjust="spacing" textLength="87.9648" x="53.67" y="509.2589">email: string</text><line style="stroke:#181818;stroke-width:0.5;" x1="34.67" x2="183.2413" y1="516.5606" y2="516.5606"/><ellipse cx="44.67" cy="530.2091" fill="#84BE84" rx="3" ry="3" style="stroke:#038048;stroke-width:1;"/><text fill="#000000" font-family="sans-serif" font-size="14" lengthAdjust="spacing" textLength="124.5713" x="53.67" y="533.5557">getName(): string</text><ellipse cx="44.67" cy="546.5059" fill="#84BE84" rx="3" ry="3" style="stroke:#038048;stroke-width:1;"/><text fill="#000000" font-family="sans-serif" font-size="14" lengthAdjust="spacing" textLength="122.1104" x="53.67" y="549.8526">getEmail(): string</text></g><!--class UserRepository--><g class="entity" data-entity="UserRepository" data-source-line="27" data-uid="ent0006" id="entity_UserRepository"><rect fill="#F1F1F1" height="129.4844" rx="2.5" ry="2.5" style="stroke:#181818;stroke-width:0.5;" width="197.6162" x="186.15" y="237.4869"/><ellipse cx="227.5352" cy="253.4869" fill="#ADD1B2" rx="11" ry="11" style="stroke:#181818;stroke-width:1;"/><path d="M230.504,259.1275 Q229.9258,259.4244 229.2852,259.565 Q228.6446,259.7213 227.9415,259.7213 Q225.4415,259.7213 224.1133,258.0806 Q222.8008,256.4244 222.8008,253.2994 Q222.8008,250.1744 224.1133,248.5181 Q225.4415,246.8619 227.9415,246.8619 Q228.6446,246.8619 229.2852,247.0181 Q229.9415,247.1744 230.504,247.4713 L230.504,250.19 Q229.879,249.6119 229.2852,249.3463 Q228.6915,249.065 228.0665,249.065 Q226.7227,249.065 226.0352,250.1431 Q225.3477,251.2056 225.3477,253.2994 Q225.3477,255.3931 226.0352,256.4713 Q226.7227,257.5338 228.0665,257.5338 Q228.6915,257.5338 229.2852,257.2681 Q229.879,256.9869 230.504,256.4088 L230.504,259.1275 Z " fill="#000000"/><text fill="#000000" font-family="sans-serif" font-size="14" lengthAdjust="spacing" textLength="106.9824" x="247.3986" y="258.3336">UserRepository</text><line style="stroke:#181818;stroke-width:0.5;" x1="187.15" x2="382.7662" y1="269.4869" y2="269.4869"/><rect fill="none" height="6" style="stroke:#C82930;stroke-width:1;" width="6" x="194.15" y="280.1353"/><text fill="#000000" font-family="sans-serif" font-size="14" lengthAdjust="spacing" textLength="170.9121" x="206.15" y="286.482">dataSource: DataSource</text><line style="stroke:#181818;stroke-width:0.5;" x1="187.15" x2="382.7662" y1="293.7838" y2="293.7838"/><ellipse cx="197.15" cy="307.4322" fill="#84BE84" rx="3" ry="3" style="stroke:#038048;stroke-width:1;"/><text fill="#000000" font-family="sans-serif" font-size="14" lengthAdjust="spacing" textLength="171.6162" x="206.15" y="310.7789">findById(id: string): User</text><ellipse cx="197.15" cy="323.7291" fill="#84BE84" rx="3" ry="3" style="stroke:#038048;stroke-width:1;"/><text fill="#000000" font-family="sans-serif" font-size="14" lengthAdjust="spacing" textLength="106.8594" x="206.15" y="327.0757">findAll(): User[]</text><ellipse cx="197.15" cy="340.0259" fill="#84BE84" rx="3" ry="3" style="stroke:#038048;stroke-width:1;"/><text fill="#000000" font-family="sans-serif" font-size="14" lengthAdjust="spacing" textLength="166.4893" x="206.15" y="343.3726">save(entity: User): User</text><ellipse cx="197.15" cy="356.3228" fill="#84BE84" rx="3" ry="3" style="stroke:#038048;stroke-width:1;"/><text fill="#000000" font-family="sans-serif" font-size="14" lengthAdjust="spacing" textLength="155.9551" x="206.15" y="359.6695">delete(id: string): void</text></g><!--class UserService--><g class="entity" data-entity="UserService" data-source-line="35" data-uid="ent0008" id="entity_UserService"><rect fill="#F1F1F1" height="96.8906" rx="2.5" ry="2.5" style="stroke:#181818;stroke-width:0.5;" width="298.9316" x="273.49" y="55.4469"/><ellipse cx="376.8801" cy="71.4469" fill="#ADD1B2" rx="11" ry="11" style="stroke:#181818;stroke-width:1;"/><path d="M379.8489,77.0875 Q379.2708,77.3844 378.6301,77.525 Q377.9895,77.6813 377.2864,77.6813 Q374.7864,77.6813 373.4583,76.0406 Q372.1458,74.3844 372.1458,71.2594 Q372.1458,68.1344 373.4583,66.4781 Q374.7864,64.8219 377.2864,64.8219 Q377.9895,64.8219 378.6301,64.9781 Q379.2864,65.1344 379.8489,65.4313 L379.8489,68.15 Q379.2239,67.5719 378.6301,67.3063 Q378.0364,67.025 377.4114,67.025 Q376.0676,67.025 375.3801,68.1031 Q374.6926,69.1656 374.6926,71.2594 Q374.6926,73.3531 375.3801,74.4313 Q376.0676,75.4938 377.4114,75.4938 Q378.0364,75.4938 378.6301,75.2281 Q379.2239,74.9469 379.8489,74.3688 L379.8489,77.0875 Z " fill="#000000"/><text fill="#000000" font-family="sans-serif" font-size="14" lengthAdjust="spacing" textLength="83.6514" x="397.3801" y="76.2936">UserService</text><line style="stroke:#181818;stroke-width:0.5;" x1="274.49" x2="571.4216" y1="87.4469" y2="87.4469"/><rect fill="none" height="6" style="stroke:#C82930;stroke-width:1;" width="6" x="281.49" y="98.0953"/><text fill="#000000" font-family="sans-serif" font-size="14" lengthAdjust="spacing" textLength="187.25" x="293.49" y="104.442">repository: UserRepository</text><line style="stroke:#181818;stroke-width:0.5;" x1="274.49" x2="571.4216" y1="111.7438" y2="111.7438"/><ellipse cx="284.49" cy="125.3922" fill="#84BE84" rx="3" ry="3" style="stroke:#038048;stroke-width:1;"/><text fill="#000000" font-family="sans-serif" font-size="14" lengthAdjust="spacing" textLength="169.0322" x="293.49" y="128.7389">getUser(id: string): User</text><ellipse cx="284.49" cy="141.6891" fill="#84BE84" rx="3" ry="3" style="stroke:#038048;stroke-width:1;"/><text fill="#000000" font-family="sans-serif" font-size="14" lengthAdjust="spacing" textLength="272.9316" x="293.49" y="145.0357">createUser(data: CreateUserDto): User</text></g><!--reverse link AbstractEntity to User--><g class="link" data-entity-1="AbstractEntity" data-entity-2="User" data-source-line="21" data-uid="lnk5" id="link_AbstractEntity_User"><path d="M90.8596,377.0338 C94.7596,403.4438 96.77,417.0669 100.67,443.4869" fill="none" id="AbstractEntity-backto-User" style="stroke:#181818;stroke-width:1;"/><polygon fill="none" points="88.23,359.2269,84.9239,377.9103,96.7952,376.1572,88.23,359.2269" style="stroke:#181818;stroke-width:1;"/></g><!--reverse link Repository to UserRepository--><g class="link" data-entity-1="Repository" data-entity-2="UserRepository" data-source-line="28" data-uid="lnk7" id="link_Repository_UserRepository"><path d="M197.3286,175.6496 C213.9386,199.4596 223.1,212.5769 240.27,237.1969" fill="none" id="Repository-backto-UserRepository" style="stroke:#181818;stroke-width:1;stroke-dasharray:7,7;"/><polygon fill="none" points="187.03,160.8869,192.4077,179.0825,202.2495,172.2168,187.03,160.8869" style="stroke:#181818;stroke-width:1;"/></g><!--link UserService to UserRepository--><g class="link" data-entity-1="UserService" data-entity-2="UserRepository" data-source-line="41" data-uid="lnk9" id="link_UserService_UserRepository"><path codeLine="41" d="M389.37,152.6669 C371.5,178.0969 352.7299,204.7979 333.3899,232.3179" fill="none" id="UserService-to-UserRepository" style="stroke:#181818;stroke-width:1;"/><polygon fill="#181818" points="329.94,237.2269,338.3875,232.1633,332.8149,233.136,331.8421,227.5634,329.94,237.2269" style="stroke:#181818;stroke-width:1;"/><text fill="#000000" font-family="sans-serif" font-size="13" lengthAdjust="spacing" textLength="29.7832" x="363.96" y="203.5538">uses</text></g><!--link UserRepository to User--><g class="link" data-entity-1="UserRepository" data-entity-2="User" data-source-line="42" data-uid="lnk10" id="link_UserRepository_User"><path codeLine="42" d="M227.57,367.2469 C205.5,391.8669 184.5055,415.2897 163.1655,439.0897" fill="none" id="UserRepository-to-User" style="stroke:#181818;stroke-width:1;stroke-dasharray:7,7;"/><polygon fill="#181818" points="159.16,443.5569,168.1464,439.5264,162.4979,439.8342,162.1901,434.1857,159.16,443.5569" style="stroke:#181818;stroke-width:1;"/><text fill="#000000" font-family="sans-serif" font-size="13" lengthAdjust="spacing" textLength="59.8584" x="197.96" y="410.0338">manages</text></g><!--SRC=[ZLBBIWCn5DtdAowuQAMq7p18eTektBYmTIKkuinj2SoZJD9Y4Q7EW2Wk11UAk54HL1HS288WzcEYhVqBCuzEfqCLDo4vEVUUUqwI0-azI_z1UczVbo_IFv2-Mi-b_oJzT-aVajoKCBmx7lUlP7z_z7enF1gCpsu-1vxqJh-lxqSd7uG89aoSxUSDf7UhsaZ_aH2wpOLBTG6wIJc7IdoisQgm1xi4O06OeO62cTqAZxgBLA1H4HfKrIR4EcqZWnMWXMBLo2ycjNk4C5kWswGwmZgs7Sw4u_QM6kLGfm1DPXlBFLKp5LJLZUIkOff1kyRcLWXnsiKyXeCgC64QQAB0sHvTXnc1VcHoWwCBk2FGDkOwBe9DBKnvBW9Qb9af97ItfbWfVp5Q2wYpjgUoKzl0hBQ9bfgVfyA8zLMOjEvqN1t3FEFz7o45lRCv1TYyg08yNVA_mEheTfbwk6X0DvbOo_YQn12WlymOVQ2G41ZLO2K1giAPC9LwMhTOB6SJrA33aPCCMYf5H7LjKPks5EC7]--></g></svg>