<svg xmlns="http://www.w3.org/2000/svg" xmlns:xlink="http://www.w3.org/1999/xlink" contentStyleType="text/css" data-diagram-type="DESCRIPTION" height="584px" preserveAspectRatio="none" style="width:1016px;height:584px;background:#FFFFFF;" version="1.1" viewBox="0 0 1016 584" width="1016px" zoomAndPan="magnify"><title>&#12467;&#12531;&#12509;&#12540;&#12493;&#12531;&#12488;&#22259;&#12479;&#12452;&#12488;&#12523;</title><defs/><g><g class="title" data-source-line="4"><text fill="#000000" font-family="sans-serif" font-size="14" font-weight="bold" lengthAdjust="spacing" textLength="167.9993" x="417.0004" y="22.9951">&#12467;&#12531;&#12509;&#12540;&#12493;&#12531;&#12488;&#22259;&#12479;&#12452;&#12488;&#12523;</text></g><!--cluster Frontend--><g class="cluster" data-entity="Frontend" data-source-line="6" data-uid="ent0002" id="cluster_Frontend"><path d="M8.5,43.2969 L81.7285,43.2969 A3.75,3.75 0 0 1 84.2285,45.7969 L91.2285,65.5938 L342.5,65.5938 A2.5,2.5 0 0 1 345,68.0938 L345,138.0969 A2.5,2.5 0 0 1 342.5,140.5969 L8.5,140.5969 A2.5,2.5 0 0 1 6,138.0969 L6,45.7969 A2.5,2.5 0 0 1 8.5,43.2969" fill="none" style="stroke:#000000;stroke-width:1.5;"/><line style="stroke:#000000;stroke-width:1.5;" x1="6" x2="91.2285" y1="65.5938" y2="65.5938"/><text fill="#000000" font-family="sans-serif" font-size="14" font-weight="bold" lengthAdjust="spacing" textLength="72.2285" x="10" y="58.292">Frontend</text></g><!--cluster API Layer--><g class="cluster" data-entity="API Layer" data-source-line="11" data-uid="ent0005" id="cluster_API Layer"><path d="M115.5,189.5969 L191.5723,189.5969 A3.75,3.75 0 0 1 194.0723,192.0969 L201.0723,211.8938 L272.5,211.8938 A2.5,2.5 0 0 1 275,214.3938 L275,428.6869 A2.5,2.5 0 0 1 272.5,431.1869 L115.5,431.1869 A2.5,2.5 0 0 1 113,428.6869 L113,192.0969 A2.5,2.5 0 0 1 115.5,189.5969" fill="none" style="stroke:#000000;stroke-width:1.5;"/><line style="stroke:#000000;stroke-width:1.5;" x1="113" x2="201.0723" y1="211.8938" y2="211.8938"/><text fill="#000000" font-family="sans-serif" font-size="14" font-weight="bold" lengthAdjust="spacing" textLength="75.0723" x="117" y="204.592">API Layer</text></g><!--cluster Backend Services--><g class="cluster" data-entity="Backend Services" data-source-line="16" data-uid="ent0008" id="cluster_Backend Services"><path d="M301.5,333.8969 L441.1191,333.8969 A3.75,3.75 0 0 1 443.6191,336.3969 L450.6191,356.1938 L838.5,356.1938 A2.5,2.5 0 0 1 841,358.6938 L841,428.6869 A2.5,2.5 0 0 1 838.5,431.1869 L301.5,431.1869 A2.5,2.5 0 0 1 299,428.6869 L299,336.3969 A2.5,2.5 0 0 1 301.5,333.8969" fill="none" style="stroke:#000000;stroke-width:1.5;"/><line style="stroke:#000000;stroke-width:1.5;" x1="299" x2="450.6191" y1="356.1938" y2="356.1938"/><text fill="#000000" font-family="sans-serif" font-size="14" font-weight="bold" lengthAdjust="spacing" textLength="138.6191" x="303" y="348.892">Backend Services</text></g><!--cluster Data Layer--><g class="cluster" data-entity="Data Layer" data-source-line="22" data-uid="ent0012" id="cluster_Data Layer"><path d="M237.5,480.6869 L324.4756,480.6869 A3.75,3.75 0 0 1 326.9756,483.1869 L333.9756,502.9838 L625.5,502.9838 A2.5,2.5 0 0 1 628,505.4838 L628,574.4869 A2.5,2.5 0 0 1 625.5,576.9869 L237.5,576.9869 A2.5,2.5 0 0 1 235,574.4869 L235,483.1869 A2.5,2.5 0 0 1 237.5,480.6869" fill="none" style="stroke:#000000;stroke-width:1.5;"/><line style="stroke:#000000;stroke-width:1.5;" x1="235" x2="333.9756" y1="502.9838" y2="502.9838"/><text fill="#000000" font-family="sans-serif" font-size="14" font-weight="bold" lengthAdjust="spacing" textLength="85.9756" x="239" y="495.682">Data Layer</text></g><!--cluster External--><g class="cluster" data-entity="External" data-source-line="28" data-uid="ent0016" id="cluster_External"><path d="M654.5,480.1869 L721.3984,480.1869 A3.75,3.75 0 0 1 723.8984,482.6869 L730.8984,502.4838 L1006.5,502.4838 A2.5,2.5 0 0 1 1009,504.9838 L1009,574.9869 A2.5,2.5 0 0 1 1006.5,577.4869 L654.5,577.4869 A2.5,2.5 0 0 1 652,574.9869 L652,482.6869 A2.5,2.5 0 0 1 654.5,480.1869" fill="none" style="stroke:#000000;stroke-width:1.5;"/><line style="stroke:#000000;stroke-width:1.5;" x1="652" x2="730.8984" y1="502.4838" y2="502.4838"/><text fill="#000000" font-family="sans-serif" font-size="14" font-weight="bold" lengthAdjust="spacing" textLength="65.8984" x="656" y="495.182">External</text></g><!--entity webapp--><g class="entity" data-entity="webapp" data-source-line="7" data-uid="ent0003" id="entity_webapp"><rect fill="#F1F1F1" height="46.2969" rx="2.5" ry="2.5" style="stroke:#181818;stroke-width:0.5;" width="154.0166" x="21.99" y="78.2969"/><rect fill="#F1F1F1" height="10" style="stroke:#181818;stroke-width:0.5;" width="15" x="156.0066" y="83.2969"/><rect fill="#F1F1F1" height="2" style="stroke:#181818;stroke-width:0.5;" width="4" x="154.0066" y="85.2969"/><rect fill="#F1F1F1" height="2" style="stroke:#181818;stroke-width:0.5;" width="4" x="154.0066" y="89.2969"/><text fill="#000000" font-family="sans-serif" font-size="14" lengthAdjust="spacing" textLength="114.0166" x="36.99" y="111.292">Web Application</text></g><!--entity mobile--><g class="entity" data-entity="mobile" data-source-line="8" data-uid="ent0004" id="entity_mobile"><rect fill="#F1F1F1" height="46.2969" rx="2.5" ry="2.5" style="stroke:#181818;stroke-width:0.5;" width="117.7246" x="211.14" y="78.2969"/><rect fill="#F1F1F1" height="10" style="stroke:#181818;stroke-width:0.5;" width="15" x="308.8646" y="83.2969"/><rect fill="#F1F1F1" height="2" style="stroke:#181818;stroke-width:0.5;" width="4" x="306.8646" y="85.2969"/><rect fill="#F1F1F1" height="2" style="stroke:#181818;stroke-width:0.5;" width="4" x="306.8646" y="89.2969"/><text fill="#000000" font-family="sans-serif" font-size="14" lengthAdjust="spacing" textLength="77.7246" x="226.14" y="111.292">Mobile App</text></g><!--entity gateway--><g class="entity" data-entity="gateway" data-source-line="12" data-uid="ent0006" id="entity_gateway"><rect fill="#F1F1F1" height="46.2969" rx="2.5" ry="2.5" style="stroke:#181818;stroke-width:0.5;" width="128.4434" x="130.78" y="224.5969"/><rect fill="#F1F1F1" height="10" style="stroke:#181818;stroke-width:0.5;" width="15" x="239.2234" y="229.5969"/><rect fill="#F1F1F1" height="2" style="stroke:#181818;stroke-width:0.5;" width="4" x="237.2234" y="231.5969"/><rect fill="#F1F1F1" height="2" style="stroke:#181818;stroke-width:0.5;" width="4" x="237.2234" y="235.5969"/><text fill="#000000" font-family="sans-serif" font-size="14" lengthAdjust="spacing" textLength="88.4434" x="145.78" y="257.592">API Gateway</text></g><!--entity auth--><g class="entity" data-entity="auth" data-source-line="13" data-uid="ent0007" id="entity_auth"><rect fill="#F1F1F1" height="46.2969" rx="2.5" ry="2.5" style="stroke:#181818;stroke-width:0.5;" width="129.0039" x="129.5" y="368.8969"/><rect fill="#F1F1F1" height="10" style="stroke:#181818;stroke-width:0.5;" width="15" x="238.5039" y="373.8969"/><rect fill="#F1F1F1" height="2" style="stroke:#181818;stroke-width:0.5;" width="4" x="236.5039" y="375.8969"/><rect fill="#F1F1F1" height="2" style="stroke:#181818;stroke-width:0.5;" width="4" x="236.5039" y="379.8969"/><text fill="#000000" font-family="sans-serif" font-size="14" lengthAdjust="spacing" textLength="89.0039" x="144.5" y="401.892">Auth Service</text></g><!--entity user--><g class="entity" data-entity="user" data-source-line="17" data-uid="ent0009" id="entity_user"><rect fill="#F1F1F1" height="46.2969" rx="2.5" ry="2.5" style="stroke:#181818;stroke-width:0.5;" width="128.1016" x="314.95" y="368.8969"/><rect fill="#F1F1F1" height="10" style="stroke:#181818;stroke-width:0.5;" width="15" x="423.0516" y="373.8969"/><rect fill="#F1F1F1" height="2" style="stroke:#181818;stroke-width:0.5;" width="4" x="421.0516" y="375.8969"/><rect fill="#F1F1F1" height="2" style="stroke:#181818;stroke-width:0.5;" width="4" x="421.0516" y="379.8969"/><text fill="#000000" font-family="sans-serif" font-size="14" lengthAdjust="spacing" textLength="88.1016" x="329.95" y="401.892">User Service</text></g><!--entity order--><g class="entity" data-entity="order" data-source-line="18" data-uid="ent0010" id="entity_order"><rect fill="#F1F1F1" height="46.2969" rx="2.5" ry="2.5" style="stroke:#181818;stroke-width:0.5;" width="136.2227" x="477.89" y="368.8969"/><rect fill="#F1F1F1" height="10" style="stroke:#181818;stroke-width:0.5;" width="15" x="594.1127" y="373.8969"/><rect fill="#F1F1F1" height="2" style="stroke:#181818;stroke-width:0.5;" width="4" x="592.1127" y="375.8969"/><rect fill="#F1F1F1" height="2" style="stroke:#181818;stroke-width:0.5;" width="4" x="592.1127" y="379.8969"/><text fill="#000000" font-family="sans-serif" font-size="14" lengthAdjust="spacing" textLength="96.2227" x="492.89" y="401.892">Order Service</text></g><!--entity notification--><g class="entity" data-entity="notification" data-source-line="19" data-uid="ent0011" id="entity_notification"><rect fill="#F1F1F1" height="46.2969" rx="2.5" ry="2.5" style="stroke:#181818;stroke-width:0.5;" width="176.5205" x="648.74" y="368.8969"/><rect fill="#F1F1F1" height="10" style="stroke:#181818;stroke-width:0.5;" width="15" x="805.2605" y="373.8969"/><rect fill="#F1F1F1" height="2" style="stroke:#181818;stroke-width:0.5;" width="4" x="803.2605" y="375.8969"/><rect fill="#F1F1F1" height="2" style="stroke:#181818;stroke-width:0.5;" width="4" x="803.2605" y="379.8969"/><text fill="#000000" font-family="sans-serif" font-size="14" lengthAdjust="spacing" textLength="136.5205" x="663.74" y="401.892">Notification Service</text></g><!--entity postgres--><g class="entity" data-entity="postgres" data-source-line="23" data-uid="ent0013" id="entity_postgres"><path d="M250.62,525.6869 C250.62,515.6869 300.9965,515.6869 300.9965,515.6869 C300.9965,515.6869 351.3729,515.6869 351.3729,525.6869 L351.3729,550.9838 C351.3729,560.9838 300.9965,560.9838 300.9965,560.9838 C300.9965,560.9838 250.62,560.9838 250.62,550.9838 L250.62,525.6869" fill="#F1F1F1" style="stroke:#181818;stroke-width:0.5;"/><path d="M250.62,525.6869 C250.62,535.6869 300.9965,535.6869 300.9965,535.6869 C300.9965,535.6869 351.3729,535.6869 351.3729,525.6869" fill="none" style="stroke:#181818;stroke-width:0.5;"/><text fill="#000000" font-family="sans-serif" font-size="14" lengthAdjust="spacing" textLength="80.7529" x="260.62" y="552.682">PostgreSQL</text></g><!--entity redis--><g class="entity" data-entity="redis" data-source-line="24" data-uid="ent0014" id="entity_redis"><path d="M386.79,525.6869 C386.79,515.6869 415.9956,515.6869 415.9956,515.6869 C415.9956,515.6869 445.2011,515.6869 445.2011,525.6869 L445.2011,550.9838 C445.2011,560.9838 415.9956,560.9838 415.9956,560.9838 C415.9956,560.9838 386.79,560.9838 386.79,550.9838 L386.79,525.6869" fill="#F1F1F1" style="stroke:#181818;stroke-width:0.5;"/><path d="M386.79,525.6869 C386.79,535.6869 415.9956,535.6869 415.9956,535.6869 C415.9956,535.6869 445.2011,535.6869 445.2011,525.6869" fill="none" style="stroke:#181818;stroke-width:0.5;"/><text fill="#000000" font-family="sans-serif" font-size="14" lengthAdjust="spacing" textLength="38.4111" x="396.79" y="552.682">Redis</text></g><!--entity mq--><g class="entity" data-entity="mq" data-source-line="25" data-uid="ent0015" id="entity_mq"><path d="M485.1,525.1869 L606.9018,525.1869 C611.9018,525.1869 611.9018,538.3353 611.9018,538.3353 C611.9018,538.3353 611.9018,551.4838 606.9018,551.4838 L485.1,551.4838 C480.1,551.4838 480.1,538.3353 480.1,538.3353 C480.1,538.3353 480.1,525.1869 485.1,525.1869" fill="#F1F1F1" style="stroke:#181818;stroke-width:0.5;"/><path d="M606.9018,525.1869 C601.9018,525.1869 601.9018,538.3353 601.9018,538.3353 C601.9018,551.4838 606.9018,551.4838 606.9018,551.4838" fill="none" style="stroke:#181818;stroke-width:0.5;"/><text fill="#000000" font-family="sans-serif" font-size="14" lengthAdjust="spacing" textLength="111.8018" x="485.1" y="543.182">Message Queue</text></g><!--entity email--><g class="entity" data-entity="email" data-source-line="29" data-uid="ent0017" id="entity_email"><path d="M871.1457,524.6513 C873.1344,518.4991 878.3589,518.9519 881.9511,522.9432 C886.2252,517.5784 890.175,518.1364 893.6229,523.8164 C896.4353,519.056 901.0526,518.2233 904.4682,523.1405 C907.1892,517.0899 913.0216,515.0839 917.5863,521.1433 C920.4008,515.8534 923.8443,515.5463 927.4346,520.3893 C932.0199,513.8858 937.9742,516.5555 940.4984,522.5446 C943.8305,517.4522 948.567,517.774 951.7171,522.7475 C955.1433,516.9618 960.2521,516.8389 963.7201,522.7044 C967.3747,518.0499 970.8672,518.9466 973.9414,523.3588 C978.0982,517.6954 982.8756,517.3441 986.472,523.9321 C995.7412,525.3582 998.6466,530.1307 993.5561,538.5268 C997.5443,547.4482 995.7535,553.7793 985.0805,555.286 C982.7443,561.4546 978.6152,561.117 974.4936,557.1512 C972.4321,562.9297 967.062,563.319 963.6888,558.487 C959.8718,564.6941 955.0096,565.1358 950.3714,559.403 C948.407,566.7845 944.82,567.7952 939.0063,562.994 C935.6572,568.66 931.6615,568.693 927.925,563.3852 C924.0749,569.1417 919.1966,568.1072 915.7069,562.9807 C911.5449,566.5299 907.6094,565.4535 905.9742,560.1901 C901.8421,564.4955 896.7386,563.8216 894.492,558.0432 C889.1283,563.8823 884.3123,562.4063 881.3346,555.5671 C877.879,559.888 873.2822,559.3696 870.6463,554.603 C861.6356,553.6529 858.3677,548.9118 861.5428,540.2388 C857.6832,530.8279 860.0958,524.8769 871.1457,524.6513" fill="#F1F1F1" style="stroke:#181818;stroke-width:0.5;"/><text fill="#000000" font-family="sans-serif" font-size="14" lengthAdjust="spacing" textLength="101.4863" x="876.26" y="543.182">Email Provider</text></g><!--entity payment--><g class="entity" data-entity="payment" data-source-line="30" data-uid="ent0018" id="entity_payment"><path d="M675.9593,523.3354 C679.9465,517.3526 684.7587,516.5543 688.571,523.506 C691.8818,516.931 696.7843,518.2024 700.6517,522.91 C703.6682,516.3677 708.8406,516.6529 712.665,522.1006 C715.9911,516.5226 721.4436,515.9062 725.326,521.4683 C728.0355,516.0141 732.5249,516.1171 735.4364,521.2759 C738.3622,515.9241 744.2572,514.8873 747.4849,520.9573 C751.2475,516.1978 755.8367,516.216 759.1778,521.4504 C763.2615,516.8954 768.1814,517.1696 771.1506,522.765 C774.4736,516.0347 778.4769,517.2957 782.7886,521.7349 C787.1491,516.6246 793.381,515.6313 796.3427,523.227 C800.2951,518.7639 803.7728,518.2527 807.2053,523.7916 C811.1691,517.7487 814.9373,519.1247 818.6442,524.0593 C827.3664,524.8991 830.8645,532.779 825.7367,539.8426 C832.0421,547.9878 828.5943,555.3271 818.2126,555.4041 C814.3061,561.4441 809.621,560.0147 806.3454,554.7423 C803.1517,559.614 798.8458,560.3733 795.4647,554.9402 C791.6415,561.286 787.2207,562.3077 782.5611,555.7786 C779.1721,561.2659 774.5942,561.2091 770.8681,556.1523 C768.2034,561.8083 764.8825,562.6892 760.6159,557.6942 C757.0141,562.9197 750.5206,562.6463 747.3972,557.1068 C744.8719,562.1061 739.9324,562.975 737.0863,557.4201 C733.1421,563.3605 727.0425,563.6647 723.5151,556.9723 C719.2555,562.7554 715.2579,561.0192 712.2605,555.6936 C708.1037,560.5516 703.2115,560.8982 699.7823,554.8602 C697.497,560.819 692.4393,561.1599 689.0872,555.875 C684.561,561.8834 679.8861,561.0617 676.3369,554.8552 C667.5059,552.4301 665.6845,547.1626 670.7717,539.645 C663.9628,531.8115 665.8705,525.7944 675.9593,523.3354" fill="#F1F1F1" style="stroke:#181818;stroke-width:0.5;"/><text fill="#000000" font-family="sans-serif" font-size="14" lengthAdjust="spacing" textLength="128.2148" x="682.89" y="543.182">Payment Gateway</text></g><!--link webapp to gateway--><g class="link" data-entity-1="webapp" data-entity-2="gateway" data-source-line="33" data-uid="lnk19" id="link_webapp_gateway"><path d="M114,124.9969 C132.04,152.1069 158.7965,192.3214 176.7865,219.3614" fill="none" id="webapp-to-gateway" style="stroke:#181818;stroke-width:1;"/><polygon fill="#181818" points="180.11,224.3569,178.455,214.6481,177.3404,220.194,171.7945,219.0794,180.11,224.3569" style="stroke:#181818;stroke-width:1;"/><text fill="#000000" font-family="sans-serif" font-size="13" lengthAdjust="spacing" textLength="41.7485" x="146" y="169.6638">HTTPS</text></g><!--link mobile to gateway--><g class="link" data-entity-1="mobile" data-entity-2="gateway" data-source-line="34" data-uid="lnk20" id="link_mobile_gateway"><path d="M258.28,124.9969 C244.19,152.1069 223.4564,191.9927 209.4064,219.0327" fill="none" id="mobile-to-gateway" style="stroke:#181818;stroke-width:1;"/><polygon fill="#181818" points="206.64,224.3569,214.3391,218.2149,208.9454,219.9201,207.2402,214.5263,206.64,224.3569" style="stroke:#181818;stroke-width:1;"/><text fill="#000000" font-family="sans-serif" font-size="13" lengthAdjust="spacing" textLength="41.7485" x="243" y="169.6638">HTTPS</text></g><!--link gateway to auth--><g class="link" data-entity-1="gateway" data-entity-2="auth" data-source-line="36" data-uid="lnk21" id="link_gateway_auth"><path d="M194.84,271.2969 C194.65,297.9369 194.3806,335.997 194.2006,362.597" fill="none" id="gateway-to-auth" style="stroke:#181818;stroke-width:1;"/><polygon fill="#181818" points="194.16,368.5969,198.2208,359.6241,194.1938,363.597,190.221,359.57,194.16,368.5969" style="stroke:#181818;stroke-width:1;"/><text fill="#000000" font-family="sans-serif" font-size="13" lengthAdjust="spacing" textLength="77.8667" x="196" y="313.9638">verify token</text></g><!--link gateway to user--><g class="link" data-entity-1="gateway" data-entity-2="user" data-source-line="37" data-uid="lnk22" id="link_gateway_user"><path d="M236.42,271.1969 C251.24,279.8369 267.78,290.2069 282,300.8969 C309.75,321.7469 334.2908,345.1009 353.2208,364.2409" fill="none" id="gateway-to-user" style="stroke:#181818;stroke-width:1;"/><polygon fill="#181818" points="357.44,368.5069,353.9552,359.2951,353.924,364.9519,348.2673,364.9207,357.44,368.5069" style="stroke:#181818;stroke-width:1;"/><text fill="#000000" font-family="sans-serif" font-size="13" lengthAdjust="spacing" textLength="50.3877" x="303" y="313.9638">/users/*</text></g><!--link gateway to order--><g class="link" data-entity-1="gateway" data-entity-2="order" data-source-line="38" data-uid="lnk23" id="link_gateway_order"><path d="M259.56,260.4469 C315.03,272.1069 396.1,293.0769 461,325.8969 C483.23,337.1369 500.9408,350.5332 517.0908,364.4932" fill="none" id="gateway-to-order" style="stroke:#181818;stroke-width:1;"/><polygon fill="#181818" points="521.63,368.4169,517.4369,359.5052,517.8473,365.1471,512.2054,365.5575,521.63,368.4169" style="stroke:#181818;stroke-width:1;"/><text fill="#000000" font-family="sans-serif" font-size="13" lengthAdjust="spacing" textLength="56.9258" x="441" y="313.9638">/orders/*</text></g><!--link user to postgres--><g class="link" data-entity-1="user" data-entity-2="postgres" data-source-line="40" data-uid="lnk24" id="link_user_postgres"><path d="M331.94,415.5869 C314.3,423.5969 293.94,432.3169 275,439.1869 C262.83,443.6069 254.79,436.8569 247,447.1869 C230.41,469.1869 247.7422,492.5588 268.3922,511.3488" fill="none" id="user-to-postgres" style="stroke:#181818;stroke-width:1;"/><polygon fill="#181818" points="272.83,515.3869,268.8654,506.3712,269.1318,512.0218,263.4813,512.2883,272.83,515.3869" style="stroke:#181818;stroke-width:1;"/><text fill="#000000" font-family="sans-serif" font-size="13" lengthAdjust="spacing" textLength="66.625" x="248" y="460.2538">read/write</text></g><!--link order to postgres--><g class="link" data-entity-1="order" data-entity-2="postgres" data-source-line="41" data-uid="lnk25" id="link_order_postgres"><path d="M511.76,415.4669 C496.76,424.2669 478.6,433.5769 461,439.1869 C432.85,448.1769 421.7,434.5369 395,447.1869 C362.31,462.6869 337.4749,489.3153 320.6649,510.6353" fill="none" id="order-to-postgres" style="stroke:#181818;stroke-width:1;"/><polygon fill="#181818" points="316.95,515.3469,325.6635,510.7561,320.0458,511.4205,319.3813,505.8028,316.95,515.3469" style="stroke:#181818;stroke-width:1;"/><text fill="#000000" font-family="sans-serif" font-size="13" lengthAdjust="spacing" textLength="66.625" x="396" y="460.2538">read/write</text></g><!--link order to redis--><g class="link" data-entity-1="order" data-entity-2="redis" data-source-line="42" data-uid="lnk26" id="link_order_redis"><path d="M520.12,415.4569 C503.11,430.7169 480.8,451.7769 463,472.1869 C451.09,485.8569 442.5273,497.4877 433.6673,510.4977" fill="none" id="order-to-redis" style="stroke:#181818;stroke-width:1;"/><polygon fill="#181818" points="430.29,515.4569,438.6621,510.2696,433.1044,511.3242,432.0498,505.7665,430.29,515.4569" style="stroke:#181818;stroke-width:1;"/><text fill="#000000" font-family="sans-serif" font-size="13" lengthAdjust="spacing" textLength="38.4985" x="485" y="460.2538">cache</text></g><!--link order to mq--><g class="link" data-entity-1="order" data-entity-2="mq" data-source-line="43" data-uid="lnk27" id="link_order_mq"><path d="M544.47,415.6869 C543.88,425.3869 543.29,436.8369 543,447.1869 C542.23,474.8969 543.568,501.3997 544.708,518.8097" fill="none" id="order-to-mq" style="stroke:#181818;stroke-width:1;"/><polygon fill="#181818" points="545.1,524.7969,548.5034,515.5547,544.7733,519.8076,540.5205,516.0775,545.1,524.7969" style="stroke:#181818;stroke-width:1;"/><text fill="#000000" font-family="sans-serif" font-size="13" lengthAdjust="spacing" textLength="46.979" x="544" y="460.2538">publish</text></g><!--link notification to mq--><g class="link" data-entity-1="notification" data-entity-2="mq" data-source-line="45" data-uid="lnk28" id="link_notification_mq"><path d="M749.48,415.6769 C756.18,431.2169 760.88,451.2869 749,464.1869 C734.35,480.0969 672.55,465.4569 652,472.1869 C616.49,483.8269 585.2828,505.7735 565.7128,521.1935" fill="none" id="notification-to-mq" style="stroke:#181818;stroke-width:1;"/><polygon fill="#181818" points="561,524.9069,570.5448,522.4786,564.9273,521.8124,565.5936,516.1949,561,524.9069" style="stroke:#181818;stroke-width:1;"/><text fill="#000000" font-family="sans-serif" font-size="13" lengthAdjust="spacing" textLength="62.3911" x="757" y="460.2538">subscribe</text></g><!--link notification to email--><g class="link" data-entity-1="notification" data-entity-2="email" data-source-line="46" data-uid="lnk29" id="link_notification_email"><path d="M805.01,415.5769 C823.95,423.7569 843.76,434.2469 860,447.1869 C883.48,465.9169 899.9119,489.5688 911.7019,509.5588" fill="none" id="notification-to-email" style="stroke:#181818;stroke-width:1;"/><polygon fill="#181818" points="914.75,514.7269,913.6232,504.9427,912.2099,510.4201,906.7325,509.0068,914.75,514.7269" style="stroke:#181818;stroke-width:1;"/><text fill="#000000" font-family="sans-serif" font-size="13" lengthAdjust="spacing" textLength="31.2622" x="878" y="460.2538">send</text></g><!--link order to payment--><g class="link" data-entity-1="order" data-entity-2="payment" data-source-line="48" data-uid="lnk30" id="link_order_payment"><path d="M569.54,415.6669 C585.23,430.2569 606.64,449.2169 627,464.1869 C652.26,482.7669 677.1893,498.1347 700.9493,511.8047" fill="none" id="order-to-payment" style="stroke:#181818;stroke-width:1;"/><polygon fill="#181818" points="706.15,514.7969,700.3437,506.8415,701.8161,512.3034,696.3542,513.7758,706.15,514.7969" style="stroke:#181818;stroke-width:1;"/><text fill="#000000" font-family="sans-serif" font-size="13" lengthAdjust="spacing" textLength="112.2837" x="628" y="460.2538">process payment</text></g><!--SRC=[ZPBFQzH05CVlyrSCUoaKojuz22t-gD1gsgru40-Jv7LtQ9B9pansNSI32SY2YEB5Gn4gb2gqDmKfYFunWst_ZButsR29Fq08oNllyvtlJDwR5UxABwx2vuEhlhlgjO_dlmxn_TB7xrrrvj6ShQ3ucolFFJgw-FJgOlxswkJ5vTSZLxwx-lZvyiqFngoq2VpRjVpfocECNNNAM2wY0p44thkZLMOXYtly6UFyyIC8-NgU9p8ILghi2HU6Jo4KUKvqMuKIjq211wbFsVEMtNfmZs-96UY57-LtXOMfcFabmphsgB0ZFW0zaH5u9h3GCTl008_MYCp2yw41tLbOO8700nt_HXHL2DrNLkulVggZo5gWi_ajOKNxLsBCGs6G1ChOeOR1pbQF7F8wDHtDBiJIUAmfGZOke42m3SQG_mwbNf2EE_lUVcf1PoAfTuqILSHOJ8LCUA3LHCPq85m6L5eg0Z5B8RDDi-kJrJMohsV8rzPkDYFWD_ZctbumOFKK_ufOKo18uq4o0IttPzmg74s7qnIGz-bh-giTvkT0q0T4cPSJQ_g7M8E8-rCjBR1wnVzmts24aOX6xNewnc9UX8aq8yRQSrvYKuGcqZA4FxdlBqdm1hBsSHQDHc-jy58kstmD]--></g></svg>