<svg xmlns="http://www.w3.org/2000/svg" xmlns:xlink="http://www.w3.org/1999/xlink" contentStyleType="text/css" data-diagram-type="CLASS" height="724px" preserveAspectRatio="none" style="width:661px;height:724px;background:#FFFFFF;" version="1.1" viewBox="0 0 661 724" width="661px" zoomAndPan="magnify"><title>ER&#22259;&#12479;&#12452;&#12488;&#12523;</title><defs/><g><g class="title" data-source-line="4"><text fill="#000000" font-family="sans-serif" font-size="14" font-weight="bold" lengthAdjust="spacing" textLength="90.3434" x="278.441" y="22.9951">ER&#22259;&#12479;&#12452;&#12488;&#12523;</text></g><!--class users--><g class="entity" data-entity="users" data-source-line="6" data-uid="ent0002" id="entity_users"><rect fill="#F1F1F1" height="145.7813" rx="2.5" ry="2.5" style="stroke:#181818;stroke-width:0.5;" width="238.9873" x="18.71" y="44.2969"/><ellipse cx="115.0386" cy="60.2969" fill="#ADD1B2" rx="11" ry="11" style="stroke:#181818;stroke-width:1;"/><path d="M119.148,66.2969 L111.4292,66.2969 L111.4292,53.9063 L119.148,53.9063 L119.148,56.0625 L113.8824,56.0625 L113.8824,58.7344 L118.648,58.7344 L118.648,60.8906 L113.8824,60.8906 L113.8824,64.1406 L119.148,64.1406 L119.148,66.2969 Z " fill="#000000"/><text fill="#000000" font-family="sans-serif" font-size="14" lengthAdjust="spacing" textLength="37.8301" x="135.5386" y="65.1436">users</text><line style="stroke:#181818;stroke-width:0.5;" x1="19.71" x2="256.6973" y1="76.2969" y2="76.2969"/><ellipse cx="29.71" cy="89.9453" fill="#000000" rx="3" ry="3" style="stroke:#000000;stroke-width:1;"/><text fill="#000000" font-family="sans-serif" font-size="14" lengthAdjust="spacing" textLength="96.1201" x="38.71" y="93.292">id : uuid &#171;PK&#187;</text><line style="stroke:#181818;stroke-width:1;" x1="19.71" x2="256.6973" y1="100.5938" y2="100.5938"/><ellipse cx="29.71" cy="114.2422" fill="#000000" rx="3" ry="3" style="stroke:#000000;stroke-width:1;"/><text fill="#000000" font-family="sans-serif" font-size="14" lengthAdjust="spacing" textLength="212.9873" x="38.71" y="117.5889">email : varchar(255) &#171;unique&#187;</text><ellipse cx="29.71" cy="130.5391" fill="#000000" rx="3" ry="3" style="stroke:#000000;stroke-width:1;"/><text fill="#000000" font-family="sans-serif" font-size="14" lengthAdjust="spacing" textLength="212.1191" x="38.71" y="133.8857">password_hash : varchar(255)</text><text fill="#000000" font-family="sans-serif" font-size="14" lengthAdjust="spacing" textLength="144.4912" x="38.71" y="150.1826">name : varchar(100)</text><ellipse cx="29.71" cy="163.1328" fill="#000000" rx="3" ry="3" style="stroke:#000000;stroke-width:1;"/><text fill="#000000" font-family="sans-serif" font-size="14" lengthAdjust="spacing" textLength="163.8369" x="38.71" y="166.4795">created_at : timestamp</text><ellipse cx="29.71" cy="179.4297" fill="#000000" rx="3" ry="3" style="stroke:#000000;stroke-width:1;"/><text fill="#000000" font-family="sans-serif" font-size="14" lengthAdjust="spacing" textLength="168.417" x="38.71" y="182.7764">updated_at : timestamp</text></g><!--class orgs--><g class="entity" data-entity="orgs" data-source-line="16" data-uid="ent0003" id="entity_orgs"><rect fill="#F1F1F1" height="129.4844" rx="2.5" ry="2.5" style="stroke:#181818;stroke-width:0.5;" width="194.417" x="309" y="52.4469"/><ellipse cx="354.6641" cy="68.4469" fill="#ADD1B2" rx="11" ry="11" style="stroke:#181818;stroke-width:1;"/><path d="M358.7734,74.4469 L351.0547,74.4469 L351.0547,62.0563 L358.7734,62.0563 L358.7734,64.2125 L353.5078,64.2125 L353.5078,66.8844 L358.2734,66.8844 L358.2734,69.0406 L353.5078,69.0406 L353.5078,72.2906 L358.7734,72.2906 L358.7734,74.4469 Z " fill="#000000"/><text fill="#000000" font-family="sans-serif" font-size="14" lengthAdjust="spacing" textLength="94.5889" x="375.1641" y="73.2936">organizations</text><line style="stroke:#181818;stroke-width:0.5;" x1="310" x2="502.417" y1="84.4469" y2="84.4469"/><ellipse cx="320" cy="98.0953" fill="#000000" rx="3" ry="3" style="stroke:#000000;stroke-width:1;"/><text fill="#000000" font-family="sans-serif" font-size="14" lengthAdjust="spacing" textLength="96.1201" x="329" y="101.442">id : uuid &#171;PK&#187;</text><line style="stroke:#181818;stroke-width:1;" x1="310" x2="502.417" y1="108.7438" y2="108.7438"/><ellipse cx="320" cy="122.3922" fill="#000000" rx="3" ry="3" style="stroke:#000000;stroke-width:1;"/><text fill="#000000" font-family="sans-serif" font-size="14" lengthAdjust="spacing" textLength="144.4912" x="329" y="125.7389">name : varchar(255)</text><text fill="#000000" font-family="sans-serif" font-size="14" lengthAdjust="spacing" textLength="119.335" x="329" y="142.0357">description : text</text><ellipse cx="320" cy="154.9859" fill="#000000" rx="3" ry="3" style="stroke:#000000;stroke-width:1;"/><text fill="#000000" font-family="sans-serif" font-size="14" lengthAdjust="spacing" textLength="163.8369" x="329" y="158.3326">created_at : timestamp</text><ellipse cx="320" cy="171.2828" fill="#000000" rx="3" ry="3" style="stroke:#000000;stroke-width:1;"/><text fill="#000000" font-family="sans-serif" font-size="14" lengthAdjust="spacing" textLength="168.417" x="329" y="174.6295">updated_at : timestamp</text></g><!--class members--><g class="entity" data-entity="members" data-source-line="25" data-uid="ent0004" id="entity_members"><rect fill="#F1F1F1" height="129.4844" rx="2.5" ry="2.5" style="stroke:#181818;stroke-width:0.5;" width="216.0254" x="187.2" y="283.3769"/><ellipse cx="212.6814" cy="299.3769" fill="#ADD1B2" rx="11" ry="11" style="stroke:#181818;stroke-width:1;"/><path d="M216.7908,305.3769 L209.072,305.3769 L209.072,292.9863 L216.7908,292.9863 L216.7908,295.1425 L211.5251,295.1425 L211.5251,297.8144 L216.2908,297.8144 L216.2908,299.9706 L211.5251,299.9706 L211.5251,303.2206 L216.7908,303.2206 L216.7908,305.3769 Z " fill="#000000"/><text fill="#000000" font-family="sans-serif" font-size="14" lengthAdjust="spacing" textLength="160.7334" x="229.0106" y="304.2236">organization_members</text><line style="stroke:#181818;stroke-width:0.5;" x1="188.2" x2="402.2254" y1="315.3769" y2="315.3769"/><ellipse cx="198.2" cy="329.0253" fill="#000000" rx="3" ry="3" style="stroke:#000000;stroke-width:1;"/><text fill="#000000" font-family="sans-serif" font-size="14" lengthAdjust="spacing" textLength="96.1201" x="207.2" y="332.372">id : uuid &#171;PK&#187;</text><line style="stroke:#181818;stroke-width:1;" x1="188.2" x2="402.2254" y1="339.6738" y2="339.6738"/><ellipse cx="198.2" cy="353.3222" fill="#000000" rx="3" ry="3" style="stroke:#000000;stroke-width:1;"/><text fill="#000000" font-family="sans-serif" font-size="14" lengthAdjust="spacing" textLength="190.0254" x="207.2" y="356.6689">organization_id : uuid &#171;FK&#187;</text><ellipse cx="198.2" cy="369.6191" fill="#000000" rx="3" ry="3" style="stroke:#000000;stroke-width:1;"/><text fill="#000000" font-family="sans-serif" font-size="14" lengthAdjust="spacing" textLength="133.2666" x="207.2" y="372.9657">user_id : uuid &#171;FK&#187;</text><ellipse cx="198.2" cy="385.9159" fill="#000000" rx="3" ry="3" style="stroke:#000000;stroke-width:1;"/><text fill="#000000" font-family="sans-serif" font-size="14" lengthAdjust="spacing" textLength="80.4385" x="207.2" y="389.2626">role : enum</text><ellipse cx="198.2" cy="402.2128" fill="#000000" rx="3" ry="3" style="stroke:#000000;stroke-width:1;"/><text fill="#000000" font-family="sans-serif" font-size="14" lengthAdjust="spacing" textLength="152.9199" x="207.2" y="405.5595">joined_at : timestamp</text></g><!--class projects--><g class="entity" data-entity="projects" data-source-line="34" data-uid="ent0005" id="entity_projects"><rect fill="#F1F1F1" height="162.0781" rx="2.5" ry="2.5" style="stroke:#181818;stroke-width:0.5;" width="216.0254" x="438.2" y="267.0769"/><ellipse cx="513.867" cy="283.0769" fill="#ADD1B2" rx="11" ry="11" style="stroke:#181818;stroke-width:1;"/><path d="M517.9764,289.0769 L510.2576,289.0769 L510.2576,276.6863 L517.9764,276.6863 L517.9764,278.8425 L512.7107,278.8425 L512.7107,281.5144 L517.4764,281.5144 L517.4764,283.6706 L512.7107,283.6706 L512.7107,286.9206 L517.9764,286.9206 L517.9764,289.0769 Z " fill="#000000"/><text fill="#000000" font-family="sans-serif" font-size="14" lengthAdjust="spacing" textLength="56.1914" x="534.367" y="287.9236">projects</text><line style="stroke:#181818;stroke-width:0.5;" x1="439.2" x2="653.2254" y1="299.0769" y2="299.0769"/><ellipse cx="449.2" cy="312.7253" fill="#000000" rx="3" ry="3" style="stroke:#000000;stroke-width:1;"/><text fill="#000000" font-family="sans-serif" font-size="14" lengthAdjust="spacing" textLength="96.1201" x="458.2" y="316.072">id : uuid &#171;PK&#187;</text><line style="stroke:#181818;stroke-width:1;" x1="439.2" x2="653.2254" y1="323.3738" y2="323.3738"/><ellipse cx="449.2" cy="337.0222" fill="#000000" rx="3" ry="3" style="stroke:#000000;stroke-width:1;"/><text fill="#000000" font-family="sans-serif" font-size="14" lengthAdjust="spacing" textLength="190.0254" x="458.2" y="340.3689">organization_id : uuid &#171;FK&#187;</text><ellipse cx="449.2" cy="353.3191" fill="#000000" rx="3" ry="3" style="stroke:#000000;stroke-width:1;"/><text fill="#000000" font-family="sans-serif" font-size="14" lengthAdjust="spacing" textLength="144.4912" x="458.2" y="356.6657">name : varchar(255)</text><text fill="#000000" font-family="sans-serif" font-size="14" lengthAdjust="spacing" textLength="119.335" x="458.2" y="372.9626">description : text</text><ellipse cx="449.2" cy="385.9128" fill="#000000" rx="3" ry="3" style="stroke:#000000;stroke-width:1;"/><text fill="#000000" font-family="sans-serif" font-size="14" lengthAdjust="spacing" textLength="96.6328" x="458.2" y="389.2595">status : enum</text><ellipse cx="449.2" cy="402.2097" fill="#000000" rx="3" ry="3" style="stroke:#000000;stroke-width:1;"/><text fill="#000000" font-family="sans-serif" font-size="14" lengthAdjust="spacing" textLength="163.8369" x="458.2" y="405.5564">created_at : timestamp</text><ellipse cx="449.2" cy="418.5066" fill="#000000" rx="3" ry="3" style="stroke:#000000;stroke-width:1;"/><text fill="#000000" font-family="sans-serif" font-size="14" lengthAdjust="spacing" textLength="168.417" x="458.2" y="421.8532">updated_at : timestamp</text></g><!--class tasks--><g class="entity" data-entity="tasks" data-source-line="45" data-uid="ent0006" id="entity_tasks"><rect fill="#F1F1F1" height="210.9688" rx="2.5" ry="2.5" style="stroke:#181818;stroke-width:0.5;" width="194.417" x="7" y="506.1569"/><ellipse cx="81.5767" cy="522.1569" fill="#ADD1B2" rx="11" ry="11" style="stroke:#181818;stroke-width:1;"/><path d="M85.686,528.1569 L77.9673,528.1569 L77.9673,515.7663 L85.686,515.7663 L85.686,517.9225 L80.4204,517.9225 L80.4204,520.5944 L85.186,520.5944 L85.186,522.7506 L80.4204,522.7506 L80.4204,526.0006 L85.686,526.0006 L85.686,528.1569 Z " fill="#000000"/><text fill="#000000" font-family="sans-serif" font-size="14" lengthAdjust="spacing" textLength="36.7637" x="102.0767" y="527.0036">tasks</text><line style="stroke:#181818;stroke-width:0.5;" x1="8" x2="200.417" y1="538.1569" y2="538.1569"/><ellipse cx="18" cy="551.8053" fill="#000000" rx="3" ry="3" style="stroke:#000000;stroke-width:1;"/><text fill="#000000" font-family="sans-serif" font-size="14" lengthAdjust="spacing" textLength="96.1201" x="27" y="555.152">id : uuid &#171;PK&#187;</text><line style="stroke:#181818;stroke-width:1;" x1="8" x2="200.417" y1="562.4538" y2="562.4538"/><ellipse cx="18" cy="576.1022" fill="#000000" rx="3" ry="3" style="stroke:#000000;stroke-width:1;"/><text fill="#000000" font-family="sans-serif" font-size="14" lengthAdjust="spacing" textLength="151.6279" x="27" y="579.4489">project_id : uuid &#171;FK&#187;</text><text fill="#000000" font-family="sans-serif" font-size="14" lengthAdjust="spacing" textLength="164.7734" x="27" y="595.7457">assignee_id : uuid &#171;FK&#187;</text><ellipse cx="18" cy="608.6959" fill="#000000" rx="3" ry="3" style="stroke:#000000;stroke-width:1;"/><text fill="#000000" font-family="sans-serif" font-size="14" lengthAdjust="spacing" textLength="132.1592" x="27" y="612.0426">title : varchar(255)</text><text fill="#000000" font-family="sans-serif" font-size="14" lengthAdjust="spacing" textLength="119.335" x="27" y="628.3395">description : text</text><ellipse cx="18" cy="641.2897" fill="#000000" rx="3" ry="3" style="stroke:#000000;stroke-width:1;"/><text fill="#000000" font-family="sans-serif" font-size="14" lengthAdjust="spacing" textLength="96.6328" x="27" y="644.6364">status : enum</text><ellipse cx="18" cy="657.5866" fill="#000000" rx="3" ry="3" style="stroke:#000000;stroke-width:1;"/><text fill="#000000" font-family="sans-serif" font-size="14" lengthAdjust="spacing" textLength="104.1318" x="27" y="660.9332">priority : enum</text><text fill="#000000" font-family="sans-serif" font-size="14" lengthAdjust="spacing" textLength="110.127" x="27" y="677.2301">due_date : date</text><ellipse cx="18" cy="690.1803" fill="#000000" rx="3" ry="3" style="stroke:#000000;stroke-width:1;"/><text fill="#000000" font-family="sans-serif" font-size="14" lengthAdjust="spacing" textLength="163.8369" x="27" y="693.527">created_at : timestamp</text><ellipse cx="18" cy="706.4772" fill="#000000" rx="3" ry="3" style="stroke:#000000;stroke-width:1;"/><text fill="#000000" font-family="sans-serif" font-size="14" lengthAdjust="spacing" textLength="168.417" x="27" y="709.8239">updated_at : timestamp</text></g><!--link users to members--><g class="link" data-entity-1="users" data-entity-2="members" data-source-line="59" data-uid="lnk7" id="link_users_members"><path codeLine="59" d="M192.1942,196.9047 C212.5942,226.6547 221.338,239.4135 241.128,268.2635" fill="none" id="users-members" style="stroke:#181818;stroke-width:1;"/><line style="stroke:#181818;stroke-width:1;" x1="186.6332" x2="193.231" y1="195.8679" y2="191.3437"/><line style="stroke:#181818;stroke-width:1;" x1="188.3298" x2="194.9276" y1="198.3421" y2="193.8179"/><line style="stroke:#181818;stroke-width:1;" x1="192.1942" x2="187.67" y1="196.9047" y2="190.3069"/><line style="stroke:#181818;stroke-width:1;" x1="246.7847" x2="256.2578" y1="276.5098" y2="279.7129"/><line style="stroke:#181818;stroke-width:1;" x1="246.7847" x2="246.3622" y1="276.5098" y2="286.5009"/><line style="stroke:#181818;stroke-width:1;" x1="246.7847" x2="251.31" y1="276.5098" y2="283.1069"/><ellipse cx="243.3907" cy="271.562" fill="none" rx="4" ry="4" style="stroke:#181818;stroke-width:1;"/><text fill="#000000" font-family="sans-serif" font-size="13" lengthAdjust="spacing" textLength="22.9785" x="217.21" y="233.1438">has</text></g><!--link orgs to members--><g class="link" data-entity-1="orgs" data-entity-2="members" data-source-line="60" data-uid="lnk8" id="link_orgs_members"><path codeLine="60" d="M371.6504,189.4657 C356.3904,220.9457 349.3817,235.3796 334.1217,266.8596" fill="none" id="orgs-members" style="stroke:#181818;stroke-width:1;"/><line style="stroke:#181818;stroke-width:1;" x1="369.7958" x2="376.9946" y1="184.1215" y2="187.6111"/><line style="stroke:#181818;stroke-width:1;" x1="368.4872" x2="375.686" y1="186.821" y2="190.3106"/><line style="stroke:#181818;stroke-width:1;" x1="371.6504" x2="375.14" y1="189.4657" y2="182.2669"/><line style="stroke:#181818;stroke-width:1;" x1="329.7596" x2="331.6691" y1="275.8581" y2="285.6741"/><line style="stroke:#181818;stroke-width:1;" x1="329.7596" x2="320.8709" y1="275.8581" y2="280.4397"/><line style="stroke:#181818;stroke-width:1;" x1="329.7596" x2="326.27" y1="275.8581" y2="283.0569"/><ellipse cx="332.3768" cy="270.459" fill="none" rx="4" ry="4" style="stroke:#181818;stroke-width:1;"/><text fill="#000000" font-family="sans-serif" font-size="13" lengthAdjust="spacing" textLength="22.9785" x="354.21" y="233.1438">has</text></g><!--link orgs to projects--><g class="link" data-entity-1="orgs" data-entity-2="projects" data-source-line="61" data-uid="lnk9" id="link_orgs_projects"><path codeLine="61" d="M449.5644,189.0914 C465.5844,215.2814 470.7272,223.6919 487.6472,251.3519" fill="none" id="orgs-projects" style="stroke:#181818;stroke-width:1;"/><line style="stroke:#181818;stroke-width:1;" x1="444.065" x2="450.8895" y1="187.7664" y2="183.5919"/><line style="stroke:#181818;stroke-width:1;" x1="445.6304" x2="452.4549" y1="190.3255" y2="186.1511"/><line style="stroke:#181818;stroke-width:1;" x1="449.5644" x2="445.39" y1="189.0914" y2="182.2669"/><line style="stroke:#181818;stroke-width:1;" x1="492.8654" x2="502.1583" y1="259.8825" y2="263.5759"/><line style="stroke:#181818;stroke-width:1;" x1="492.8654" x2="491.9217" y1="259.8825" y2="269.8378"/><line style="stroke:#181818;stroke-width:1;" x1="492.8654" x2="497.04" y1="259.8825" y2="266.7069"/><ellipse cx="489.7345" cy="254.7641" fill="none" rx="4" ry="4" style="stroke:#181818;stroke-width:1;"/><text fill="#000000" font-family="sans-serif" font-size="13" lengthAdjust="spacing" textLength="33.5981" x="477.21" y="233.1438">owns</text></g><!--link projects to tasks--><g class="link" data-entity-1="projects" data-entity-2="tasks" data-source-line="62" data-uid="lnk10" id="link_projects_tasks"><path codeLine="62" d="M431.2025,423.069 C425.5325,426.569 426.72,425.8169 421.21,429.1569 C348.4,473.2769 280.4612,512.2073 217.3912,547.6573" fill="none" id="projects-tasks" style="stroke:#181818;stroke-width:1;"/><line style="stroke:#181818;stroke-width:1;" x1="432.5052" x2="436.7073" y1="417.5642" y2="424.3717"/><line style="stroke:#181818;stroke-width:1;" x1="429.9524" x2="434.1545" y1="419.14" y2="425.9475"/><line style="stroke:#181818;stroke-width:1;" x1="431.2025" x2="438.01" y1="423.069" y2="418.8669"/><line style="stroke:#181818;stroke-width:1;" x1="208.6739" x2="204.6399" y1="552.557" y2="561.7073"/><line style="stroke:#181818;stroke-width:1;" x1="208.6739" x2="198.7601" y1="552.557" y2="551.2465"/><line style="stroke:#181818;stroke-width:1;" x1="208.6739" x2="201.7" y1="552.557" y2="556.4769"/><ellipse cx="213.9043" cy="549.6172" fill="none" rx="4" ry="4" style="stroke:#181818;stroke-width:1;"/><text fill="#000000" font-family="sans-serif" font-size="13" lengthAdjust="spacing" textLength="55.0278" x="370.21" y="472.2238">contains</text></g><!--link users to tasks--><g class="link" data-entity-1="users" data-entity-2="tasks" data-source-line="63" data-uid="lnk11" id="link_users_tasks"><path codeLine="63" d="M108.7339,197.8737 C101.0039,221.9437 96.07,241.5369 92.21,267.0769 C80.2,346.5969 82.4717,419.6762 88.9117,488.0362" fill="none" id="users-tasks" style="stroke:#181818;stroke-width:1;"/><line style="stroke:#181818;stroke-width:1;" x1="106.1485" x2="113.7654" y1="192.8422" y2="195.2884"/><line style="stroke:#181818;stroke-width:1;" x1="105.2312" x2="112.8481" y1="195.6986" y2="198.1447"/><line style="stroke:#181818;stroke-width:1;" x1="108.7339" x2="111.18" y1="197.8737" y2="190.2569"/><line style="stroke:#181818;stroke-width:1;" x1="89.8497" x2="96.5736" y1="497.9921" y2="505.3941"/><line style="stroke:#181818;stroke-width:1;" x1="89.8497" x2="84.6264" y1="497.9921" y2="506.5196"/><line style="stroke:#181818;stroke-width:1;" x1="89.8497" x2="90.6" y1="497.9921" y2="505.9569"/><ellipse cx="89.2869" cy="492.0186" fill="none" rx="4" ry="4" style="stroke:#181818;stroke-width:1;"/><text fill="#000000" font-family="sans-serif" font-size="13" lengthAdjust="spacing" textLength="75.0483" x="93.21" y="352.6838">assigned to</text></g><!--SRC=[hLExIWGn5Etp5M4Q7x2WmZOYTjhOY3-mn9cB6zr9nZnyxThiWDe9DY9MWiM2Mba9eXyJnFqCRpBZk2wBwwj9RkuvISwvoPsWIsilb_SkFt8vZkSkltNveyjFo0Hr-R6FkyyklmZ1Gxztr- -TkEvP_whtUlf4YE6c1UKHoEjUuqwNtn020g5z6baDIaUKQHeYsYQKJbEUq7bgBKuB2wihYukOhDK20YdZBGHtc8gRJ4tErUjJIBA2Rri8n6cQCQrtfKeQJQQRGrma29R2G7PsPcOgR8iLC0D9Wnb43Kz16vPc0R9PCWew_F0XrGOJ_80PBaNX1pFZxGnfAHKce6F5Ct-Mlm_spFyARAIGhh_NlOp7Ilrqm21jUQMikt_1qOYIBMyJX4t3UbDoyQNQJCbDY4sXy7tn3n9_L6zKPQmUrFsd5p1CRnM6GZJMJMbxb17yu7n308msMJJTxrrcYalb9LUvn4B3syECdtvVYwB9EvrQJRQhdpTF8-pKY8IE-GPM_GS4vIws6wao9QCeCCAn58PnJ_bqSuMNXKoeaH5v0m00]--></g></svg>