<svg xmlns="http://www.w3.org/2000/svg" xmlns:xlink="http://www.w3.org/1999/xlink" contentStyleType="text/css" data-diagram-type="STATE" height="1024px" preserveAspectRatio="none" style="width:615px;height:1024px;background:#FFFFFF;" version="1.1" viewBox="0 0 615 1024" width="615px" zoomAndPan="magnify"><title>&#29366;&#24907;&#22259;&#12479;&#12452;&#12488;&#12523;</title><defs/><g><g class="title" data-source-line="4"><text fill="#000000" font-family="sans-serif" font-size="14" font-weight="bold" lengthAdjust="spacing" textLength="97.9996" x="248.3002" y="22.9951">&#29366;&#24907;&#22259;&#12479;&#12452;&#12488;&#12523;</text></g><!--cluster PendingReview--><g class="cluster" data-entity="PendingReview" data-source-line="16" data-uid="ent0003" id="cluster_PendingReview"><path d="M446.1,402.7369 L589.1,402.7369 A12.5,12.5 0 0 1 601.6,415.2369 L601.6,424.0337 L433.6,424.0337 L433.6,415.2369 A12.5,12.5 0 0 1 446.1,402.7369" fill="#F1F1F1"/><rect fill="none" height="615.45" rx="12.5" ry="12.5" style="stroke:#181818;stroke-width:0.5;" width="168" x="433.6" y="402.7369"/><line style="stroke:#181818;stroke-width:0.5;" x1="433.6" x2="601.6" y1="424.0337" y2="424.0337"/><text fill="#000000" font-family="sans-serif" font-size="14" lengthAdjust="spacing" textLength="107.0439" x="464.078" y="419.732">PendingReview</text></g><ellipse cx="486.6" cy="455.7369" fill="#222222" rx="10" ry="10" style="stroke:#222222;stroke-width:1;"/><g id="PendingReview.UnderReview"><rect fill="#F1F1F1" height="50" rx="12.5" ry="12.5" style="stroke:#181818;stroke-width:0.5;" width="112.9551" x="465.12" y="713.5369"/><line style="stroke:#181818;stroke-width:0.5;" x1="465.12" x2="578.0751" y1="739.8338" y2="739.8338"/><text fill="#000000" font-family="sans-serif" font-size="14" lengthAdjust="spacing" textLength="92.9551" x="475.12" y="731.532">UnderReview</text></g><g id="PendingReview.Rejected"><rect fill="#F1F1F1" height="50" rx="12.5" ry="12.5" style="stroke:#181818;stroke-width:0.5;" width="81.5303" x="480.83" y="944.1869"/><line style="stroke:#181818;stroke-width:0.5;" x1="480.83" x2="562.3603" y1="970.4838" y2="970.4838"/><text fill="#000000" font-family="sans-serif" font-size="14" lengthAdjust="spacing" textLength="61.5303" x="490.83" y="962.182">Rejected</text></g><path d="M225.22,609.8869 L345.98,609.8869 A12.5,12.5 0 0 1 358.48,622.3869 L358.48,636.1838 L212.72,636.1838 L212.72,622.3869 A12.5,12.5 0 0 1 225.22,609.8869" fill="#F1F1F1"/><rect fill="none" height="257.2969" rx="12.5" ry="12.5" style="stroke:#181818;stroke-width:0.5;" width="145.76" x="212.72" y="609.8869"/><line style="stroke:#181818;stroke-width:0.5;" x1="212.72" x2="358.48" y1="636.1838" y2="636.1838"/><text fill="#000000" font-family="sans-serif" font-size="14" lengthAdjust="spacing" textLength="35.5332" x="267.8334" y="627.882">Draft</text><ellipse cx="259.1" cy="657.1838" fill="#222222" rx="10" ry="10" style="stroke:#222222;stroke-width:1;"/><g id="Draft.Editing"><rect fill="#F1F1F1" height="50" rx="12.5" ry="12.5" style="stroke:#181818;stroke-width:0.5;" width="68.7607" x="224.72" y="704.1838"/><line style="stroke:#181818;stroke-width:0.5;" x1="224.72" x2="293.4807" y1="730.4806" y2="730.4806"/><text fill="#000000" font-family="sans-serif" font-size="14" lengthAdjust="spacing" textLength="48.7607" x="234.72" y="722.1789">Editing</text></g><g id="Draft.Ready"><rect fill="#F1F1F1" height="50" rx="12.5" ry="12.5" style="stroke:#181818;stroke-width:0.5;" width="64.0918" x="227.05" y="807.1838"/><line style="stroke:#181818;stroke-width:0.5;" x1="227.05" x2="291.1418" y1="833.4806" y2="833.4806"/><text fill="#000000" font-family="sans-serif" font-size="14" lengthAdjust="spacing" textLength="44.0918" x="237.05" y="825.1789">Ready</text></g><!--link *start*Draft to Editing--><g class="link" data-entity-1=".start.Draft" data-entity-2="Editing" data-source-line="9" data-uid="lnk6" id="link_.start.Draft_Editing"><path d="M259.1,667.6238 C259.1,676.8838 259.1,685.3738 259.1,697.8638" fill="none" id="*start*Draft-to-Editing" style="stroke:#181818;stroke-width:1;"/><polygon fill="#181818" points="259.1,703.8638,263.1,694.8638,259.1,698.8638,255.1,694.8638,259.1,703.8638" style="stroke:#181818;stroke-width:1;"/></g><!--link Editing to Editing--><g class="link" data-entity-1="Editing" data-entity-2="Editing" data-source-line="10" data-uid="lnk7" id="link_Editing_Editing"><path d="M293.86,721.0638 C303.81,721.3738 311.48,724.0838 311.48,729.1838 C311.48,734.2838 309.8071,736.8069 299.8571,737.1169" fill="none" id="Editing-to-Editing" style="stroke:#181818;stroke-width:1;"/><polygon fill="#181818" points="293.86,737.3038,302.9802,741.0215,298.8576,737.148,302.7311,733.0254,293.86,737.3038" style="stroke:#181818;stroke-width:1;"/><text fill="#000000" font-family="sans-serif" font-size="13" lengthAdjust="spacing" textLength="26" x="317.48" y="733.7506">&#32232;&#38598;</text></g><!--link Editing to Ready--><g class="link" data-entity-1="Editing" data-entity-2="Ready" data-source-line="11" data-uid="lnk9" id="link_Editing_Ready"><path d="M259.1,754.6338 C259.1,770.5138 259.1,785.1238 259.1,800.9638" fill="none" id="Editing-to-Ready" style="stroke:#181818;stroke-width:1;"/><polygon fill="#181818" points="259.1,806.9638,263.1,797.9638,259.1,801.9638,255.1,797.9638,259.1,806.9638" style="stroke:#181818;stroke-width:1;"/><text fill="#000000" font-family="sans-serif" font-size="13" lengthAdjust="spacing" textLength="26" x="260.1" y="785.2506">&#23436;&#20102;</text></g><path d="M299.79,44.2969 L409.4001,44.2969 A12.5,12.5 0 0 1 421.9001,56.7969 L421.9001,70.5938 L287.29,70.5938 L287.29,56.7969 A12.5,12.5 0 0 1 299.79,44.2969" fill="#F1F1F1"/><rect fill="none" height="257.2969" rx="12.5" ry="12.5" style="stroke:#181818;stroke-width:0.5;" width="134.6101" x="287.29" y="44.2969"/><line style="stroke:#181818;stroke-width:0.5;" x1="287.29" x2="421.9001" y1="70.5938" y2="70.5938"/><text fill="#000000" font-family="sans-serif" font-size="14" lengthAdjust="spacing" textLength="67.457" x="320.8665" y="62.292">Approved</text><ellipse cx="345.9" cy="91.5938" fill="#222222" rx="10" ry="10" style="stroke:#222222;stroke-width:1;"/><g id="Approved.Scheduled"><rect fill="#F1F1F1" height="50" rx="12.5" ry="12.5" style="stroke:#181818;stroke-width:0.5;" width="93.2197" x="299.29" y="138.5938"/><line style="stroke:#181818;stroke-width:0.5;" x1="299.29" x2="392.5097" y1="164.8906" y2="164.8906"/><text fill="#000000" font-family="sans-serif" font-size="14" lengthAdjust="spacing" textLength="73.2197" x="309.29" y="156.5889">Scheduled</text></g><g id="Approved.Published"><rect fill="#F1F1F1" height="50" rx="12.5" ry="12.5" style="stroke:#181818;stroke-width:0.5;" width="87.6484" x="302.08" y="241.5938"/><line style="stroke:#181818;stroke-width:0.5;" x1="302.08" x2="389.7284" y1="267.8906" y2="267.8906"/><text fill="#000000" font-family="sans-serif" font-size="14" lengthAdjust="spacing" textLength="67.6484" x="312.08" y="259.5889">Published</text></g><!--link *start*Approved to Scheduled--><g class="link" data-entity-1=".start.Approved" data-entity-2="Scheduled" data-source-line="25" data-uid="lnk20" id="link_.start.Approved_Scheduled"><path d="M345.9,102.0338 C345.9,111.2937 345.9,119.7838 345.9,132.2738" fill="none" id="*start*Approved-to-Scheduled" style="stroke:#181818;stroke-width:1;"/><polygon fill="#181818" points="345.9,138.2738,349.9,129.2738,345.9,133.2738,341.9,129.2738,345.9,138.2738" style="stroke:#181818;stroke-width:1;"/></g><!--link Scheduled to Published--><g class="link" data-entity-1="Scheduled" data-entity-2="Published" data-source-line="26" data-uid="lnk22" id="link_Scheduled_Published"><path d="M345.9,189.0438 C345.9,204.9237 345.9,219.5338 345.9,235.3738" fill="none" id="Scheduled-to-Published" style="stroke:#181818;stroke-width:1;"/><polygon fill="#181818" points="345.9,241.3738,349.9,232.3738,345.9,236.3738,341.9,232.3738,345.9,241.3738" style="stroke:#181818;stroke-width:1;"/><text fill="#000000" font-family="sans-serif" font-size="13" lengthAdjust="spacing" textLength="65.0001" x="346.9" y="219.6606">&#20844;&#38283;&#26085;&#21040;&#26469;</text></g><path d="M91.6,378.5969 L193.6,378.5969 A12.5,12.5 0 0 1 206.1,391.0969 L206.1,404.8937 L79.1,404.8937 L79.1,391.0969 A12.5,12.5 0 0 1 91.6,378.5969" fill="#F1F1F1"/><rect fill="none" height="154.2969" rx="12.5" ry="12.5" style="stroke:#181818;stroke-width:0.5;" width="127" x="79.1" y="378.5969"/><line style="stroke:#181818;stroke-width:0.5;" x1="79.1" x2="206.1" y1="404.8937" y2="404.8937"/><text fill="#000000" font-family="sans-serif" font-size="14" lengthAdjust="spacing" textLength="43.5518" x="120.8241" y="396.592">Active</text><ellipse cx="116.1" cy="425.8937" fill="#222222" rx="10" ry="10" style="stroke:#222222;stroke-width:1;"/><g id="Active.Live"><rect fill="#F1F1F1" height="50" rx="12.5" ry="12.5" style="stroke:#181818;stroke-width:0.5;" width="50" x="91.1" y="472.8937"/><line style="stroke:#181818;stroke-width:0.5;" x1="91.1" x2="141.1" y1="499.1906" y2="499.1906"/><text fill="#000000" font-family="sans-serif" font-size="14" lengthAdjust="spacing" textLength="28.5879" x="101.8061" y="490.8889">Live</text></g><!--link *start*Active to Live--><g class="link" data-entity-1=".start.Active" data-entity-2="Live" data-source-line="32" data-uid="lnk26" id="link_.start.Active_Live"><path d="M116.1,436.3337 C116.1,445.5937 116.1,454.0837 116.1,466.5737" fill="none" id="*start*Active-to-Live" style="stroke:#181818;stroke-width:1;"/><polygon fill="#181818" points="116.1,472.5737,120.1,463.5737,116.1,467.5737,112.1,463.5737,116.1,472.5737" style="stroke:#181818;stroke-width:1;"/></g><!--link Live to Live--><g class="link" data-entity-1="Live" data-entity-2="Live" data-source-line="33" data-uid="lnk27" id="link_Live_Live"><path d="M141.28,489.7737 C151.01,489.4037 159.1,492.1138 159.1,497.8937 C159.1,503.6737 157.0057,506.6117 147.2757,506.2417" fill="none" id="Live-to-Live" style="stroke:#181818;stroke-width:1;"/><polygon fill="#181818" points="141.28,506.0137,150.1215,510.3529,146.2764,506.2037,150.4255,502.3586,141.28,506.0137" style="stroke:#181818;stroke-width:1;"/><text fill="#000000" font-family="sans-serif" font-size="13" lengthAdjust="spacing" textLength="26" x="165.1" y="502.4606">&#26356;&#26032;</text></g><path d="M19.5,661.8869 L81.6973,661.8869 A12.5,12.5 0 0 1 94.1973,674.3869 L94.1973,688.1838 L7,688.1838 L7,674.3869 A12.5,12.5 0 0 1 19.5,661.8869" fill="#F1F1F1"/><rect fill="none" height="153.2969" rx="12.5" ry="12.5" style="stroke:#181818;stroke-width:0.5;" width="87.1973" x="7" y="661.8869"/><line style="stroke:#181818;stroke-width:0.5;" x1="7" x2="94.1973" y1="688.1838" y2="688.1838"/><text fill="#000000" font-family="sans-serif" font-size="14" lengthAdjust="spacing" textLength="61.5781" x="19.8096" y="679.882">Archived</text><ellipse cx="52.1" cy="709.1838" fill="#222222" rx="10" ry="10" style="stroke:#222222;stroke-width:1;"/><g id="Archived.Stored"><rect fill="#F1F1F1" height="50" rx="12.5" ry="12.5" style="stroke:#181818;stroke-width:0.5;" width="66.1973" x="19" y="755.1838"/><line style="stroke:#181818;stroke-width:0.5;" x1="19" x2="85.1973" y1="781.4806" y2="781.4806"/><text fill="#000000" font-family="sans-serif" font-size="14" lengthAdjust="spacing" textLength="46.1973" x="29" y="773.1789">Stored</text></g><!--link *start*Archived to Stored--><g class="link" data-entity-1=".start.Archived" data-entity-2="Stored" data-source-line="40" data-uid="lnk32" id="link_.start.Archived_Stored"><path d="M52.1,719.4938 C52.1,728.5338 52.1,736.6738 52.1,748.9138" fill="none" id="*start*Archived-to-Stored" style="stroke:#181818;stroke-width:1;"/><polygon fill="#181818" points="52.1,754.9138,56.1,745.9138,52.1,749.9138,48.1,745.9138,52.1,754.9138" style="stroke:#181818;stroke-width:1;"/></g><ellipse cx="251.6" cy="455.7369" fill="#222222" rx="10" ry="10" style="stroke:#222222;stroke-width:1;"/><ellipse cx="50.6" cy="969.1869" fill="none" rx="11" ry="11" style="stroke:#222222;stroke-width:1;"/><ellipse cx="50.6" cy="969.1869" fill="#222222" rx="6" ry="6" style="stroke:#222222;stroke-width:1;"/><!--link *start* to Draft--><g class="link" data-entity-1=".start." data-entity-2="Draft" data-source-line="6" data-uid="lnk3" id="link_.start._Draft"><path d="M251.24,466.1069 C250.57,484.6069 249.1,527.1269 248.6,562.8869 C248.49,570.4469 247.73,572.3869 248.6,579.8869 C249.73,589.6669 250.2003,593.8076 251.9703,603.8676" fill="none" id="*start*-to-Draft" style="stroke:#181818;stroke-width:1;"/><polygon fill="#181818" points="253.01,609.7769,255.3899,600.2199,252.1436,604.8525,247.511,601.6062,253.01,609.7769" style="stroke:#181818;stroke-width:1;"/><text fill="#000000" font-family="sans-serif" font-size="13" lengthAdjust="spacing" textLength="26" x="249.6" y="575.9538">&#20316;&#25104;</text></g><!--link Draft to PendingReview--><g class="link" data-entity-1="Draft" data-entity-2="PendingReview" data-source-line="14" data-uid="lnk10" id="link_Draft_PendingReview"><path d="M297.7,609.4069 C302.27,593.1169 308.39,577.1769 316.6,562.8869 C334.46,531.7769 365.02,505.5769 391.4512,486.9906 C404.6669,477.6975 416.8503,470.3078 425.898,465.1595 C428.1599,463.8725 430.2258,462.7255 432.0629,461.7239 C432.5222,461.4735 427.687,464.0818 428.1172,463.8497" fill="none" id="Draft-to-PendingReview" style="stroke:#181818;stroke-width:1;"/><polygon fill="#181818" points="433.3973,461,423.5773,461.7544,428.9972,463.3747,427.3769,468.7945,433.3973,461" style="stroke:#181818;stroke-width:1;"/><text fill="#000000" font-family="sans-serif" font-size="13" lengthAdjust="spacing" textLength="26" x="317.6" y="575.9538">&#30003;&#35531;</text></g><!--link PendingReview to Draft--><g class="link" data-entity-1="PendingReview" data-entity-2="Draft" data-source-line="22" data-uid="lnk17" id="link_PendingReview_Draft"><path d="M433.4652,471.3852 C428.6084,480.1266 421.8281,492.33 413.8188,506.7456 C397.8,535.5769 379.7789,568.012 359.4839,604.542" fill="none" id="PendingReview-to-Draft" style="stroke:#181818;stroke-width:1;"/><polygon fill="#181818" points="356.57,609.7869,364.4375,603.8621,358.9983,605.4161,357.4443,599.9769,356.57,609.7869" style="stroke:#181818;stroke-width:1;"/><text fill="#000000" font-family="sans-serif" font-size="13" lengthAdjust="spacing" textLength="52.0001" x="382.6" y="575.9538">&#24046;&#12375;&#25147;&#12375;</text></g><!--link *start*PendingReview to UnderReview--><g class="link" data-entity-1=".start.PendingReview" data-entity-2="UnderReview" data-source-line="17" data-uid="lnk13" id="link_.start.PendingReview_UnderReview"><path d="M487.76,466.0869 C492.6,504.9069 510.478,648.2829 517.838,707.3429" fill="none" id="*start*PendingReview-to-UnderReview" style="stroke:#181818;stroke-width:1;"/><polygon fill="#181818" points="518.58,713.2969,521.4363,703.8713,517.9617,708.3353,513.4977,704.8606,518.58,713.2969" style="stroke:#181818;stroke-width:1;"/></g><!--link UnderReview to Approved--><g class="link" data-entity-1="UnderReview" data-entity-2="Approved" data-source-line="18" data-uid="lnk14" id="link_UnderReview_Approved"><path d="M526.27,713.0869 C536.55,653.6669 556.98,497.8169 514.6,378.5969 C495.64,325.2669 460.9013,279.4349 426.2413,242.0849" fill="none" id="UnderReview-to-Approved" style="stroke:#181818;stroke-width:1;"/><polygon fill="#181818" points="422.16,237.6869,425.3499,247.0048,425.5611,241.3519,431.214,241.5631,422.16,237.6869" style="stroke:#181818;stroke-width:1;"/><text fill="#000000" font-family="sans-serif" font-size="13" lengthAdjust="spacing" textLength="26" x="540.6" y="460.3038">&#25215;&#35469;</text></g><!--link UnderReview to Rejected--><g class="link" data-entity-1="UnderReview" data-entity-2="Rejected" data-source-line="19" data-uid="lnk16" id="link_UnderReview_Rejected"><path d="M521.6,764.0069 C521.6,808.0169 521.6,894.0169 521.6,937.8969" fill="none" id="UnderReview-to-Rejected" style="stroke:#181818;stroke-width:1;"/><polygon fill="#181818" points="521.6,943.8969,525.6,934.8969,521.6,938.8969,517.6,934.8969,521.6,943.8969" style="stroke:#181818;stroke-width:1;"/><text fill="#000000" font-family="sans-serif" font-size="13" lengthAdjust="spacing" textLength="26" x="522.6" y="910.2538">&#21364;&#19979;</text></g><!--link Approved to Active--><g class="link" data-entity-1="Approved" data-entity-2="Active" data-source-line="29" data-uid="lnk23" id="link_Approved_Active"><path d="M286.94,263.5669 C259.07,300.4769 230.7253,338.0184 203.9753,373.4484" fill="none" id="Approved-to-Active" style="stroke:#181818;stroke-width:1;"/><polygon fill="#181818" points="200.36,378.2369,208.9753,373.4644,203.3728,374.2465,202.5907,368.644,200.36,378.2369" style="stroke:#181818;stroke-width:1;"/><text fill="#000000" font-family="sans-serif" font-size="13" lengthAdjust="spacing" textLength="52.0001" x="231.6" y="344.6638">&#21363;&#26178;&#20844;&#38283;</text></g><!--link Active to Archived--><g class="link" data-entity-1="Active" data-entity-2="Archived" data-source-line="36" data-uid="lnk28" id="link_Active_Archived"><path d="M78.67,513.1969 C65.99,527.9769 54.48,544.8669 47.6,562.8869 C35.8,593.7669 34.1125,624.0359 36.6225,655.4759" fill="none" id="Active-to-Archived" style="stroke:#181818;stroke-width:1;"/><polygon fill="#181818" points="37.1,661.4569,40.3711,652.1671,36.7021,656.4727,32.3965,652.8037,37.1,661.4569" style="stroke:#181818;stroke-width:1;"/><text fill="#000000" font-family="sans-serif" font-size="13" lengthAdjust="spacing" textLength="65.0001" x="48.6" y="575.9538">&#12450;&#12540;&#12459;&#12452;&#12502;</text></g><!--link Active to Draft--><g class="link" data-entity-1="Active" data-entity-2="Draft" data-source-line="37" data-uid="lnk29" id="link_Active_Draft"><path d="M167.05,533.3569 C172.86,549.0069 179.46,565.1869 186.6,579.8869 C194.29,595.7369 200.1505,606.8038 209.4105,622.5638" fill="none" id="Active-to-Draft" style="stroke:#181818;stroke-width:1;"/><polygon fill="#181818" points="212.45,627.7369,211.3394,617.9508,209.9171,623.4259,204.4419,622.0035,212.45,627.7369" style="stroke:#181818;stroke-width:1;"/><text fill="#000000" font-family="sans-serif" font-size="13" lengthAdjust="spacing" textLength="52.0001" x="187.6" y="575.9538">&#38750;&#20844;&#38283;&#21270;</text></g><!--link Archived to *end*--><g class="link" data-entity-1="Archived" data-entity-2=".end." data-source-line="43" data-uid="lnk34" id="link_Archived_.end."><path d="M50.6,815.6769 C50.6,868.1569 50.6,926.7769 50.6,951.6969" fill="none" id="Archived-to-*end*" style="stroke:#181818;stroke-width:1;"/><polygon fill="#181818" points="50.6,957.6969,54.6,948.6969,50.6,952.6969,46.6,948.6969,50.6,957.6969" style="stroke:#181818;stroke-width:1;"/><text fill="#000000" font-family="sans-serif" font-size="13" lengthAdjust="spacing" textLength="26" x="51.6" y="910.2538">&#21066;&#38500;</text></g><!--SRC=[RL9FIm917BtFfzYR4FW5EWH1tJg4qIawsCwK6wAnZaP41tTHLbSf8bR430ebIH51oSZA3pFkhFijcjbnbp6wp9_tVh_ttc-OcE9Ltsd9TbjZOfQ9oTO6CGV4_2Ac1M8hrYzElTSPCUwNpptlzWS0hE4qabgDEJ4wh8EOVG2EDewLU7nBsT6JfrZPL1RVZzIw0o27anYjq6kWA67TBjImbZbZoEeaewpVc_RyLlaFdK19UCL8TrXRV9R13G12c7FxA0DPNG8LD7J91Hx6oxuT1bXdvI276OXqWJDKkWNiziM5dYqWo0HfPRvyg_zJaq3dICL1ZLkVB3vi7cpTK7uPTpeanGQrPcmDuqKsSh83DOLWFeqWmwApc3L_ajPoAM5P6lYEJHjTrnhHTfTxHsh112hM2YZ8DgPDGvH7leAKNVSOmAvyY-vy-jQ4EgD0NVG4shgQqiJh4EE5_n-Z7_m9HwuA1_VRJyBThJbHW51XRN2SrTdKt2kaESnfDaQbwZSxu1S0]--></g></svg>