<svg xmlns="http://www.w3.org/2000/svg" xmlns:xlink="http://www.w3.org/1999/xlink" contentStyleType="text/css" data-diagram-type="DESCRIPTION" height="533px" preserveAspectRatio="none" style="width:787px;height:533px;background:#FFFFFF;" version="1.1" viewBox="0 0 787 533" width="787px" zoomAndPan="magnify"><title>&#12518;&#12540;&#12473;&#12465;&#12540;&#12473;&#22259;&#12479;&#12452;&#12488;&#12523;</title><defs/><g><g class="title" data-source-line="4"><text fill="#000000" font-family="sans-serif" font-size="14" font-weight="bold" lengthAdjust="spacing" textLength="153.9993" x="309.6403" y="22.9951">&#12518;&#12540;&#12473;&#12465;&#12540;&#12473;&#22259;&#12479;&#12452;&#12488;&#12523;</text></g><!--cluster ?????--><g class="cluster" data-entity="....." data-source-line="11" data-uid="ent0004" id="cluster_....."><rect fill="none" height="337" rx="2.5" ry="2.5" style="stroke:#181818;stroke-width:1;" width="644.28" x="137" y="160.3769"/><text fill="#000000" font-family="sans-serif" font-size="14" font-weight="bold" lengthAdjust="spacing" textLength="69.9997" x="424.1402" y="175.372">&#12471;&#12473;&#12486;&#12512;&#21517;</text></g><!--entity UC1--><g class="entity" data-entity="UC1" data-source-line="12" data-uid="ent0005" id="entity_UC1"><ellipse cx="722.6778" cy="245.3805" fill="#F1F1F1" rx="42.5978" ry="14.5236" style="stroke:#181818;stroke-width:0.5;"/><text fill="#000000" font-family="sans-serif" font-size="14" lengthAdjust="spacing" textLength="55.9998" x="694.6779" y="250.0289">&#12525;&#12464;&#12452;&#12531;</text></g><!--entity UC2--><g class="entity" data-entity="UC2" data-source-line="13" data-uid="ent0006" id="entity_UC2"><ellipse cx="477.0459" cy="213.3721" fill="#F1F1F1" rx="78.0259" ry="18.0052" style="stroke:#181818;stroke-width:0.5;"/><text fill="#000000" font-family="sans-serif" font-size="14" lengthAdjust="spacing" textLength="125.9995" x="414.0462" y="218.0205">&#12480;&#12483;&#12471;&#12517;&#12508;&#12540;&#12489;&#34920;&#31034;</text></g><!--entity UC3--><g class="entity" data-entity="UC3" data-source-line="14" data-uid="ent0007" id="entity_UC3"><ellipse cx="477.0473" cy="281.3805" fill="#F1F1F1" rx="52.4973" ry="14.5236" style="stroke:#181818;stroke-width:0.5;"/><text fill="#000000" font-family="sans-serif" font-size="14" lengthAdjust="spacing" textLength="69.9997" x="442.0474" y="286.0289">&#12487;&#12540;&#12479;&#38322;&#35239;</text></g><!--entity UC4--><g class="entity" data-entity="UC4" data-source-line="15" data-uid="ent0008" id="entity_UC4"><ellipse cx="214.5073" cy="210.3805" fill="#F1F1F1" rx="52.4973" ry="14.5236" style="stroke:#181818;stroke-width:0.5;"/><text fill="#000000" font-family="sans-serif" font-size="14" lengthAdjust="spacing" textLength="69.9997" x="179.5074" y="215.0289">&#12487;&#12540;&#12479;&#30331;&#37682;</text></g><!--entity UC5--><g class="entity" data-entity="UC5" data-source-line="16" data-uid="ent0009" id="entity_UC5"><ellipse cx="214.5073" cy="466.3805" fill="#F1F1F1" rx="52.4973" ry="14.5236" style="stroke:#181818;stroke-width:0.5;"/><text fill="#000000" font-family="sans-serif" font-size="14" lengthAdjust="spacing" textLength="69.9997" x="179.5074" y="471.0289">&#12487;&#12540;&#12479;&#32232;&#38598;</text></g><!--entity UC6--><g class="entity" data-entity="UC6" data-source-line="17" data-uid="ent0010" id="entity_UC6"><ellipse cx="214.5073" cy="274.3805" fill="#F1F1F1" rx="52.4973" ry="14.5236" style="stroke:#181818;stroke-width:0.5;"/><text fill="#000000" font-family="sans-serif" font-size="14" lengthAdjust="spacing" textLength="69.9997" x="179.5074" y="279.0289">&#12487;&#12540;&#12479;&#21066;&#38500;</text></g><!--entity UC7--><g class="entity" data-entity="UC7" data-source-line="18" data-uid="ent0011" id="entity_UC7"><ellipse cx="214.5142" cy="338.3797" fill="#F1F1F1" rx="61.5142" ry="14.7028" style="stroke:#181818;stroke-width:0.5;"/><text fill="#000000" font-family="sans-serif" font-size="14" lengthAdjust="spacing" textLength="83.9996" x="172.5144" y="343.0282">&#12518;&#12540;&#12470;&#12540;&#31649;&#29702;</text></g><!--entity UC8--><g class="entity" data-entity="UC8" data-source-line="19" data-uid="ent0012" id="entity_UC8"><ellipse cx="214.5142" cy="402.3797" fill="#F1F1F1" rx="61.5142" ry="14.7028" style="stroke:#181818;stroke-width:0.5;"/><text fill="#000000" font-family="sans-serif" font-size="14" lengthAdjust="spacing" textLength="83.9996" x="172.5144" y="407.0282">&#12471;&#12473;&#12486;&#12512;&#35373;&#23450;</text></g><!--entity user--><g class="entity" data-entity="user" data-source-line="8" data-uid="ent0002" id="entity_user"><ellipse cx="47.9998" cy="77.7269" fill="#F1F1F1" rx="8" ry="8" style="stroke:#181818;stroke-width:0.5;"/><path d="M47.9998,85.7269 L47.9998,112.7269 M34.9998,93.7269 L60.9998,93.7269 M47.9998,112.7269 L34.9998,127.7269 M47.9998,112.7269 L60.9998,127.7269" fill="none" style="stroke:#181818;stroke-width:0.5;"/><text fill="#000000" font-family="sans-serif" font-size="14" lengthAdjust="spacing" textLength="83.9996" x="6" y="142.222">&#19968;&#33324;&#12518;&#12540;&#12470;&#12540;</text></g><!--entity admin--><g class="entity" data-entity="admin" data-source-line="9" data-uid="ent0003" id="entity_admin"><ellipse cx="47.9999" cy="372.7269" fill="#F1F1F1" rx="8" ry="8" style="stroke:#181818;stroke-width:0.5;"/><path d="M47.9999,380.7269 L47.9999,407.7269 M34.9999,388.7269 L60.9999,388.7269 M47.9999,407.7269 L34.9999,422.7269 M47.9999,407.7269 L60.9999,422.7269" fill="none" style="stroke:#181818;stroke-width:0.5;"/><text fill="#000000" font-family="sans-serif" font-size="14" lengthAdjust="spacing" textLength="41.9998" x="27" y="437.222">&#31649;&#29702;&#32773;</text></g><!--link user to UC1--><g class="link" data-entity-1="user" data-entity-2="UC1" data-source-line="22" data-uid="lnk13" id="link_user_UC1"><path d="M90.14,84.5369 C99.8,79.5669 110.15,74.5569 120,70.3769 C183.85,43.2969 206.89,61.8369 276.03,67.3769 C452.36,81.5069 492.25,123.4969 650.08,203.3769 C667.82,212.3569 682.1298,220.7127 696.2698,229.4127" fill="none" id="user-to-UC1" style="stroke:#181818;stroke-width:1;"/><polygon fill="#181818" points="701.38,232.5569,695.8108,224.4338,697.1215,229.9367,691.6186,231.2474,701.38,232.5569" style="stroke:#181818;stroke-width:1;"/></g><!--link user to UC2--><g class="link" data-entity-1="user" data-entity-2="UC2" data-source-line="23" data-uid="lnk14" id="link_user_UC2"><path d="M90.49,99.6969 C153.35,89.9869 275.3,78.6969 369.03,116.3769 C409.75,132.7469 441.122,167.3342 459.232,190.5742" fill="none" id="user-to-UC2" style="stroke:#181818;stroke-width:1;"/><polygon fill="#181818" points="462.92,195.3069,460.5431,185.7491,459.8467,191.3629,454.2328,190.6665,462.92,195.3069" style="stroke:#181818;stroke-width:1;"/></g><!--link user to UC3--><g class="link" data-entity-1="user" data-entity-2="UC3" data-source-line="24" data-uid="lnk15" id="link_user_UC3"><path d="M90.17,117.3269 C136.43,129.1669 213.25,150.8469 276.03,178.3769 C333.83,203.7269 342.43,221.4369 399.03,249.3769 C413.83,256.6869 425.1497,261.5972 439.3397,267.2772" fill="none" id="user-to-UC3" style="stroke:#181818;stroke-width:1;"/><polygon fill="#181818" points="444.91,269.5069,438.041,262.4488,440.2681,267.6488,435.0681,269.8759,444.91,269.5069" style="stroke:#181818;stroke-width:1;"/></g><!--link user to UC4--><g class="link" data-entity-1="user" data-entity-2="UC4" data-source-line="25" data-uid="lnk16" id="link_user_UC4"><path d="M89.86,145.9369 C99.36,153.8969 109.71,161.8369 120,168.3769 C139.38,180.6869 157.3996,189.0275 176.0396,196.4875" fill="none" id="user-to-UC4" style="stroke:#181818;stroke-width:1;"/><polygon fill="#181818" points="181.61,198.7169,174.7406,191.6592,176.968,196.8591,171.7681,199.0864,181.61,198.7169" style="stroke:#181818;stroke-width:1;"/></g><!--link admin to UC1--><g class="link" data-entity-1="admin" data-entity-2="UC1" data-source-line="27" data-uid="lnk17" id="link_admin_UC1"><path d="M69.18,440.0669 C82.92,461.4669 103.26,486.3269 129,498.3769 C188.18,526.0969 212.85,515.0569 276.03,498.3769 C460.97,449.5369 644.945,308.0724 700.625,262.7924" fill="none" id="admin-to-UC1" style="stroke:#181818;stroke-width:1;"/><polygon fill="#181818" points="705.28,259.0069,695.7737,261.5819,701.4008,262.1615,700.8211,267.7886,705.28,259.0069" style="stroke:#181818;stroke-width:1;"/></g><!--link admin to UC5--><g class="link" data-entity-1="admin" data-entity-2="UC5" data-source-line="28" data-uid="lnk18" id="link_admin_UC5"><path d="M69.34,410.6369 C85.49,417.1569 108.65,426.4569 129,434.3769 C146.54,441.2069 160.5935,446.5563 176.5335,452.5463" fill="none" id="admin-to-UC5" style="stroke:#181818;stroke-width:1;"/><polygon fill="#181818" points="182.15,454.6569,175.1323,447.7466,177.4696,452.898,172.3181,455.2353,182.15,454.6569" style="stroke:#181818;stroke-width:1;"/></g><!--link admin to UC6--><g class="link" data-entity-1="admin" data-entity-2="UC6" data-source-line="29" data-uid="lnk19" id="link_admin_UC6"><path d="M69.41,370.1569 C83.89,349.5169 104.97,323.4969 129,306.3769 C142.8,296.5469 154.3068,291.2109 169.5768,286.1309" fill="none" id="admin-to-UC6" style="stroke:#181818;stroke-width:1;"/><polygon fill="#181818" points="175.27,284.2369,165.4675,283.2824,170.5257,285.8152,167.9928,290.8734,175.27,284.2369" style="stroke:#181818;stroke-width:1;"/></g><!--link admin to UC7--><g class="link" data-entity-1="admin" data-entity-2="UC7" data-source-line="30" data-uid="lnk20" id="link_admin_UC7"><path d="M69.34,394.1169 C85.49,387.5969 108.65,378.2969 129,370.3769 C145.81,363.8369 158.965,358.8215 174.525,352.9615" fill="none" id="admin-to-UC7" style="stroke:#181818;stroke-width:1;"/><polygon fill="#181818" points="180.14,350.8469,170.3077,350.2755,175.4608,352.6091,173.1273,357.7622,180.14,350.8469" style="stroke:#181818;stroke-width:1;"/></g><!--link admin to UC8--><g class="link" data-entity-1="admin" data-entity-2="UC8" data-source-line="31" data-uid="lnk21" id="link_admin_UC8"><path d="M69.17,402.3769 C89.94,402.3769 117.32,402.3769 146.75,402.3769" fill="none" id="admin-to-UC8" style="stroke:#181818;stroke-width:1;"/><polygon fill="#181818" points="152.75,402.3769,143.75,398.3769,147.75,402.3769,143.75,406.3769,152.75,402.3769" style="stroke:#181818;stroke-width:1;"/></g><!--link UC2 to UC1--><g class="link" data-entity-1="UC2" data-entity-2="UC1" data-source-line="33" data-uid="lnk22" id="link_UC2_UC1"><path d="M545.59,222.2469 C589.67,228.0369 639.711,234.6159 676.581,239.4559" fill="none" id="UC2-to-UC1" style="stroke:#181818;stroke-width:1;stroke-dasharray:7,7;"/><polygon fill="#181818" points="682.53,240.2369,674.1272,235.0995,677.5725,239.5861,673.0859,243.0315,682.53,240.2369" style="stroke:#181818;stroke-width:1;"/><text fill="#000000" font-family="sans-serif" font-size="13" lengthAdjust="spacing" textLength="63.0068" x="586.08" y="224.4438">&#171;include&#187;</text></g><!--link UC3 to UC1--><g class="link" data-entity-1="UC3" data-entity-2="UC1" data-source-line="34" data-uid="lnk23" id="link_UC3_UC1"><path d="M527.56,276.9969 C562.04,273.6169 609.02,268.3369 650.08,261.3769 C662.26,259.3169 669.6407,257.8533 681.3707,255.1733" fill="none" id="UC3-to-UC1" style="stroke:#181818;stroke-width:1;stroke-dasharray:7,7;"/><polygon fill="#181818" points="687.22,253.8369,677.5551,251.942,682.3456,254.9505,679.337,259.741,687.22,253.8369" style="stroke:#181818;stroke-width:1;"/><text fill="#000000" font-family="sans-serif" font-size="13" lengthAdjust="spacing" textLength="63.0068" x="586.08" y="257.4438">&#171;include&#187;</text></g><!--link UC5 to UC3--><g class="link" data-entity-1="UC5" data-entity-2="UC3" data-source-line="35" data-uid="lnk24" id="link_UC5_UC3"><path d="M241.97,453.5969 C252.76,448.0769 265.22,441.2969 276.03,434.3769 C347.82,388.3969 421.7215,327.5646 455.0415,299.3446" fill="none" id="UC5-to-UC3" style="stroke:#181818;stroke-width:1;stroke-dasharray:7,7;"/><polygon fill="#181818" points="459.62,295.4669,450.167,298.2311,455.8045,298.6983,455.3373,304.3359,459.62,295.4669" style="stroke:#181818;stroke-width:1;"/><text fill="#000000" font-family="sans-serif" font-size="13" lengthAdjust="spacing" textLength="61.1851" x="307.03" y="367.4438">&#171;extend&#187;</text></g><!--SRC=[TP7TIW917CNlvoc6lV5A8TSlGhpf6Ng0PNUp1LjXNI68G6V8D8ga2yFi8iDi8PLIoBx8XncNtNsBPiR9Ti5kXZrpVdFclsTYaE0XmLy4lHFqilfmUpE26mJJzPhW4Tl4JH1RawzihJi4pTafHjwH-YJet2yNYA0hl-zubzy0s8PTql-9Hmk21ZILu2S0IlgU3Uqoj8pYlWqrmz9LsoYR02YgNRQWj7oh-SrH-7O9AXLOhUZMB-9D-bwxuTTEkADe1mOzpd8KiqY7aCApkkqB2Hu1o09KfS9SF2RecKyqum6xErjHlqOmPXduWU1RNaYB_URWG-39A7xA9rq4dQa_V1I8l17nkf_1-LGWgSt8t0bw3O6aDo9kwope3WIIYI9_hQrA4bGsGeNgyPsnExaHL0uS0y2AXl5uWTSI4icmaCCYHT-ElS7wL5Yb8oeJKTc8oW50Ru6910-1sp2VDqorLDNqGe4wyhzEMZWoT_H3MpSrQlm0]--></g></svg>