<svg xmlns="http://www.w3.org/2000/svg" xmlns:xlink="http://www.w3.org/1999/xlink" contentStyleType="text/css" data-diagram-type="DESCRIPTION" height="571px" preserveAspectRatio="none" style="width:513px;height:571px;background:#FFFFFF;" version="1.1" viewBox="0 0 513 571" width="513px" zoomAndPan="magnify"><defs/><g><!--cluster Some Group--><g class="cluster" data-entity="Some Group" data-source-line="2" data-uid="ent0002" id="cluster_Some Group"><path d="M8.5,6 L106.1602,6 A3.75,3.75 0 0 1 108.6602,8.5 L115.6602,28.2969 L461.5,28.2969 A2.5,2.5 0 0 1 464,30.7969 L464,100.8 A2.5,2.5 0 0 1 461.5,103.3 L8.5,103.3 A2.5,2.5 0 0 1 6,100.8 L6,8.5 A2.5,2.5 0 0 1 8.5,6" fill="none" style="stroke:#000000;stroke-width:1.5;"/><line style="stroke:#000000;stroke-width:1.5;" x1="6" x2="115.6602" y1="28.2969" y2="28.2969"/><text fill="#000000" font-family="sans-serif" font-size="14" font-weight="bold" lengthAdjust="spacing" textLength="96.6602" x="10" y="20.9951">Some Group</text></g><!--cluster Other Groups--><g class="cluster" data-entity="Other Groups" data-source-line="7" data-uid="ent0007" id="cluster_Other Groups"><polygon fill="none" points="38,137.3,48,127.3,301,127.3,301,219.6,291,229.6,38,229.6,38,137.3" style="stroke:#181818;stroke-width:1;"/><line style="stroke:#181818;stroke-width:1;" x1="291" x2="301" y1="137.3" y2="127.3"/><line style="stroke:#181818;stroke-width:1;" x1="38" x2="291" y1="137.3" y2="137.3"/><line style="stroke:#181818;stroke-width:1;" x1="291" x2="291" y1="137.3" y2="229.6"/><text fill="#000000" font-family="sans-serif" font-size="14" font-weight="bold" lengthAdjust="spacing" textLength="106.1689" x="112.4155" y="153.2951">Other Groups</text></g><g class="cluster" data-entity="..12" data-source-line="12" data-uid="ent0013" id="cluster_..12"><path d="M334.6106,160.1769 C338.5667,154.0653 342.6932,154.8239 346.6742,160.1506 C349.3348,152.8 354.5191,151.9263 359.3016,158.1812 C362.9904,150.5364 369.8079,150.2076 373.8195,157.8752 C376.2725,151.0044 382.49,150.2544 386.7875,155.9756 C390.5284,148.9539 394.4429,148.0586 399.6583,154.5735 C403.9064,149.0701 409.5476,148.584 412.9168,155.5109 C417.4669,149.7865 421.8588,150.3962 425.9608,156.0257 C429.9102,149.8781 436.0836,151.1665 438.6489,157.4397 C444.1304,151.5733 448.4706,152.2822 451.4488,159.8286 C455.7696,153.4612 461.0808,153.4284 464.818,160.4129 C472.9872,164.7409 473.1775,171.8517 464.6248,175.972 C472.9802,179.3686 473.6327,185.7097 466.7013,191.1919 C473.9901,196.7447 472.679,203.9615 464.0735,206.8462 C472.3715,211.1489 470.9052,217.4837 464.8529,222.5008 C460.9274,228.5876 455.8966,230.559 450.956,223.5805 C448.3252,230.5792 443.7624,232.0323 438.4268,226.2274 C435.4528,234.3058 429.7317,234.4777 424.3532,228.6633 C421.5498,234.8597 416.1601,235.8572 411.5433,230.7113 C409.113,236.8007 403.5643,237.1762 399.8012,232.1147 C394.4713,237.476 390.1688,236.7734 386.5653,230.2001 C381.2504,235.8066 375.1458,235.0144 372.487,227.3767 C367.6862,233.7847 362.5873,231.4883 359.7493,225.3793 C356.0194,231.1841 352.1417,231.6458 348.1406,225.6459 C342.7837,231.7255 338.5779,230.2613 335.0168,223.771 C327.4588,220.1038 325.2048,214.2493 332.3695,208.0957 C322.9793,204.2249 322.6241,199.0746 328.7582,191.7697 C321.5936,185.8094 323.2681,180.6235 330.5523,176.3435 C324.6033,169.1697 325.4362,163.5542 334.6106,160.1769" fill="none" style="stroke:#181818;stroke-width:1;"/></g><!--cluster MySql--><g class="cluster" data-entity="MySql" data-source-line="17" data-uid="ent0015" id="cluster_MySql"><path d="M301,263.6 C301,253.6 398.5,253.6 398.5,253.6 C398.5,253.6 496,253.6 496,263.6 L496,544.19 C496,554.19 398.5,554.19 398.5,554.19 C398.5,554.19 301,554.19 301,544.19 L301,263.6" fill="none" style="stroke:#181818;stroke-width:1;"/><path d="M301,263.6 C301,273.6 398.5,273.6 398.5,273.6 C398.5,273.6 496,273.6 496,263.6" fill="none" style="stroke:#181818;stroke-width:1;"/><text fill="#000000" font-family="sans-serif" font-size="14" font-weight="bold" lengthAdjust="spacing" textLength="47.9609" x="374.5195" y="288.5951">MySql</text></g><!--cluster This is my folder--><g class="cluster" data-entity="This is my folder" data-source-line="18" data-uid="ent0016" id="cluster_This is my folder"><path d="M327.5,311.6 L459.5449,311.6 A3.75,3.75 0 0 1 462.0449,314.1 L469.0449,333.8969 L469.5,333.8969 A2.5,2.5 0 0 1 472,336.3969 L472,406.39 A2.5,2.5 0 0 1 469.5,408.89 L327.5,408.89 A2.5,2.5 0 0 1 325,406.39 L325,314.1 A2.5,2.5 0 0 1 327.5,311.6" fill="none" style="stroke:#000000;stroke-width:1.5;"/><line style="stroke:#000000;stroke-width:1.5;" x1="325" x2="469.0449" y1="333.8969" y2="333.8969"/><text fill="#000000" font-family="sans-serif" font-size="14" font-weight="bold" lengthAdjust="spacing" textLength="131.0449" x="329" y="326.5951">This is my folder</text></g><!--cluster Foo--><g class="cluster" data-entity="Foo" data-source-line="21" data-uid="ent0018" id="cluster_Foo"><rect fill="none" height="97.3" rx="2.5" ry="2.5" style="stroke:#181818;stroke-width:1;" width="130" x="333" y="432.89"/><path d="M371.7998,432.89 L371.7998,442.1869 L361.7998,452.1869 L333,452.1869" fill="none" style="stroke:#181818;stroke-width:1;"/><text fill="#000000" font-family="sans-serif" font-size="14" font-weight="bold" lengthAdjust="spacing" textLength="28.7998" x="336" y="446.8851">Foo</text></g><!--entity HTTP--><g class="entity" data-entity="HTTP" data-source-line="3" data-uid="ent0003" id="entity_HTTP"><ellipse cx="222" cy="64.15" fill="#F1F1F1" rx="8" ry="8" style="stroke:#181818;stroke-width:0.5;"/><text fill="#000000" font-family="sans-serif" font-size="14" lengthAdjust="spacing" textLength="36.0732" x="203.9634" y="94.1451">HTTP</text></g><!--entity First Component--><g class="entity" data-entity="First Component" data-source-line="3" data-uid="ent0004" id="entity_First Component"><rect fill="#F1F1F1" height="46.2969" rx="2.5" ry="2.5" style="stroke:#181818;stroke-width:0.5;" width="156.2109" x="21.89" y="41"/><rect fill="#F1F1F1" height="10" style="stroke:#181818;stroke-width:0.5;" width="15" x="158.1009" y="46"/><rect fill="#F1F1F1" height="2" style="stroke:#181818;stroke-width:0.5;" width="4" x="156.1009" y="48"/><rect fill="#F1F1F1" height="2" style="stroke:#181818;stroke-width:0.5;" width="4" x="156.1009" y="52"/><text fill="#000000" font-family="sans-serif" font-size="14" lengthAdjust="spacing" textLength="116.2109" x="36.89" y="73.9951">First Component</text></g><!--entity Another Component--><g class="entity" data-entity="Another Component" data-source-line="4" data-uid="ent0006" id="entity_Another Component"><rect fill="#F1F1F1" height="46.2969" rx="2.5" ry="2.5" style="stroke:#181818;stroke-width:0.5;" width="181.4766" x="266.26" y="41"/><rect fill="#F1F1F1" height="10" style="stroke:#181818;stroke-width:0.5;" width="15" x="427.7366" y="46"/><rect fill="#F1F1F1" height="2" style="stroke:#181818;stroke-width:0.5;" width="4" x="425.7366" y="48"/><rect fill="#F1F1F1" height="2" style="stroke:#181818;stroke-width:0.5;" width="4" x="425.7366" y="52"/><text fill="#000000" font-family="sans-serif" font-size="14" lengthAdjust="spacing" textLength="141.4766" x="281.26" y="73.9951">Another Component</text></g><!--entity FTP--><g class="entity" data-entity="FTP" data-source-line="8" data-uid="ent0008" id="entity_FTP"><ellipse cx="63" cy="190.45" fill="#F1F1F1" rx="8" ry="8" style="stroke:#181818;stroke-width:0.5;"/><text fill="#000000" font-family="sans-serif" font-size="14" lengthAdjust="spacing" textLength="25.0469" x="50.4766" y="220.4451">FTP</text></g><!--entity Second Component--><g class="entity" data-entity="Second Component" data-source-line="8" data-uid="ent0009" id="entity_Second Component"><rect fill="#F1F1F1" height="46.2969" rx="2.5" ry="2.5" style="stroke:#181818;stroke-width:0.5;" width="177.252" x="107.37" y="167.3"/><rect fill="#F1F1F1" height="10" style="stroke:#181818;stroke-width:0.5;" width="15" x="264.622" y="172.3"/><rect fill="#F1F1F1" height="2" style="stroke:#181818;stroke-width:0.5;" width="4" x="262.622" y="174.3"/><rect fill="#F1F1F1" height="2" style="stroke:#181818;stroke-width:0.5;" width="4" x="262.622" y="178.3"/><text fill="#000000" font-family="sans-serif" font-size="14" lengthAdjust="spacing" textLength="137.252" x="122.37" y="200.2951">Second Component</text></g><!--entity Example 1--><g class="entity" data-entity="Example 1" data-source-line="13" data-uid="ent0014" id="entity_Example 1"><rect fill="#F1F1F1" height="46.2969" rx="2.5" ry="2.5" style="stroke:#181818;stroke-width:0.5;" width="114.0947" x="340.95" y="167.3"/><rect fill="#F1F1F1" height="10" style="stroke:#181818;stroke-width:0.5;" width="15" x="435.0447" y="172.3"/><rect fill="#F1F1F1" height="2" style="stroke:#181818;stroke-width:0.5;" width="4" x="433.0447" y="174.3"/><rect fill="#F1F1F1" height="2" style="stroke:#181818;stroke-width:0.5;" width="4" x="433.0447" y="178.3"/><text fill="#000000" font-family="sans-serif" font-size="14" lengthAdjust="spacing" textLength="74.0947" x="355.95" y="200.2951">Example 1</text></g><!--entity Folder 3--><g class="entity" data-entity="Folder 3" data-source-line="19" data-uid="ent0017" id="entity_Folder 3"><rect fill="#F1F1F1" height="46.2969" rx="2.5" ry="2.5" style="stroke:#181818;stroke-width:0.5;" width="97.1211" x="349.44" y="346.6"/><rect fill="#F1F1F1" height="10" style="stroke:#181818;stroke-width:0.5;" width="15" x="426.5611" y="351.6"/><rect fill="#F1F1F1" height="2" style="stroke:#181818;stroke-width:0.5;" width="4" x="424.5611" y="353.6"/><rect fill="#F1F1F1" height="2" style="stroke:#181818;stroke-width:0.5;" width="4" x="424.5611" y="357.6"/><text fill="#000000" font-family="sans-serif" font-size="14" lengthAdjust="spacing" textLength="57.1211" x="364.44" y="379.5951">Folder 3</text></g><!--entity Frame 4--><g class="entity" data-entity="Frame 4" data-source-line="22" data-uid="ent0019" id="entity_Frame 4"><rect fill="#F1F1F1" height="46.2969" rx="2.5" ry="2.5" style="stroke:#181818;stroke-width:0.5;" width="97.9961" x="349" y="467.89"/><rect fill="#F1F1F1" height="10" style="stroke:#181818;stroke-width:0.5;" width="15" x="426.9961" y="472.89"/><rect fill="#F1F1F1" height="2" style="stroke:#181818;stroke-width:0.5;" width="4" x="424.9961" y="474.89"/><rect fill="#F1F1F1" height="2" style="stroke:#181818;stroke-width:0.5;" width="4" x="424.9961" y="478.89"/><text fill="#000000" font-family="sans-serif" font-size="14" lengthAdjust="spacing" textLength="57.9961" x="364" y="500.8851">Frame 4</text></g><!--link HTTP to First Component--><g class="link" data-entity-1="HTTP" data-entity-2="First Component" data-source-line="3" data-uid="lnk5" id="link_HTTP_First Component"><path d="M212.75,64.15 C201.22,64.15 189.69,64.15 178.16,64.15" fill="none" id="HTTP-First Component" style="stroke:#181818;stroke-width:1;"/></g><!--link FTP to Second Component--><g class="link" data-entity-1="FTP" data-entity-2="Second Component" data-source-line="8" data-uid="lnk10" id="link_FTP_Second Component"><path d="M72.35,190.45 C83.94,190.45 95.54,190.45 107.13,190.45" fill="none" id="FTP-Second Component" style="stroke:#181818;stroke-width:1;"/></g><!--link First Component to FTP--><g class="link" data-entity-1="First Component" data-entity-2="FTP" data-source-line="9" data-uid="lnk11" id="link_First Component_FTP"><path d="M93.3,87.66 C84.97,115.64 72.8716,156.2793 67.2316,175.2293" fill="none" id="First Component-to-FTP" style="stroke:#181818;stroke-width:1;"/><polygon fill="#181818" points="65.52,180.98,71.9211,173.495,66.9463,176.1877,64.2535,171.2129,65.52,180.98" style="stroke:#181818;stroke-width:1;"/></g><!--link Another Component to Example 1--><g class="link" data-entity-1="Another Component" data-entity-2="Example 1" data-source-line="27" data-uid="lnk20" id="link_Another Component_Example 1"><path d="M364.42,87.66 C371.86,110.19 381.3409,138.9418 388.7509,161.4118" fill="none" id="Another Component-to-Example 1" style="stroke:#181818;stroke-width:1;"/><polygon fill="#181818" points="390.63,167.11,391.6101,157.31,389.0641,162.3615,384.0126,159.8155,390.63,167.11" style="stroke:#181818;stroke-width:1;"/></g><!--link Example 1 to Folder 3--><g class="link" data-entity-1="Example 1" data-entity-2="Folder 3" data-source-line="28" data-uid="lnk21" id="link_Example 1_Folder 3"><path d="M398,213.9 C398,247.91 398,306.12 398,340.19" fill="none" id="Example 1-to-Folder 3" style="stroke:#181818;stroke-width:1;"/><polygon fill="#181818" points="398,346.19,402,337.19,398,341.19,394,337.19,398,346.19" style="stroke:#181818;stroke-width:1;"/></g><!--link Folder 3 to Frame 4--><g class="link" data-entity-1="Folder 3" data-entity-2="Frame 4" data-source-line="29" data-uid="lnk22" id="link_Folder 3_Frame 4"><path d="M398,393.18 C398,414.51 398,440.41 398,461.7" fill="none" id="Folder 3-to-Frame 4" style="stroke:#181818;stroke-width:1;"/><polygon fill="#181818" points="398,467.7,402,458.7,398,462.7,394,458.7,398,467.7" style="stroke:#181818;stroke-width:1;"/></g><!--SRC=[ROyz2y8m48Rt_8eZUmVHMH2nkeX2knM7s4GhjhcOf62H_dVpKMafGeRZtilpt2bMFjbT0Csm4R3Ns2eA7m9moFCp952a3sqiRB5HA8Mq5nSL6ucs4dhQxGcHo1td5980Cf6KHb0cIfHyHfhJ8KdM_eFdbJMsF12AtPirgXQm22B2cMLNPfpjs6MlEcfkM7DdfddrCE1Uqmsj67jPd5XwS-z_QEPkfYdYE19QgpZXLNzk3JjELvhKCHj5OpaaF_uN]--></g></svg>