<svg xmlns="http://www.w3.org/2000/svg" xmlns:xlink="http://www.w3.org/1999/xlink" contentStyleType="text/css" data-diagram-type="CLASS" height="315px" preserveAspectRatio="none" style="width:700px;height:315px;background:#FFFFFF;" version="1.1" viewBox="0 0 700 315" width="700px" zoomAndPan="magnify"><title>PERT: Project Name</title><defs/><g><g class="title" data-source-line="4"><text fill="#000000" font-family="sans-serif" font-size="14" font-weight="bold" lengthAdjust="spacing" textLength="156.8164" x="264.5918" y="22.9951">PERT: Project Name</text></g><!--cluster Kick--><g class="cluster" data-entity="Kick" data-uid="ent0015" id="cluster_Kick"><path d="M8.5,132.2969 L42.7568,132.2969 A3.75,3.75 0 0 1 45.2568,134.7969 L52.2568,154.5938 L119.5,154.5938 A2.5,2.5 0 0 1 122,157.0938 L122,216.7969 A2.5,2.5 0 0 1 119.5,219.2969 L8.5,219.2969 A2.5,2.5 0 0 1 6,216.7969 L6,134.7969 A2.5,2.5 0 0 1 8.5,132.2969" fill="none" style="stroke:#000000;stroke-width:1.5;"/><line style="stroke:#000000;stroke-width:1.5;" x1="6" x2="52.2568" y1="154.5938" y2="154.5938"/><text fill="#000000" font-family="sans-serif" font-size="14" font-weight="bold" lengthAdjust="spacing" textLength="33.2568" x="10" y="147.292">Kick</text></g><!--cluster task--><g class="cluster" data-entity="task" data-uid="ent0016" id="cluster_task"><path d="M205.5,43.2969 L240.2832,43.2969 A3.75,3.75 0 0 1 242.7832,45.7969 L249.7832,65.5938 L690.5,65.5938 A2.5,2.5 0 0 1 693,68.0938 L693,305.7969 A2.5,2.5 0 0 1 690.5,308.2969 L205.5,308.2969 A2.5,2.5 0 0 1 203,305.7969 L203,45.7969 A2.5,2.5 0 0 1 205.5,43.2969" fill="none" style="stroke:#000000;stroke-width:1.5;"/><line style="stroke:#000000;stroke-width:1.5;" x1="203" x2="249.7832" y1="65.5938" y2="65.5938"/><text fill="#000000" font-family="sans-serif" font-size="14" font-weight="bold" lengthAdjust="spacing" textLength="33.7832" x="207" y="58.292">task</text></g><g class="entity" data-entity="Off" data-source-line="6" data-uid="ent0002" id="entity_Off"><rect fill="#F1F1F1" height="20.2969" rx="2.5" ry="2.5" style="stroke:#181818;stroke-width:0.5;" width="68.2021" x="30" y="175.2969"/><text fill="#000000" font-family="sans-serif" font-size="14" lengthAdjust="spacing" textLength="54.2021" x="37" y="190.292">Kick.Off</text></g><g class="entity" data-entity="1" data-source-line="8" data-uid="ent0003" id="entity_1"><rect fill="#F1F1F1" height="40.5938" rx="2.5" ry="2.5" style="stroke:#181818;stroke-width:0.5;" width="80.8057" x="227" y="82.2969"/><text fill="#000000" font-family="sans-serif" font-size="14" lengthAdjust="spacing" textLength="42.8271" x="245.9893" y="97.292">task.1</text><line style="stroke:#181818;stroke-width:1;" x1="227" x2="307.8057" y1="102.5938" y2="102.5938"/><text fill="#000000" font-family="sans-serif" font-size="14" lengthAdjust="spacing" textLength="34.2002" x="232" y="117.5889">Start</text><text fill="#000000" font-family="sans-serif" font-size="14" lengthAdjust="spacing" textLength="26.6055" x="276.2002" y="117.5889">End</text><line style="stroke:#181818;stroke-width:1;" x1="271.2002" x2="271.2002" y1="102.5938" y2="122.8906"/></g><g class="entity" data-entity="2" data-source-line="11" data-uid="ent0004" id="entity_2"><rect fill="#F1F1F1" height="40.5938" rx="2.5" ry="2.5" style="stroke:#181818;stroke-width:0.5;" width="80.8057" x="227" y="165.2969"/><text fill="#000000" font-family="sans-serif" font-size="14" lengthAdjust="spacing" textLength="42.8271" x="245.9893" y="180.292">task.2</text><line style="stroke:#181818;stroke-width:1;" x1="227" x2="307.8057" y1="185.5938" y2="185.5938"/><text fill="#000000" font-family="sans-serif" font-size="14" lengthAdjust="spacing" textLength="34.2002" x="232" y="200.5889">Start</text><text fill="#000000" font-family="sans-serif" font-size="14" lengthAdjust="spacing" textLength="26.6055" x="276.2002" y="200.5889">End</text><line style="stroke:#181818;stroke-width:1;" x1="271.2002" x2="271.2002" y1="185.5938" y2="205.8906"/></g><g class="entity" data-entity="3" data-source-line="14" data-uid="ent0005" id="entity_3"><rect fill="#F1F1F1" height="40.5938" rx="2.5" ry="2.5" style="stroke:#181818;stroke-width:0.5;" width="80.8057" x="227" y="248.2969"/><text fill="#000000" font-family="sans-serif" font-size="14" lengthAdjust="spacing" textLength="42.8271" x="245.9893" y="263.292">task.3</text><line style="stroke:#181818;stroke-width:1;" x1="227" x2="307.8057" y1="268.5938" y2="268.5938"/><text fill="#000000" font-family="sans-serif" font-size="14" lengthAdjust="spacing" textLength="34.2002" x="232" y="283.5889">Start</text><text fill="#000000" font-family="sans-serif" font-size="14" lengthAdjust="spacing" textLength="26.6055" x="276.2002" y="283.5889">End</text><line style="stroke:#181818;stroke-width:1;" x1="271.2002" x2="271.2002" y1="268.5938" y2="288.8906"/></g><g class="entity" data-entity="4" data-source-line="17" data-uid="ent0006" id="entity_4"><rect fill="#F1F1F1" height="40.5938" rx="2.5" ry="2.5" style="stroke:#181818;stroke-width:0.5;" width="80.8057" x="384" y="165.2969"/><text fill="#000000" font-family="sans-serif" font-size="14" lengthAdjust="spacing" textLength="42.8271" x="402.9893" y="180.292">task.4</text><line style="stroke:#181818;stroke-width:1;" x1="384" x2="464.8057" y1="185.5938" y2="185.5938"/><text fill="#000000" font-family="sans-serif" font-size="14" lengthAdjust="spacing" textLength="34.2002" x="389" y="200.5889">Start</text><text fill="#000000" font-family="sans-serif" font-size="14" lengthAdjust="spacing" textLength="26.6055" x="433.2002" y="200.5889">End</text><line style="stroke:#181818;stroke-width:1;" x1="428.2002" x2="428.2002" y1="185.5938" y2="205.8906"/></g><g class="entity" data-entity="5" data-source-line="20" data-uid="ent0007" id="entity_5"><rect fill="#F1F1F1" height="40.5938" rx="2.5" ry="2.5" style="stroke:#181818;stroke-width:0.5;" width="80.8057" x="589" y="165.2969"/><text fill="#000000" font-family="sans-serif" font-size="14" lengthAdjust="spacing" textLength="42.8271" x="607.9893" y="180.292">task.5</text><line style="stroke:#181818;stroke-width:1;" x1="589" x2="669.8057" y1="185.5938" y2="185.5938"/><text fill="#000000" font-family="sans-serif" font-size="14" lengthAdjust="spacing" textLength="34.2002" x="594" y="200.5889">Start</text><text fill="#000000" font-family="sans-serif" font-size="14" lengthAdjust="spacing" textLength="26.6055" x="638.2002" y="200.5889">End</text><line style="stroke:#181818;stroke-width:1;" x1="633.2002" x2="633.2002" y1="185.5938" y2="205.8906"/></g><!--link Off to 1--><g class="link" data-entity-1="Off" data-entity-2="1" data-source-line="23" data-uid="lnk8" id="link_Off_1"><path codeLine="23" d="M105.68,168.4969 C138.48,154.9569 179.1144,138.1774 213.4944,123.9774" fill="none" id="Off-to-1" style="stroke:#181818;stroke-width:1;"/><polygon fill="#181818" points="219.04,121.6869,209.1946,121.4256,214.4187,123.5956,212.2486,128.8197,219.04,121.6869" style="stroke:#181818;stroke-width:1;"/><text fill="#000000" font-family="sans-serif" font-size="13" lengthAdjust="spacing" textLength="47.4741" x="139" y="133.3638">Label 1</text></g><!--link Off to 2--><g class="link" data-entity-1="Off" data-entity-2="2" data-source-line="24" data-uid="lnk9" id="link_Off_2"><path codeLine="24" d="M105.68,185.2969 C138.48,185.2969 178.66,185.2969 213.04,185.2969" fill="none" id="Off-to-2" style="stroke:#181818;stroke-width:1;"/><polygon fill="#181818" points="219.04,185.2969,210.04,181.2969,214.04,185.2969,210.04,189.2969,219.04,185.2969" style="stroke:#181818;stroke-width:1;"/><text fill="#000000" font-family="sans-serif" font-size="13" lengthAdjust="spacing" textLength="47.4741" x="139" y="181.3638">Label 2</text></g><!--link Off to 3--><g class="link" data-entity-1="Off" data-entity-2="3" data-source-line="25" data-uid="lnk10" id="link_Off_3"><path codeLine="25" d="M105.68,202.0969 C138.48,215.6369 179.1144,232.4164 213.4944,246.6164" fill="none" id="Off-to-3" style="stroke:#181818;stroke-width:1;"/><polygon fill="#181818" points="219.04,248.9069,212.2486,241.7741,214.4187,246.9981,209.1946,249.1682,219.04,248.9069" style="stroke:#181818;stroke-width:1;"/><text fill="#000000" font-family="sans-serif" font-size="13" lengthAdjust="spacing" textLength="47.4741" x="139" y="213.3638">Label 3</text></g><!--link 1 to 4--><g class="link" data-entity-1="1" data-entity-2="4" data-source-line="26" data-uid="lnk11" id="link_1_4"><path codeLine="26" d="M312.42,126.0769 C333.08,137.1469 352.3212,147.4434 373.0212,158.5334" fill="none" id="1-to-4" style="stroke:#181818;stroke-width:1;"/><polygon fill="#181818" points="378.31,161.3669,372.2658,153.5908,373.9027,159.0056,368.4878,160.6425,378.31,161.3669" style="stroke:#181818;stroke-width:1;"/></g><!--link 2 to 4--><g class="link" data-entity-1="2" data-entity-2="4" data-source-line="27" data-uid="lnk12" id="link_2_4"><path codeLine="27" d="M314.93,185.2969 C334.35,185.2969 350.83,185.2969 370.23,185.2969" fill="none" id="2-to-4" style="stroke:#181818;stroke-width:1;"/><polygon fill="#181818" points="376.23,185.2969,367.23,181.2969,371.23,185.2969,367.23,189.2969,376.23,185.2969" style="stroke:#181818;stroke-width:1;"/></g><!--link 3 to 4--><g class="link" data-entity-1="3" data-entity-2="4" data-source-line="28" data-uid="lnk13" id="link_3_4"><path codeLine="28" d="M312.42,244.5169 C333.08,233.4469 352.3212,223.1503 373.0212,212.0603" fill="none" id="3-to-4" style="stroke:#181818;stroke-width:1;"/><polygon fill="#181818" points="378.31,209.2269,368.4878,209.9512,373.9027,211.5881,372.2658,217.0029,378.31,209.2269" style="stroke:#181818;stroke-width:1;"/></g><!--link 4 to 5--><g class="link" data-entity-1="4" data-entity-2="5" data-source-line="29" data-uid="lnk14" id="link_4_5"><path codeLine="29" d="M471.83,185.2969 C504.61,185.2969 542.25,185.2969 575.06,185.2969" fill="none" id="4-to-5" style="stroke:#181818;stroke-width:1;"/><polygon fill="#181818" points="581.06,185.2969,572.06,181.2969,576.06,185.2969,572.06,189.2969,581.06,185.2969" style="stroke:#181818;stroke-width:1;"/><text fill="#000000" font-family="sans-serif" font-size="13" lengthAdjust="spacing" textLength="47.4741" x="503" y="181.3638">Label 4</text></g><!--SRC=[XS-z2i8m50NWFKznDXShs9-bQBU2e6XHSOyrrTYqaVHEYkzkB1f52mqaaFE5muqI1O4qZ3oU20TfH4vIrso0cJRogclY2ahMeedXUSaG4yzhZyG-sGb3ClzwqFfp9umaAO4iNMzZP4QVRI-Ml1ACLVo2kSpBqQeeS6FtDY3UbAEnlSAk3N53c2P8wyEt-pqUz7ZOur6tks7jhz-3nbZmlL0OTwZlrE_Gm6d0NcNEGlOg-4s2loJy995h31y0]--></g></svg>