<svg xmlns="http://www.w3.org/2000/svg" xmlns:xlink="http://www.w3.org/1999/xlink" contentStyleType="text/css" data-diagram-type="TIMING" height="292px" preserveAspectRatio="none" style="width:451px;height:292px;background:#FFFFFF;" version="1.1" viewBox="0 0 451 292" width="451px" zoomAndPan="magnify"><defs/><g><line style="stroke:#333333;stroke-width:0.5;" x1="10" x2="10" y1="10" y2="263.1875"/><line style="stroke:#333333;stroke-width:0.5;" x1="434.5527" x2="434.5527" y1="10" y2="263.1875"/><line style="stroke:#333333;stroke-width:0.5;stroke-dasharray:3,5;" x1="79.5527" x2="79.5527" y1="10" y2="263.1875"/><line style="stroke:#333333;stroke-width:0.5;stroke-dasharray:3,5;" x1="129.5527" x2="129.5527" y1="10" y2="263.1875"/><line style="stroke:#333333;stroke-width:0.5;stroke-dasharray:3,5;" x1="179.5527" x2="179.5527" y1="10" y2="263.1875"/><line style="stroke:#333333;stroke-width:0.5;stroke-dasharray:3,5;" x1="229.5527" x2="229.5527" y1="10" y2="263.1875"/><line style="stroke:#333333;stroke-width:0.5;stroke-dasharray:3,5;" x1="279.5527" x2="279.5527" y1="10" y2="263.1875"/><line style="stroke:#333333;stroke-width:0.5;stroke-dasharray:3,5;" x1="329.5527" x2="329.5527" y1="10" y2="263.1875"/><line style="stroke:#333333;stroke-width:0.5;stroke-dasharray:3,5;" x1="379.5527" x2="379.5527" y1="10" y2="263.1875"/><line style="stroke:#333333;stroke-width:0.5;stroke-dasharray:3,5;" x1="429.5527" x2="429.5527" y1="10" y2="263.1875"/><line style="stroke:#333333;stroke-width:0.5;" x1="10" x2="434.5527" y1="10" y2="10"/><text fill="#333333" font-family="sans-serif" font-size="14" font-weight="bold" lengthAdjust="spacing" textLength="59.042" x="15" y="22.9951">Clock_0</text><line style="stroke:#333333;stroke-width:0.5;" x1="10" x2="75.042" y1="27.2969" y2="27.2969"/><line style="stroke:#333333;stroke-width:0.5;" x1="75.042" x2="85.042" y1="27.2969" y2="10"/><line style="stroke:#006400;stroke-width:1.5;" x1="79.5527" x2="79.5527" y1="34.2969" y2="48.2969"/><line style="stroke:#006400;stroke-width:1.5;" x1="79.5527" x2="104.5527" y1="34.2969" y2="34.2969"/><line style="stroke:#006400;stroke-width:1.5;" x1="104.5527" x2="104.5527" y1="34.2969" y2="48.2969"/><line style="stroke:#006400;stroke-width:1.5;" x1="104.5527" x2="129.5527" y1="48.2969" y2="48.2969"/><line style="stroke:#006400;stroke-width:1.5;" x1="129.5527" x2="129.5527" y1="34.2969" y2="48.2969"/><line style="stroke:#006400;stroke-width:1.5;" x1="129.5527" x2="154.5527" y1="34.2969" y2="34.2969"/><line style="stroke:#006400;stroke-width:1.5;" x1="154.5527" x2="154.5527" y1="34.2969" y2="48.2969"/><line style="stroke:#006400;stroke-width:1.5;" x1="154.5527" x2="179.5527" y1="48.2969" y2="48.2969"/><line style="stroke:#006400;stroke-width:1.5;" x1="179.5527" x2="179.5527" y1="34.2969" y2="48.2969"/><line style="stroke:#006400;stroke-width:1.5;" x1="179.5527" x2="204.5527" y1="34.2969" y2="34.2969"/><line style="stroke:#006400;stroke-width:1.5;" x1="204.5527" x2="204.5527" y1="34.2969" y2="48.2969"/><line style="stroke:#006400;stroke-width:1.5;" x1="204.5527" x2="229.5527" y1="48.2969" y2="48.2969"/><line style="stroke:#006400;stroke-width:1.5;" x1="229.5527" x2="229.5527" y1="34.2969" y2="48.2969"/><line style="stroke:#006400;stroke-width:1.5;" x1="229.5527" x2="254.5527" y1="34.2969" y2="34.2969"/><line style="stroke:#006400;stroke-width:1.5;" x1="254.5527" x2="254.5527" y1="34.2969" y2="48.2969"/><line style="stroke:#006400;stroke-width:1.5;" x1="254.5527" x2="279.5527" y1="48.2969" y2="48.2969"/><line style="stroke:#006400;stroke-width:1.5;" x1="279.5527" x2="279.5527" y1="34.2969" y2="48.2969"/><line style="stroke:#006400;stroke-width:1.5;" x1="279.5527" x2="304.5527" y1="34.2969" y2="34.2969"/><line style="stroke:#006400;stroke-width:1.5;" x1="304.5527" x2="304.5527" y1="34.2969" y2="48.2969"/><line style="stroke:#006400;stroke-width:1.5;" x1="304.5527" x2="329.5527" y1="48.2969" y2="48.2969"/><line style="stroke:#006400;stroke-width:1.5;" x1="329.5527" x2="329.5527" y1="34.2969" y2="48.2969"/><line style="stroke:#006400;stroke-width:1.5;" x1="329.5527" x2="354.5527" y1="34.2969" y2="34.2969"/><line style="stroke:#006400;stroke-width:1.5;" x1="354.5527" x2="354.5527" y1="34.2969" y2="48.2969"/><line style="stroke:#006400;stroke-width:1.5;" x1="354.5527" x2="379.5527" y1="48.2969" y2="48.2969"/><line style="stroke:#006400;stroke-width:1.5;" x1="379.5527" x2="379.5527" y1="34.2969" y2="48.2969"/><line style="stroke:#006400;stroke-width:1.5;" x1="379.5527" x2="404.5527" y1="34.2969" y2="34.2969"/><line style="stroke:#006400;stroke-width:1.5;" x1="404.5527" x2="404.5527" y1="34.2969" y2="48.2969"/><line style="stroke:#006400;stroke-width:1.5;" x1="404.5527" x2="429.5527" y1="48.2969" y2="48.2969"/><line style="stroke:#006400;stroke-width:1.5;" x1="429.5527" x2="429.5527" y1="34.2969" y2="48.2969"/><line style="stroke:#006400;stroke-width:1.5;" x1="429.5527" x2="429.5527" y1="34.2969" y2="34.2969"/><line style="stroke:#333333;stroke-width:0.5;" x1="10" x2="434.5527" y1="56.2969" y2="56.2969"/><text fill="#333333" font-family="sans-serif" font-size="14" font-weight="bold" lengthAdjust="spacing" textLength="59.042" x="15" y="69.292">Clock_1</text><line style="stroke:#333333;stroke-width:0.5;" x1="10" x2="75.042" y1="73.5938" y2="73.5938"/><line style="stroke:#333333;stroke-width:0.5;" x1="75.042" x2="85.042" y1="73.5938" y2="56.2969"/><line style="stroke:#006400;stroke-width:1.5;" x1="79.5527" x2="89.5527" y1="94.5938" y2="94.5938"/><line style="stroke:#006400;stroke-width:1.5;" x1="89.5527" x2="89.5527" y1="80.5938" y2="94.5938"/><line style="stroke:#006400;stroke-width:1.5;" x1="89.5527" x2="104.5527" y1="80.5938" y2="80.5938"/><line style="stroke:#006400;stroke-width:1.5;" x1="104.5527" x2="104.5527" y1="80.5938" y2="94.5938"/><line style="stroke:#006400;stroke-width:1.5;" x1="104.5527" x2="139.5527" y1="94.5938" y2="94.5938"/><line style="stroke:#006400;stroke-width:1.5;" x1="139.5527" x2="139.5527" y1="80.5938" y2="94.5938"/><line style="stroke:#006400;stroke-width:1.5;" x1="139.5527" x2="154.5527" y1="80.5938" y2="80.5938"/><line style="stroke:#006400;stroke-width:1.5;" x1="154.5527" x2="154.5527" y1="80.5938" y2="94.5938"/><line style="stroke:#006400;stroke-width:1.5;" x1="154.5527" x2="189.5527" y1="94.5938" y2="94.5938"/><line style="stroke:#006400;stroke-width:1.5;" x1="189.5527" x2="189.5527" y1="80.5938" y2="94.5938"/><line style="stroke:#006400;stroke-width:1.5;" x1="189.5527" x2="204.5527" y1="80.5938" y2="80.5938"/><line style="stroke:#006400;stroke-width:1.5;" x1="204.5527" x2="204.5527" y1="80.5938" y2="94.5938"/><line style="stroke:#006400;stroke-width:1.5;" x1="204.5527" x2="239.5527" y1="94.5938" y2="94.5938"/><line style="stroke:#006400;stroke-width:1.5;" x1="239.5527" x2="239.5527" y1="80.5938" y2="94.5938"/><line style="stroke:#006400;stroke-width:1.5;" x1="239.5527" x2="254.5527" y1="80.5938" y2="80.5938"/><line style="stroke:#006400;stroke-width:1.5;" x1="254.5527" x2="254.5527" y1="80.5938" y2="94.5938"/><line style="stroke:#006400;stroke-width:1.5;" x1="254.5527" x2="289.5527" y1="94.5938" y2="94.5938"/><line style="stroke:#006400;stroke-width:1.5;" x1="289.5527" x2="289.5527" y1="80.5938" y2="94.5938"/><line style="stroke:#006400;stroke-width:1.5;" x1="289.5527" x2="304.5527" y1="80.5938" y2="80.5938"/><line style="stroke:#006400;stroke-width:1.5;" x1="304.5527" x2="304.5527" y1="80.5938" y2="94.5938"/><line style="stroke:#006400;stroke-width:1.5;" x1="304.5527" x2="339.5527" y1="94.5938" y2="94.5938"/><line style="stroke:#006400;stroke-width:1.5;" x1="339.5527" x2="339.5527" y1="80.5938" y2="94.5938"/><line style="stroke:#006400;stroke-width:1.5;" x1="339.5527" x2="354.5527" y1="80.5938" y2="80.5938"/><line style="stroke:#006400;stroke-width:1.5;" x1="354.5527" x2="354.5527" y1="80.5938" y2="94.5938"/><line style="stroke:#006400;stroke-width:1.5;" x1="354.5527" x2="389.5527" y1="94.5938" y2="94.5938"/><line style="stroke:#006400;stroke-width:1.5;" x1="389.5527" x2="389.5527" y1="80.5938" y2="94.5938"/><line style="stroke:#006400;stroke-width:1.5;" x1="389.5527" x2="404.5527" y1="80.5938" y2="80.5938"/><line style="stroke:#006400;stroke-width:1.5;" x1="404.5527" x2="404.5527" y1="80.5938" y2="94.5938"/><line style="stroke:#006400;stroke-width:1.5;" x1="404.5527" x2="429.5527" y1="94.5938" y2="94.5938"/><line style="stroke:#333333;stroke-width:0.5;" x1="10" x2="434.5527" y1="102.5938" y2="102.5938"/><text fill="#333333" font-family="sans-serif" font-size="14" font-weight="bold" lengthAdjust="spacing" textLength="50.9141" x="15" y="122.4404">Binary</text><line style="stroke:#006400;stroke-width:2;" x1="79.5527" x2="179.5527" y1="124.5938" y2="124.5938"/><line style="stroke:#006400;stroke-width:2;" x1="179.5527" x2="179.5527" y1="110.5938" y2="124.5938"/><line style="stroke:#006400;stroke-width:2;" x1="179.5527" x2="429.5527" y1="110.5938" y2="110.5938"/><line style="stroke:#333333;stroke-width:0.5;" x1="10" x2="434.5527" y1="132.5938" y2="132.5938"/><text fill="#333333" font-family="sans-serif" font-size="14" font-weight="bold" lengthAdjust="spacing" textLength="60.7852" x="15" y="145.5889">Concise</text><line style="stroke:#333333;stroke-width:0.5;" x1="10" x2="76.7852" y1="149.8906" y2="149.8906"/><line style="stroke:#333333;stroke-width:0.5;" x1="76.7852" x2="86.7852" y1="149.8906" y2="132.5938"/><polygon fill="#E2E2F0" points="91.5527,154.8906,167.5527,154.8906,179.5527,166.8906,167.5527,178.8906,91.5527,178.8906,79.5527,166.8906" style="stroke:#006400;stroke-width:1.5;"/><polygon fill="#E2E2F0" points="191.5527,154.8906,429.5527,154.8906,429.5527,178.8906,191.5527,178.8906,179.5527,166.8906" style="stroke:#E2E2F0;stroke-width:1.5;"/><path d="M429.5527,154.8906 L191.5527,154.8906 L179.5527,166.8906 L191.5527,178.8906 L429.5527,178.8906" fill="#E2E2F0" style="stroke:#006400;stroke-width:1.5;"/><text fill="#333333" font-family="sans-serif" font-size="12" font-weight="bold" lengthAdjust="spacing" textLength="25.3066" x="116.8994" y="171.0449">Idle</text><text fill="#333333" font-family="sans-serif" font-size="12" font-weight="bold" lengthAdjust="spacing" textLength="52.4297" x="191.5527" y="171.0449">Waiting</text><line style="stroke:#333333;stroke-width:0.5;" x1="10" x2="434.5527" y1="188.8906" y2="188.8906"/><text fill="#333333" font-family="sans-serif" font-size="14" font-weight="bold" lengthAdjust="spacing" textLength="55.4121" x="15" y="201.8857">Robust</text><line style="stroke:#333333;stroke-width:0.5;" x1="10" x2="71.4121" y1="206.1875" y2="206.1875"/><line style="stroke:#333333;stroke-width:0.5;" x1="71.4121" x2="81.4121" y1="206.1875" y2="188.8906"/><text fill="#333333" font-family="sans-serif" font-size="12" lengthAdjust="spacing" textLength="21.873" x="15" y="256.3418">Idle</text><text fill="#333333" font-family="sans-serif" font-size="12" lengthAdjust="spacing" textLength="64.5527" x="15" y="236.3418">Processing</text><text fill="#333333" font-family="sans-serif" font-size="12" lengthAdjust="spacing" textLength="45.8145" x="15" y="216.3418">Waiting</text><line style="stroke:#006400;stroke-width:2;" x1="79.5527" x2="179.5527" y1="251.1875" y2="251.1875"/><line style="stroke:#006400;stroke-width:2;" x1="179.5527" x2="379.5527" y1="231.1875" y2="231.1875"/><line style="stroke:#006400;stroke-width:2;" x1="379.5527" x2="429.5527" y1="211.1875" y2="211.1875"/><line style="stroke:#006400;stroke-width:2;" x1="179.5527" x2="179.5527" y1="231.1875" y2="251.1875"/><line style="stroke:#006400;stroke-width:2;" x1="379.5527" x2="379.5527" y1="211.1875" y2="231.1875"/><line style="stroke:#333333;stroke-width:2;" x1="79.5527" x2="79.5527" y1="263.1875" y2="268.1875"/><line style="stroke:#333333;stroke-width:2;" x1="129.5527" x2="129.5527" y1="263.1875" y2="268.1875"/><line style="stroke:#333333;stroke-width:2;" x1="179.5527" x2="179.5527" y1="263.1875" y2="268.1875"/><line style="stroke:#333333;stroke-width:2;" x1="229.5527" x2="229.5527" y1="263.1875" y2="268.1875"/><line style="stroke:#333333;stroke-width:2;" x1="279.5527" x2="279.5527" y1="263.1875" y2="268.1875"/><line style="stroke:#333333;stroke-width:2;" x1="329.5527" x2="329.5527" y1="263.1875" y2="268.1875"/><line style="stroke:#333333;stroke-width:2;" x1="379.5527" x2="379.5527" y1="263.1875" y2="268.1875"/><line style="stroke:#333333;stroke-width:2;" x1="429.5527" x2="429.5527" y1="263.1875" y2="268.1875"/><line style="stroke:#333333;stroke-width:2;" x1="79.5527" x2="429.5527" y1="263.1875" y2="263.1875"/><text fill="#333333" font-family="sans-serif" font-size="11" lengthAdjust="spacing" textLength="6.9985" x="76.0535" y="279.3979">0</text><text fill="#333333" font-family="sans-serif" font-size="11" lengthAdjust="spacing" textLength="13.9971" x="122.5542" y="279.3979">50</text><text fill="#333333" font-family="sans-serif" font-size="11" lengthAdjust="spacing" textLength="20.9956" x="169.0549" y="279.3979">100</text><text fill="#333333" font-family="sans-serif" font-size="11" lengthAdjust="spacing" textLength="20.9956" x="369.0549" y="279.3979">300</text><!--SRC=[NSon2i8m4CRn_PxYo1DSaEwbcTmaYwEaQTeUbgOaAUBRcoOewlO_-7rd5s_lY2ZK4JSIkKr4HVZWDEFc0li16mBx2-KRoZ-8sxv4Xx91FuxH9PG4FQycFFEsAo7AiWFhLylP2bL3b8SGVB_7bBKkKRK6W9P08KSy3ui3_Ibe9H5qnptpD5TpDPnudIgx16zTZCSDxIbZ_KLU]--></g></svg>