<svg xmlns="http://www.w3.org/2000/svg" xmlns:xlink="http://www.w3.org/1999/xlink" contentStyleType="text/css" data-diagram-type="DESCRIPTION" height="387px" preserveAspectRatio="none" style="width:310px;height:387px;background:#FFFFFF;" version="1.1" viewBox="0 0 310 387" width="310px" zoomAndPan="magnify"><defs/><g><!--cluster Professional--><g class="cluster" data-entity="Professional" data-source-line="3" data-uid="ent0003" id="cluster_Professional"><path d="M8.5,142 L107.165,142 A3.75,3.75 0 0 1 109.665,144.5 L116.665,164.2969 L115.52,164.2969 A2.5,2.5 0 0 1 118.02,166.7969 L118.02,377.5 A2.5,2.5 0 0 1 115.52,380 L8.5,380 A2.5,2.5 0 0 1 6,377.5 L6,144.5 A2.5,2.5 0 0 1 8.5,142" fill="none" style="stroke:#000000;stroke-width:1.5;"/><line style="stroke:#000000;stroke-width:1.5;" x1="6" x2="116.665" y1="164.2969" y2="164.2969"/><text fill="#000000" font-family="sans-serif" font-size="14" font-weight="bold" lengthAdjust="spacing" textLength="97.665" x="10" y="156.9951">Professional</text></g><!--cluster Restaurant--><g class="cluster" data-entity="Restaurant" data-source-line="7" data-uid="ent0006" id="cluster_Restaurant"><path d="M148.52,6 L237.2456,6 A3.75,3.75 0 0 1 239.7456,8.5 L246.7456,28.2969 L301.1,28.2969 A2.5,2.5 0 0 1 303.6,30.7969 L303.6,276.5 A2.5,2.5 0 0 1 301.1,279 L148.52,279 A2.5,2.5 0 0 1 146.02,276.5 L146.02,8.5 A2.5,2.5 0 0 1 148.52,6" fill="none" style="stroke:#000000;stroke-width:1.5;"/><line style="stroke:#000000;stroke-width:1.5;" x1="146.02" x2="246.7456" y1="28.2969" y2="28.2969"/><text fill="#000000" font-family="sans-serif" font-size="14" font-weight="bold" lengthAdjust="spacing" textLength="87.7256" x="150.02" y="20.9951">Restaurant</text></g><!--entity c--><g class="entity" data-entity="c" data-source-line="4" data-uid="ent0004" id="entity_c"><ellipse cx="61.5052" cy="185.35" fill="#F1F1F1" rx="8" ry="8" style="stroke:#181818;stroke-width:0.5;"/><path d="M61.5052,193.35 L61.5052,220.35 M48.5052,201.35 L74.5052,201.35 M61.5052,220.35 L48.5052,235.35 M61.5052,220.35 L74.5052,235.35" fill="none" style="stroke:#181818;stroke-width:0.5;"/><text fill="#000000" font-family="sans-serif" font-size="14" lengthAdjust="spacing" textLength="32.1904" x="45.41" y="249.8451">Chef</text></g><!--entity fc--><g class="entity" data-entity="fc" data-source-line="5" data-uid="ent0005" id="entity_fc"><ellipse cx="61.5088" cy="296.35" fill="#F1F1F1" rx="8" ry="8" style="stroke:#181818;stroke-width:0.5;"/><path d="M61.5088,304.35 L61.5088,331.35 M48.5088,312.35 L74.5088,312.35 M61.5088,331.35 L48.5088,346.35 M61.5088,331.35 L74.5088,346.35" fill="none" style="stroke:#181818;stroke-width:0.5;"/><text fill="#000000" font-family="sans-serif" font-size="14" lengthAdjust="spacing" textLength="75.0176" x="24" y="360.8451">Food Critic</text></g><!--entity UC1--><g class="entity" data-entity="UC1" data-source-line="8" data-uid="ent0007" id="entity_UC1"><ellipse cx="224.8108" cy="56.0036" fill="#F1F1F1" rx="46.4408" ry="14.5236" style="stroke:#181818;stroke-width:0.5;"/><text fill="#000000" font-family="sans-serif" font-size="14" lengthAdjust="spacing" textLength="61.4346" x="194.0935" y="60.6521">Eat Food</text></g><!--entity UC2--><g class="entity" data-entity="UC2" data-source-line="9" data-uid="ent0008" id="entity_UC2"><ellipse cx="224.8128" cy="119.9986" fill="#F1F1F1" rx="62.7928" ry="14.9586" style="stroke:#181818;stroke-width:0.5;"/><text fill="#000000" font-family="sans-serif" font-size="14" lengthAdjust="spacing" textLength="87.5273" x="181.0492" y="124.647">Pay for Food</text></g><!--entity UC3--><g class="entity" data-entity="UC3" data-source-line="10" data-uid="ent0009" id="entity_UC3"><ellipse cx="224.8102" cy="184.0036" fill="#F1F1F1" rx="29.4502" ry="14.5236" style="stroke:#181818;stroke-width:0.5;"/><text fill="#000000" font-family="sans-serif" font-size="14" lengthAdjust="spacing" textLength="37.4063" x="206.1071" y="188.6521">Drink</text></g><!--entity UC4--><g class="entity" data-entity="UC4" data-source-line="11" data-uid="ent0010" id="entity_UC4"><ellipse cx="224.8148" cy="248.0036" fill="#F1F1F1" rx="38.7648" ry="14.5236" style="stroke:#181818;stroke-width:0.5;"/><text fill="#000000" font-family="sans-serif" font-size="14" lengthAdjust="spacing" textLength="50.5791" x="199.5253" y="252.6521">Review</text></g><!--entity g--><g class="entity" data-entity="g" data-source-line="2" data-uid="ent0002" id="entity_g"><ellipse cx="61.5091" cy="58.35" fill="#F1F1F1" rx="8" ry="8" style="stroke:#181818;stroke-width:0.5;"/><path d="M61.5091,66.35 L61.5091,93.35 M48.5091,74.35 L74.5091,74.35 M61.5091,93.35 L48.5091,108.35 M61.5091,93.35 L74.5091,108.35" fill="none" style="stroke:#181818;stroke-width:0.5;"/><text fill="#000000" font-family="sans-serif" font-size="14" lengthAdjust="spacing" textLength="41.1182" x="40.95" y="122.8451">Guest</text></g><!--link fc to UC4--><g class="link" data-entity-1="fc" data-entity-2="UC4" data-source-line="13" data-uid="lnk11" id="link_fc_UC4"><path d="M99.51,308.11 C130.39,293.17 168.088,274.9412 194.568,262.1412" fill="none" id="fc-to-UC4" style="stroke:#181818;stroke-width:1;"/><polygon fill="#181818" points="199.97,259.53,190.1262,259.8455,195.4683,261.706,193.6078,267.0482,199.97,259.53" style="stroke:#181818;stroke-width:1;"/></g><!--link g to UC1--><g class="link" data-entity-1="g" data-entity-2="UC1" data-source-line="14" data-uid="lnk12" id="link_g_UC1"><path d="M82.29,84.08 C107.69,79.04 146.4846,71.3373 178.8546,64.9173" fill="none" id="g-to-UC1" style="stroke:#181818;stroke-width:1;"/><polygon fill="#181818" points="184.74,63.75,175.1338,61.5773,179.8355,64.7227,176.6901,69.4245,184.74,63.75" style="stroke:#181818;stroke-width:1;"/></g><!--link g to UC2--><g class="link" data-entity-1="g" data-entity-2="UC2" data-source-line="15" data-uid="lnk13" id="link_g_UC2"><path d="M82.29,91.92 C105.34,96.5 138.3644,103.0538 169.5544,109.2338" fill="none" id="g-to-UC2" style="stroke:#181818;stroke-width:1;"/><polygon fill="#181818" points="175.44,110.4,167.3891,104.727,170.5354,109.4282,165.8342,112.5745,175.44,110.4" style="stroke:#181818;stroke-width:1;"/></g><!--link g to UC3--><g class="link" data-entity-1="g" data-entity-2="UC3" data-source-line="16" data-uid="lnk14" id="link_g_UC3"><path d="M82.49,108.32 C96.92,122.09 117.41,139.92 138.02,152 C157.08,163.17 175.0037,169.8907 192.6437,175.3007" fill="none" id="g-to-UC3" style="stroke:#181818;stroke-width:1;"/><polygon fill="#181818" points="198.38,177.06,190.9484,170.5969,193.5998,175.594,188.6027,178.2453,198.38,177.06" style="stroke:#181818;stroke-width:1;"/></g><!--SRC=[JOwx3eCm34NtV8N5pW3jt8K-LeJK3x2C4o8GgHBJgghwxmqKHTckVQwFFB4M40VUca6Wjvv9h9iLaZWFjuM300Omwe4qec5elTCSGkpW11y5y6ys0-krI6bJN9theV5MB1KhqgI-ITD5CIuUPzaaIs32m51SK60zt2xkJPMp5j-WepdZTSxFtixZ3WuvwFXf-RMJO_n24vJbQHlCdggKwfGEFm00]--></g></svg>